%TF.GenerationSoftware,KiCad,Pcbnew,8.0.2-1*%
%TF.CreationDate,2024-06-10T16:35:40+09:00*%
%TF.ProjectId,Miriball36_top,4d697269-6261-46c6-9c33-365f746f702e,rev?*%
%TF.SameCoordinates,Original*%
%TF.FileFunction,Profile,NP*%
%FSLAX46Y46*%
G04 Gerber Fmt 4.6, Leading zero omitted, Abs format (unit mm)*
G04 Created by KiCad (PCBNEW 8.0.2-1) date 2024-06-10 16:35:40*
%MOMM*%
%LPD*%
G01*
G04 APERTURE LIST*
%TA.AperFunction,Profile*%
%ADD10C,0.050000*%
%TD*%
%TA.AperFunction,Profile*%
%ADD11C,0.120000*%
%TD*%
G04 APERTURE END LIST*
D10*
X106090000Y-38040000D02*
G75*
G02*
X107090000Y-39040000I0J-1000000D01*
G01*
X151372522Y-139342328D02*
X167106175Y-112071952D01*
X125090000Y-42790000D02*
X108090000Y-42790000D01*
X106090000Y-38040000D02*
X85840000Y-38040000D01*
X108090000Y-42790000D02*
G75*
G02*
X107090000Y-41790000I0J1000000D01*
G01*
X83440507Y-108542346D02*
X93923574Y-121676077D01*
X46840000Y-48540000D02*
X46840000Y-106790000D01*
X167240000Y-111572212D02*
X167240000Y-103116963D01*
X166740503Y-102251228D02*
G75*
G02*
X167239996Y-103116963I-500403J-865672D01*
G01*
X166740503Y-102251228D02*
X146339497Y-90456897D01*
X126090000Y-43790000D02*
X126090000Y-44040000D01*
X65840000Y-46540000D02*
G75*
G02*
X64840000Y-47540000I-1000000J0D01*
G01*
X84840000Y-39040000D02*
X84840000Y-39290000D01*
X64840000Y-47540000D02*
X47840000Y-47540000D01*
X65840000Y-41290000D02*
G75*
G02*
X66840000Y-40290000I1000000J0D01*
G01*
X81877382Y-107790000D02*
G75*
G02*
X83440489Y-108542361I18J-1999900D01*
G01*
X47840000Y-107790000D02*
X81877382Y-107790000D01*
X151372522Y-139342328D02*
G75*
G02*
X150202599Y-139795328I-866122J499628D01*
G01*
X144840000Y-45040000D02*
X127090000Y-45040000D01*
X84840000Y-39040000D02*
G75*
G02*
X85840000Y-38040000I1000000J0D01*
G01*
X145840000Y-46040000D02*
X145840000Y-89591162D01*
X107090000Y-41790000D02*
X107090000Y-39040000D01*
X94401384Y-122005001D02*
G75*
G02*
X93923548Y-121676098I303716J952801D01*
G01*
X125090000Y-42790000D02*
G75*
G02*
X126090000Y-43790000I0J-1000000D01*
G01*
X127090000Y-45040000D02*
G75*
G02*
X126090000Y-44040000I0J1000000D01*
G01*
X47840000Y-107790000D02*
G75*
G02*
X46840000Y-106790000I0J1000000D01*
G01*
X94401384Y-122005001D02*
X150202595Y-139795339D01*
X65840000Y-41290000D02*
X65840000Y-46540000D01*
X46840000Y-48540000D02*
G75*
G02*
X47840000Y-47540000I1000000J0D01*
G01*
X146339497Y-90456897D02*
G75*
G02*
X145840033Y-89591162I500503J865697D01*
G01*
X144840000Y-45040000D02*
G75*
G02*
X145840000Y-46040000I0J-1000000D01*
G01*
X167240000Y-111572212D02*
G75*
G02*
X167106170Y-112071949I-1000000J12D01*
G01*
X84840000Y-39290000D02*
G75*
G02*
X83840000Y-40290000I-1000000J0D01*
G01*
X83840000Y-40290000D02*
X66840000Y-40290000D01*
%TO.C,REF\u002A\u002A*%
X107991200Y-65827800D02*
X107991200Y-79827800D01*
X107991200Y-79827800D02*
X121991200Y-79827800D01*
X121991200Y-65827800D02*
X107991200Y-65827800D01*
X121991200Y-79827800D02*
X121991200Y-65827800D01*
X69890400Y-82496900D02*
X69890400Y-96496900D01*
X69890400Y-96496900D02*
X83890400Y-96496900D01*
X83890400Y-82496900D02*
X69890400Y-82496900D01*
X83890400Y-96496900D02*
X83890400Y-82496900D01*
X88940800Y-80115600D02*
X88940800Y-94115600D01*
X88940800Y-94115600D02*
X102940800Y-94115600D01*
X102940800Y-80115600D02*
X88940800Y-80115600D01*
X102940800Y-94115600D02*
X102940800Y-80115600D01*
X119194477Y-118708617D02*
X132778617Y-122095523D01*
X122581383Y-105124477D02*
X119194477Y-118708617D01*
X132778617Y-122095523D02*
X136165523Y-108511383D01*
X136165523Y-108511383D02*
X122581383Y-105124477D01*
X50840000Y-70590400D02*
X50840000Y-84590400D01*
X50840000Y-84590400D02*
X64840000Y-84590400D01*
X64840000Y-70590400D02*
X50840000Y-70590400D01*
X64840000Y-84590400D02*
X64840000Y-70590400D01*
X127041600Y-49158700D02*
X127041600Y-63158700D01*
X127041600Y-63158700D02*
X141041600Y-63158700D01*
X141041600Y-49158700D02*
X127041600Y-49158700D01*
X141041600Y-63158700D02*
X141041600Y-49158700D01*
X107991200Y-46777400D02*
X107991200Y-60777400D01*
X107991200Y-60777400D02*
X121991200Y-60777400D01*
X121991200Y-46777400D02*
X107991200Y-46777400D01*
X121991200Y-60777400D02*
X121991200Y-46777400D01*
X88940800Y-61065200D02*
X88940800Y-75065200D01*
X88940800Y-75065200D02*
X102940800Y-75065200D01*
X102940800Y-61065200D02*
X88940800Y-61065200D01*
X102940800Y-75065200D02*
X102940800Y-61065200D01*
D11*
X137198933Y-125410834D02*
X138722933Y-122771189D01*
X137309097Y-127556824D02*
X138210797Y-125995034D01*
X138210797Y-125995034D02*
X137198933Y-125410834D01*
X138722933Y-122771189D02*
X139734797Y-123355389D01*
X139734797Y-123355389D02*
X140636497Y-121793598D01*
X140636497Y-121793598D02*
X141318406Y-122187298D01*
X141318406Y-122187298D02*
X142131206Y-120779487D01*
X142131206Y-120779487D02*
X141119342Y-120195287D01*
X142156588Y-131352724D02*
X142588388Y-130604824D01*
X142588388Y-130604824D02*
X137309097Y-127556824D01*
X144576263Y-132749724D02*
X142156588Y-131352724D01*
X145008063Y-132001824D02*
X144576263Y-132749724D01*
X147955667Y-133703624D02*
X145008063Y-132001824D01*
X148104342Y-108096913D02*
X141119342Y-120195287D01*
X149116207Y-108681113D02*
X148104342Y-108096913D01*
X149136933Y-104733611D02*
X150148797Y-105317811D01*
X149247097Y-106879602D02*
X149929006Y-107273302D01*
X149929006Y-107273302D02*
X149116207Y-108681113D01*
X150148797Y-105317811D02*
X149247097Y-106879602D01*
X150579162Y-127533998D02*
X151283067Y-127940398D01*
X150660933Y-102093966D02*
X149136933Y-104733611D01*
X151283067Y-127940398D02*
X147955667Y-133703624D01*
X151391962Y-126126187D02*
X150579162Y-127533998D01*
X151672797Y-102678166D02*
X150660933Y-102093966D01*
X152574497Y-101116376D02*
X151672797Y-102678166D01*
X153217716Y-127180287D02*
X151391962Y-126126187D01*
X157853788Y-104164376D02*
X152574497Y-101116376D01*
X158285588Y-103416476D02*
X157853788Y-104164376D01*
X158376962Y-114027813D02*
X159189762Y-112620002D01*
X159189762Y-112620002D02*
X159893667Y-113026402D01*
X159893667Y-113026402D02*
X163221067Y-107263176D01*
X160202716Y-115081913D02*
X153217716Y-127180287D01*
X160202716Y-115081913D02*
X158376962Y-114027813D01*
X160273463Y-105561376D02*
X160705263Y-104813476D01*
X160705263Y-104813476D02*
X158285588Y-103416476D01*
X163221067Y-107263176D02*
X160273463Y-105561376D01*
D10*
X50840000Y-89640800D02*
X50840000Y-103640800D01*
X50840000Y-103640800D02*
X64840000Y-103640800D01*
X64840000Y-89640800D02*
X50840000Y-89640800D01*
X64840000Y-103640800D02*
X64840000Y-89640800D01*
X50840000Y-51540000D02*
X50840000Y-65540000D01*
X50840000Y-65540000D02*
X64840000Y-65540000D01*
X64840000Y-51540000D02*
X50840000Y-51540000D01*
X64840000Y-65540000D02*
X64840000Y-51540000D01*
X127041600Y-87259500D02*
X127041600Y-101259500D01*
X127041600Y-101259500D02*
X141041600Y-101259500D01*
X141041600Y-87259500D02*
X127041600Y-87259500D01*
X141041600Y-101259500D02*
X141041600Y-87259500D01*
X107991200Y-84878200D02*
X107991200Y-98878200D01*
X107991200Y-98878200D02*
X121991200Y-98878200D01*
X121991200Y-84878200D02*
X107991200Y-84878200D01*
X121991200Y-98878200D02*
X121991200Y-84878200D01*
X98466000Y-103928600D02*
X98466000Y-117928600D01*
X98466000Y-117928600D02*
X112466000Y-117928600D01*
X112466000Y-103928600D02*
X98466000Y-103928600D01*
X112466000Y-117928600D02*
X112466000Y-103928600D01*
X127041600Y-68209100D02*
X127041600Y-82209100D01*
X127041600Y-82209100D02*
X141041600Y-82209100D01*
X141041600Y-68209100D02*
X127041600Y-68209100D01*
X141041600Y-82209100D02*
X141041600Y-68209100D01*
X69890400Y-44396100D02*
X69890400Y-58396100D01*
X69890400Y-58396100D02*
X83890400Y-58396100D01*
X83890400Y-44396100D02*
X69890400Y-44396100D01*
X83890400Y-58396100D02*
X83890400Y-44396100D01*
X88940800Y-42014800D02*
X88940800Y-56014800D01*
X88940800Y-56014800D02*
X102940800Y-56014800D01*
X102940800Y-42014800D02*
X88940800Y-42014800D01*
X102940800Y-56014800D02*
X102940800Y-42014800D01*
X69890400Y-63446500D02*
X69890400Y-77446500D01*
X69890400Y-77446500D02*
X83890400Y-77446500D01*
X83890400Y-63446500D02*
X69890400Y-63446500D01*
X83890400Y-77446500D02*
X83890400Y-63446500D01*
%TD*%
M02*
