M48
; DRILL file {KiCad 8.0.2-1} date 2024-06-10T16:48:46+0900
; FORMAT={-:-/ absolute / inch / decimal}
; #@! TF.CreationDate,2024-06-10T16:48:46+09:00
; #@! TF.GenerationSoftware,Kicad,Pcbnew,8.0.2-1
; #@! TF.FileFunction,NonPlated,1,2,NPTH
FMAT,2
INCH
; #@! TA.AperFunction,NonPlated,NPTH,ComponentDrill
T1C0.0472
; #@! TA.AperFunction,NonPlated,NPTH,ComponentDrill
T2C0.0669
; #@! TA.AperFunction,NonPlated,NPTH,ComponentDrill
T3C0.0748
; #@! TA.AperFunction,NonPlated,NPTH,ComponentDrill
T4C0.1181
; #@! TA.AperFunction,NonPlated,NPTH,ComponentDrill
T5C0.1200
; #@! TA.AperFunction,NonPlated,NPTH,ComponentDrill
T6C0.1570
; #@! TA.AperFunction,NonPlated,NPTH,ComponentDrill
T7C0.1575
%
G90
G05
T1
X6.1461Y-3.3583
X6.1461Y-3.4272
X6.4217Y-3.3583
X6.4217Y-3.4272
T2
X2.0772Y-2.3047
X2.0772Y-3.0547
X2.0772Y-3.8048
X2.4772Y-2.3047
X2.4772Y-3.0547
X2.4772Y-3.8048
X2.8272Y-2.0235
X2.8272Y-2.7735
X2.8272Y-3.5235
X3.2272Y-2.0235
X3.2272Y-2.7735
X3.2272Y-3.5235
X3.5772Y-1.9297
X3.5772Y-2.6797
X3.5772Y-3.4297
X3.9522Y-4.3673
X3.9772Y-1.9297
X3.9772Y-2.6797
X3.9772Y-3.4297
X4.3272Y-2.1172
X4.3272Y-2.8672
X4.3272Y-3.6173
X4.3522Y-4.3673
X4.7272Y-2.1172
X4.7272Y-2.8672
X4.7272Y-3.6173
X4.8327Y-4.4256
X5.0772Y-2.211
X5.0772Y-2.961
X5.0772Y-3.711
X5.2208Y-4.5224
X5.4772Y-2.211
X5.4772Y-2.961
X5.4772Y-3.711
X5.8315Y-4.8043
X6.0315Y-4.4579
T3
X2.0606Y-2.3047
X2.0606Y-3.0547
X2.0606Y-3.8048
X2.4937Y-2.3047
X2.4937Y-3.0547
X2.4937Y-3.8048
X2.8106Y-2.0235
X2.8106Y-2.7735
X2.8106Y-3.5235
X3.2437Y-2.0235
X3.2437Y-2.7735
X3.2437Y-3.5235
X3.5607Y-1.9297
X3.5607Y-2.6797
X3.5607Y-3.4297
X3.9357Y-4.3673
X3.9937Y-1.9297
X3.9937Y-2.6797
X3.9937Y-3.4297
X4.3107Y-2.1172
X4.3107Y-2.8672
X4.3107Y-3.6173
X4.3687Y-4.3673
X4.7437Y-2.1172
X4.7437Y-2.8672
X4.7437Y-3.6173
X4.8167Y-4.4216
X5.0607Y-2.211
X5.0607Y-2.961
X5.0607Y-3.711
X5.2369Y-4.5264
X5.4938Y-2.211
X5.4938Y-2.961
X5.4938Y-3.711
X5.8232Y-4.8186
X6.0398Y-4.4436
T4
X2.0803Y-2.4504
X2.0803Y-3.2004
X2.0803Y-3.9504
X2.1272Y-2.2047
X2.1272Y-2.9547
X2.1272Y-3.7048
X2.1772Y-2.1047
X2.1772Y-2.8547
X2.1772Y-3.6048
X2.2772Y-2.537
X2.2772Y-3.287
X2.2772Y-4.037
X2.3772Y-2.1047
X2.3772Y-2.8547
X2.3772Y-3.6048
X2.4272Y-2.2047
X2.4272Y-2.9547
X2.4272Y-3.7048
X2.474Y-2.4504
X2.474Y-3.2004
X2.474Y-3.9504
X2.8303Y-2.1691
X2.8303Y-2.9192
X2.8303Y-3.6692
X2.8772Y-1.9235
X2.8772Y-2.6735
X2.8772Y-3.4235
X2.9272Y-1.8235
X2.9272Y-2.5735
X2.9272Y-3.3235
X3.0272Y-2.2558
X3.0272Y-3.0058
X3.0272Y-3.7558
X3.1272Y-1.8235
X3.1272Y-2.5735
X3.1272Y-3.3235
X3.1772Y-1.9235
X3.1772Y-2.6735
X3.1772Y-3.4235
X3.224Y-2.1691
X3.224Y-2.9192
X3.224Y-3.6692
X3.5803Y-2.0754
X3.5803Y-2.8254
X3.5803Y-3.5754
X3.6272Y-1.8297
X3.6272Y-2.5797
X3.6272Y-3.3297
X3.6772Y-1.7297
X3.6772Y-2.4797
X3.6772Y-3.2297
X3.7772Y-2.162
X3.7772Y-2.912
X3.7772Y-3.662
X3.8772Y-1.7297
X3.8772Y-2.4797
X3.8772Y-3.2297
X3.9272Y-1.8297
X3.9272Y-2.5797
X3.9272Y-3.3297
X3.9554Y-4.5129
X3.974Y-2.0754
X3.974Y-2.8254
X3.974Y-3.5754
X4.0022Y-4.2673
X4.0522Y-4.1673
X4.1522Y-4.5996
X4.2522Y-4.1673
X4.3022Y-4.2673
X4.3304Y-2.2629
X4.3304Y-3.0129
X4.3304Y-3.7629
X4.3491Y-4.5129
X4.3772Y-2.0172
X4.3772Y-2.7672
X4.3772Y-3.5173
X4.4272Y-1.9172
X4.4272Y-2.6672
X4.4272Y-3.4173
X4.5272Y-2.3495
X4.5272Y-3.0995
X4.5272Y-3.8495
X4.6272Y-1.9172
X4.6272Y-2.6672
X4.6272Y-3.4173
X4.6772Y-2.0172
X4.6772Y-2.7672
X4.6772Y-3.5173
X4.7241Y-2.2629
X4.7241Y-3.0129
X4.7241Y-3.7629
X4.8005Y-4.5677
X4.9054Y-4.3407
X4.9706Y-4.6994
X4.9781Y-4.2558
X5.0804Y-2.3566
X5.0804Y-3.1067
X5.0804Y-3.8567
X5.1272Y-2.111
X5.1272Y-2.861
X5.1272Y-3.611
X5.1722Y-4.3041
X5.1772Y-2.011
X5.1772Y-2.761
X5.1772Y-3.511
X5.1825Y-4.663
X5.1965Y-4.4133
X5.2772Y-2.4433
X5.2772Y-3.1933
X5.2772Y-3.9433
X5.3772Y-2.011
X5.3772Y-2.761
X5.3772Y-3.511
X5.4272Y-2.111
X5.4272Y-2.861
X5.4272Y-3.611
X5.4741Y-2.3566
X5.4741Y-3.1067
X5.4741Y-3.8567
X5.7083Y-4.6177
X5.7699Y-4.711
X5.8083Y-4.4445
X5.9199Y-4.4512
X5.9592Y-4.8744
X6.1327Y-4.7472
X6.1561Y-4.5335
T5
X5.9347Y-5.1756
X6.4047Y-4.3616
T6
X5.415Y-4.8756
X5.885Y-4.0616
X5.9315Y-4.6311
T7
X2.2772Y-2.3047
X2.2772Y-3.0547
X2.2772Y-3.8048
X3.0272Y-2.0235
X3.0272Y-2.7735
X3.0272Y-3.5235
X3.7772Y-1.9297
X3.7772Y-2.6797
X3.7772Y-3.4297
X4.1522Y-4.3673
X4.5272Y-2.1172
X4.5272Y-2.8672
X4.5272Y-3.6173
X5.0268Y-4.474
X5.2772Y-2.211
X5.2772Y-2.961
X5.2772Y-3.711
M30
