%TF.GenerationSoftware,KiCad,Pcbnew,8.0.2-1*%
%TF.CreationDate,2024-06-10T16:48:46+09:00*%
%TF.ProjectId,Miriball36,4d697269-6261-46c6-9c33-362e6b696361,rev?*%
%TF.SameCoordinates,Original*%
%TF.FileFunction,Soldermask,Top*%
%TF.FilePolarity,Negative*%
%FSLAX46Y46*%
G04 Gerber Fmt 4.6, Leading zero omitted, Abs format (unit mm)*
G04 Created by KiCad (PCBNEW 8.0.2-1) date 2024-06-10 16:48:46*
%MOMM*%
%LPD*%
G01*
G04 APERTURE LIST*
G04 Aperture macros list*
%AMRotRect*
0 Rectangle, with rotation*
0 The origin of the aperture is its center*
0 $1 length*
0 $2 width*
0 $3 Rotation angle, in degrees counterclockwise*
0 Add horizontal line*
21,1,$1,$2,0,0,$3*%
G04 Aperture macros list end*
%ADD10C,0.150000*%
%ADD11R,1.800000X1.500000*%
%ADD12C,4.900000*%
%ADD13C,1.900000*%
%ADD14C,1.700000*%
%ADD15C,3.000000*%
%ADD16C,4.000000*%
%ADD17R,0.700000X1.500000*%
%ADD18R,2.400000X2.400000*%
%ADD19R,2.000000X2.000000*%
%ADD20R,1.800000X2.000000*%
%ADD21R,2.500000X2.500000*%
%ADD22C,3.987800*%
%ADD23C,3.048000*%
%ADD24RotRect,0.700000X1.500000X60.000000*%
%ADD25RotRect,2.400000X2.400000X240.000000*%
%ADD26RotRect,2.000000X2.000000X240.000000*%
%ADD27RotRect,1.800000X2.000000X240.000000*%
%ADD28RotRect,2.500000X2.500000X240.000000*%
%ADD29C,1.397000*%
%ADD30C,1.200000*%
%ADD31R,2.100000X1.200000*%
%ADD32RotRect,1.800000X1.500000X240.000000*%
%ADD33RotRect,1.800000X1.500000X166.000000*%
%ADD34C,2.500000*%
%ADD35RotRect,0.700000X1.500000X346.000000*%
%ADD36RotRect,2.400000X2.400000X166.000000*%
%ADD37RotRect,2.000000X2.000000X166.000000*%
%ADD38RotRect,1.800000X2.000000X166.000000*%
%ADD39RotRect,2.500000X2.500000X166.000000*%
%ADD40C,1.524000*%
G04 APERTURE END LIST*
D10*
X64176779Y-105399875D02*
X64176779Y-104399875D01*
X64176779Y-104399875D02*
X64510112Y-105114160D01*
X64510112Y-105114160D02*
X64843445Y-104399875D01*
X64843445Y-104399875D02*
X64843445Y-105399875D01*
X65319636Y-105399875D02*
X65319636Y-104733208D01*
X65319636Y-104399875D02*
X65272017Y-104447494D01*
X65272017Y-104447494D02*
X65319636Y-104495113D01*
X65319636Y-104495113D02*
X65367255Y-104447494D01*
X65367255Y-104447494D02*
X65319636Y-104399875D01*
X65319636Y-104399875D02*
X65319636Y-104495113D01*
X65795826Y-105399875D02*
X65795826Y-104733208D01*
X65795826Y-104923684D02*
X65843445Y-104828446D01*
X65843445Y-104828446D02*
X65891064Y-104780827D01*
X65891064Y-104780827D02*
X65986302Y-104733208D01*
X65986302Y-104733208D02*
X66081540Y-104733208D01*
X66414874Y-105399875D02*
X66414874Y-104733208D01*
X66414874Y-104399875D02*
X66367255Y-104447494D01*
X66367255Y-104447494D02*
X66414874Y-104495113D01*
X66414874Y-104495113D02*
X66462493Y-104447494D01*
X66462493Y-104447494D02*
X66414874Y-104399875D01*
X66414874Y-104399875D02*
X66414874Y-104495113D01*
X66891064Y-105399875D02*
X66891064Y-104399875D01*
X66891064Y-104780827D02*
X66986302Y-104733208D01*
X66986302Y-104733208D02*
X67176778Y-104733208D01*
X67176778Y-104733208D02*
X67272016Y-104780827D01*
X67272016Y-104780827D02*
X67319635Y-104828446D01*
X67319635Y-104828446D02*
X67367254Y-104923684D01*
X67367254Y-104923684D02*
X67367254Y-105209398D01*
X67367254Y-105209398D02*
X67319635Y-105304636D01*
X67319635Y-105304636D02*
X67272016Y-105352256D01*
X67272016Y-105352256D02*
X67176778Y-105399875D01*
X67176778Y-105399875D02*
X66986302Y-105399875D01*
X66986302Y-105399875D02*
X66891064Y-105352256D01*
X68224397Y-105399875D02*
X68224397Y-104876065D01*
X68224397Y-104876065D02*
X68176778Y-104780827D01*
X68176778Y-104780827D02*
X68081540Y-104733208D01*
X68081540Y-104733208D02*
X67891064Y-104733208D01*
X67891064Y-104733208D02*
X67795826Y-104780827D01*
X68224397Y-105352256D02*
X68129159Y-105399875D01*
X68129159Y-105399875D02*
X67891064Y-105399875D01*
X67891064Y-105399875D02*
X67795826Y-105352256D01*
X67795826Y-105352256D02*
X67748207Y-105257017D01*
X67748207Y-105257017D02*
X67748207Y-105161779D01*
X67748207Y-105161779D02*
X67795826Y-105066541D01*
X67795826Y-105066541D02*
X67891064Y-105018922D01*
X67891064Y-105018922D02*
X68129159Y-105018922D01*
X68129159Y-105018922D02*
X68224397Y-104971303D01*
X68843445Y-105399875D02*
X68748207Y-105352256D01*
X68748207Y-105352256D02*
X68700588Y-105257017D01*
X68700588Y-105257017D02*
X68700588Y-104399875D01*
X69367255Y-105399875D02*
X69272017Y-105352256D01*
X69272017Y-105352256D02*
X69224398Y-105257017D01*
X69224398Y-105257017D02*
X69224398Y-104399875D01*
X69652970Y-104399875D02*
X70272017Y-104399875D01*
X70272017Y-104399875D02*
X69938684Y-104780827D01*
X69938684Y-104780827D02*
X70081541Y-104780827D01*
X70081541Y-104780827D02*
X70176779Y-104828446D01*
X70176779Y-104828446D02*
X70224398Y-104876065D01*
X70224398Y-104876065D02*
X70272017Y-104971303D01*
X70272017Y-104971303D02*
X70272017Y-105209398D01*
X70272017Y-105209398D02*
X70224398Y-105304636D01*
X70224398Y-105304636D02*
X70176779Y-105352256D01*
X70176779Y-105352256D02*
X70081541Y-105399875D01*
X70081541Y-105399875D02*
X69795827Y-105399875D01*
X69795827Y-105399875D02*
X69700589Y-105352256D01*
X69700589Y-105352256D02*
X69652970Y-105304636D01*
X71129160Y-104399875D02*
X70938684Y-104399875D01*
X70938684Y-104399875D02*
X70843446Y-104447494D01*
X70843446Y-104447494D02*
X70795827Y-104495113D01*
X70795827Y-104495113D02*
X70700589Y-104637970D01*
X70700589Y-104637970D02*
X70652970Y-104828446D01*
X70652970Y-104828446D02*
X70652970Y-105209398D01*
X70652970Y-105209398D02*
X70700589Y-105304636D01*
X70700589Y-105304636D02*
X70748208Y-105352256D01*
X70748208Y-105352256D02*
X70843446Y-105399875D01*
X70843446Y-105399875D02*
X71033922Y-105399875D01*
X71033922Y-105399875D02*
X71129160Y-105352256D01*
X71129160Y-105352256D02*
X71176779Y-105304636D01*
X71176779Y-105304636D02*
X71224398Y-105209398D01*
X71224398Y-105209398D02*
X71224398Y-104971303D01*
X71224398Y-104971303D02*
X71176779Y-104876065D01*
X71176779Y-104876065D02*
X71129160Y-104828446D01*
X71129160Y-104828446D02*
X71033922Y-104780827D01*
X71033922Y-104780827D02*
X70843446Y-104780827D01*
X70843446Y-104780827D02*
X70748208Y-104828446D01*
X70748208Y-104828446D02*
X70700589Y-104876065D01*
X70700589Y-104876065D02*
X70652970Y-104971303D01*
X72319637Y-104733208D02*
X72557732Y-105399875D01*
X72557732Y-105399875D02*
X72795827Y-104733208D01*
X73700589Y-105399875D02*
X73129161Y-105399875D01*
X73414875Y-105399875D02*
X73414875Y-104399875D01*
X73414875Y-104399875D02*
X73319637Y-104542732D01*
X73319637Y-104542732D02*
X73224399Y-104637970D01*
X73224399Y-104637970D02*
X73129161Y-104685589D01*
X74129161Y-105304636D02*
X74176780Y-105352256D01*
X74176780Y-105352256D02*
X74129161Y-105399875D01*
X74129161Y-105399875D02*
X74081542Y-105352256D01*
X74081542Y-105352256D02*
X74129161Y-105304636D01*
X74129161Y-105304636D02*
X74129161Y-105399875D01*
X74795827Y-104399875D02*
X74891065Y-104399875D01*
X74891065Y-104399875D02*
X74986303Y-104447494D01*
X74986303Y-104447494D02*
X75033922Y-104495113D01*
X75033922Y-104495113D02*
X75081541Y-104590351D01*
X75081541Y-104590351D02*
X75129160Y-104780827D01*
X75129160Y-104780827D02*
X75129160Y-105018922D01*
X75129160Y-105018922D02*
X75081541Y-105209398D01*
X75081541Y-105209398D02*
X75033922Y-105304636D01*
X75033922Y-105304636D02*
X74986303Y-105352256D01*
X74986303Y-105352256D02*
X74891065Y-105399875D01*
X74891065Y-105399875D02*
X74795827Y-105399875D01*
X74795827Y-105399875D02*
X74700589Y-105352256D01*
X74700589Y-105352256D02*
X74652970Y-105304636D01*
X74652970Y-105304636D02*
X74605351Y-105209398D01*
X74605351Y-105209398D02*
X74557732Y-105018922D01*
X74557732Y-105018922D02*
X74557732Y-104780827D01*
X74557732Y-104780827D02*
X74605351Y-104590351D01*
X74605351Y-104590351D02*
X74652970Y-104495113D01*
X74652970Y-104495113D02*
X74700589Y-104447494D01*
X74700589Y-104447494D02*
X74795827Y-104399875D01*
X64176779Y-107009819D02*
X64176779Y-106009819D01*
X64176779Y-106009819D02*
X64557731Y-106009819D01*
X64557731Y-106009819D02*
X64652969Y-106057438D01*
X64652969Y-106057438D02*
X64700588Y-106105057D01*
X64700588Y-106105057D02*
X64748207Y-106200295D01*
X64748207Y-106200295D02*
X64748207Y-106343152D01*
X64748207Y-106343152D02*
X64700588Y-106438390D01*
X64700588Y-106438390D02*
X64652969Y-106486009D01*
X64652969Y-106486009D02*
X64557731Y-106533628D01*
X64557731Y-106533628D02*
X64176779Y-106533628D01*
X65748207Y-106914580D02*
X65700588Y-106962200D01*
X65700588Y-106962200D02*
X65557731Y-107009819D01*
X65557731Y-107009819D02*
X65462493Y-107009819D01*
X65462493Y-107009819D02*
X65319636Y-106962200D01*
X65319636Y-106962200D02*
X65224398Y-106866961D01*
X65224398Y-106866961D02*
X65176779Y-106771723D01*
X65176779Y-106771723D02*
X65129160Y-106581247D01*
X65129160Y-106581247D02*
X65129160Y-106438390D01*
X65129160Y-106438390D02*
X65176779Y-106247914D01*
X65176779Y-106247914D02*
X65224398Y-106152676D01*
X65224398Y-106152676D02*
X65319636Y-106057438D01*
X65319636Y-106057438D02*
X65462493Y-106009819D01*
X65462493Y-106009819D02*
X65557731Y-106009819D01*
X65557731Y-106009819D02*
X65700588Y-106057438D01*
X65700588Y-106057438D02*
X65748207Y-106105057D01*
X66510112Y-106486009D02*
X66652969Y-106533628D01*
X66652969Y-106533628D02*
X66700588Y-106581247D01*
X66700588Y-106581247D02*
X66748207Y-106676485D01*
X66748207Y-106676485D02*
X66748207Y-106819342D01*
X66748207Y-106819342D02*
X66700588Y-106914580D01*
X66700588Y-106914580D02*
X66652969Y-106962200D01*
X66652969Y-106962200D02*
X66557731Y-107009819D01*
X66557731Y-107009819D02*
X66176779Y-107009819D01*
X66176779Y-107009819D02*
X66176779Y-106009819D01*
X66176779Y-106009819D02*
X66510112Y-106009819D01*
X66510112Y-106009819D02*
X66605350Y-106057438D01*
X66605350Y-106057438D02*
X66652969Y-106105057D01*
X66652969Y-106105057D02*
X66700588Y-106200295D01*
X66700588Y-106200295D02*
X66700588Y-106295533D01*
X66700588Y-106295533D02*
X66652969Y-106390771D01*
X66652969Y-106390771D02*
X66605350Y-106438390D01*
X66605350Y-106438390D02*
X66510112Y-106486009D01*
X66510112Y-106486009D02*
X66176779Y-106486009D01*
X67938684Y-107009819D02*
X67938684Y-106009819D01*
X67938684Y-106009819D02*
X68176779Y-106009819D01*
X68176779Y-106009819D02*
X68319636Y-106057438D01*
X68319636Y-106057438D02*
X68414874Y-106152676D01*
X68414874Y-106152676D02*
X68462493Y-106247914D01*
X68462493Y-106247914D02*
X68510112Y-106438390D01*
X68510112Y-106438390D02*
X68510112Y-106581247D01*
X68510112Y-106581247D02*
X68462493Y-106771723D01*
X68462493Y-106771723D02*
X68414874Y-106866961D01*
X68414874Y-106866961D02*
X68319636Y-106962200D01*
X68319636Y-106962200D02*
X68176779Y-107009819D01*
X68176779Y-107009819D02*
X67938684Y-107009819D01*
X69319636Y-106962200D02*
X69224398Y-107009819D01*
X69224398Y-107009819D02*
X69033922Y-107009819D01*
X69033922Y-107009819D02*
X68938684Y-106962200D01*
X68938684Y-106962200D02*
X68891065Y-106866961D01*
X68891065Y-106866961D02*
X68891065Y-106486009D01*
X68891065Y-106486009D02*
X68938684Y-106390771D01*
X68938684Y-106390771D02*
X69033922Y-106343152D01*
X69033922Y-106343152D02*
X69224398Y-106343152D01*
X69224398Y-106343152D02*
X69319636Y-106390771D01*
X69319636Y-106390771D02*
X69367255Y-106486009D01*
X69367255Y-106486009D02*
X69367255Y-106581247D01*
X69367255Y-106581247D02*
X68891065Y-106676485D01*
X69748208Y-106962200D02*
X69843446Y-107009819D01*
X69843446Y-107009819D02*
X70033922Y-107009819D01*
X70033922Y-107009819D02*
X70129160Y-106962200D01*
X70129160Y-106962200D02*
X70176779Y-106866961D01*
X70176779Y-106866961D02*
X70176779Y-106819342D01*
X70176779Y-106819342D02*
X70129160Y-106724104D01*
X70129160Y-106724104D02*
X70033922Y-106676485D01*
X70033922Y-106676485D02*
X69891065Y-106676485D01*
X69891065Y-106676485D02*
X69795827Y-106628866D01*
X69795827Y-106628866D02*
X69748208Y-106533628D01*
X69748208Y-106533628D02*
X69748208Y-106486009D01*
X69748208Y-106486009D02*
X69795827Y-106390771D01*
X69795827Y-106390771D02*
X69891065Y-106343152D01*
X69891065Y-106343152D02*
X70033922Y-106343152D01*
X70033922Y-106343152D02*
X70129160Y-106390771D01*
X70605351Y-107009819D02*
X70605351Y-106343152D01*
X70605351Y-106009819D02*
X70557732Y-106057438D01*
X70557732Y-106057438D02*
X70605351Y-106105057D01*
X70605351Y-106105057D02*
X70652970Y-106057438D01*
X70652970Y-106057438D02*
X70605351Y-106009819D01*
X70605351Y-106009819D02*
X70605351Y-106105057D01*
X71510112Y-106343152D02*
X71510112Y-107152676D01*
X71510112Y-107152676D02*
X71462493Y-107247914D01*
X71462493Y-107247914D02*
X71414874Y-107295533D01*
X71414874Y-107295533D02*
X71319636Y-107343152D01*
X71319636Y-107343152D02*
X71176779Y-107343152D01*
X71176779Y-107343152D02*
X71081541Y-107295533D01*
X71510112Y-106962200D02*
X71414874Y-107009819D01*
X71414874Y-107009819D02*
X71224398Y-107009819D01*
X71224398Y-107009819D02*
X71129160Y-106962200D01*
X71129160Y-106962200D02*
X71081541Y-106914580D01*
X71081541Y-106914580D02*
X71033922Y-106819342D01*
X71033922Y-106819342D02*
X71033922Y-106533628D01*
X71033922Y-106533628D02*
X71081541Y-106438390D01*
X71081541Y-106438390D02*
X71129160Y-106390771D01*
X71129160Y-106390771D02*
X71224398Y-106343152D01*
X71224398Y-106343152D02*
X71414874Y-106343152D01*
X71414874Y-106343152D02*
X71510112Y-106390771D01*
X71986303Y-106343152D02*
X71986303Y-107009819D01*
X71986303Y-106438390D02*
X72033922Y-106390771D01*
X72033922Y-106390771D02*
X72129160Y-106343152D01*
X72129160Y-106343152D02*
X72272017Y-106343152D01*
X72272017Y-106343152D02*
X72367255Y-106390771D01*
X72367255Y-106390771D02*
X72414874Y-106486009D01*
X72414874Y-106486009D02*
X72414874Y-107009819D01*
X73272017Y-106962200D02*
X73176779Y-107009819D01*
X73176779Y-107009819D02*
X72986303Y-107009819D01*
X72986303Y-107009819D02*
X72891065Y-106962200D01*
X72891065Y-106962200D02*
X72843446Y-106866961D01*
X72843446Y-106866961D02*
X72843446Y-106486009D01*
X72843446Y-106486009D02*
X72891065Y-106390771D01*
X72891065Y-106390771D02*
X72986303Y-106343152D01*
X72986303Y-106343152D02*
X73176779Y-106343152D01*
X73176779Y-106343152D02*
X73272017Y-106390771D01*
X73272017Y-106390771D02*
X73319636Y-106486009D01*
X73319636Y-106486009D02*
X73319636Y-106581247D01*
X73319636Y-106581247D02*
X72843446Y-106676485D01*
X74176779Y-107009819D02*
X74176779Y-106009819D01*
X74176779Y-106962200D02*
X74081541Y-107009819D01*
X74081541Y-107009819D02*
X73891065Y-107009819D01*
X73891065Y-107009819D02*
X73795827Y-106962200D01*
X73795827Y-106962200D02*
X73748208Y-106914580D01*
X73748208Y-106914580D02*
X73700589Y-106819342D01*
X73700589Y-106819342D02*
X73700589Y-106533628D01*
X73700589Y-106533628D02*
X73748208Y-106438390D01*
X73748208Y-106438390D02*
X73795827Y-106390771D01*
X73795827Y-106390771D02*
X73891065Y-106343152D01*
X73891065Y-106343152D02*
X74081541Y-106343152D01*
X74081541Y-106343152D02*
X74176779Y-106390771D01*
X75414875Y-107009819D02*
X75414875Y-106009819D01*
X75414875Y-106390771D02*
X75510113Y-106343152D01*
X75510113Y-106343152D02*
X75700589Y-106343152D01*
X75700589Y-106343152D02*
X75795827Y-106390771D01*
X75795827Y-106390771D02*
X75843446Y-106438390D01*
X75843446Y-106438390D02*
X75891065Y-106533628D01*
X75891065Y-106533628D02*
X75891065Y-106819342D01*
X75891065Y-106819342D02*
X75843446Y-106914580D01*
X75843446Y-106914580D02*
X75795827Y-106962200D01*
X75795827Y-106962200D02*
X75700589Y-107009819D01*
X75700589Y-107009819D02*
X75510113Y-107009819D01*
X75510113Y-107009819D02*
X75414875Y-106962200D01*
X76224399Y-106343152D02*
X76462494Y-107009819D01*
X76700589Y-106343152D02*
X76462494Y-107009819D01*
X76462494Y-107009819D02*
X76367256Y-107247914D01*
X76367256Y-107247914D02*
X76319637Y-107295533D01*
X76319637Y-107295533D02*
X76224399Y-107343152D01*
X77843447Y-107009819D02*
X77843447Y-106009819D01*
X77843447Y-106009819D02*
X78176780Y-106724104D01*
X78176780Y-106724104D02*
X78510113Y-106009819D01*
X78510113Y-106009819D02*
X78510113Y-107009819D01*
X78986304Y-107009819D02*
X78986304Y-106343152D01*
X78986304Y-106009819D02*
X78938685Y-106057438D01*
X78938685Y-106057438D02*
X78986304Y-106105057D01*
X78986304Y-106105057D02*
X79033923Y-106057438D01*
X79033923Y-106057438D02*
X78986304Y-106009819D01*
X78986304Y-106009819D02*
X78986304Y-106105057D01*
X79462494Y-107009819D02*
X79462494Y-106343152D01*
X79462494Y-106438390D02*
X79510113Y-106390771D01*
X79510113Y-106390771D02*
X79605351Y-106343152D01*
X79605351Y-106343152D02*
X79748208Y-106343152D01*
X79748208Y-106343152D02*
X79843446Y-106390771D01*
X79843446Y-106390771D02*
X79891065Y-106486009D01*
X79891065Y-106486009D02*
X79891065Y-107009819D01*
X79891065Y-106486009D02*
X79938684Y-106390771D01*
X79938684Y-106390771D02*
X80033922Y-106343152D01*
X80033922Y-106343152D02*
X80176779Y-106343152D01*
X80176779Y-106343152D02*
X80272018Y-106390771D01*
X80272018Y-106390771D02*
X80319637Y-106486009D01*
X80319637Y-106486009D02*
X80319637Y-107009819D01*
X80938684Y-107009819D02*
X80843446Y-106962200D01*
X80843446Y-106962200D02*
X80795827Y-106914580D01*
X80795827Y-106914580D02*
X80748208Y-106819342D01*
X80748208Y-106819342D02*
X80748208Y-106533628D01*
X80748208Y-106533628D02*
X80795827Y-106438390D01*
X80795827Y-106438390D02*
X80843446Y-106390771D01*
X80843446Y-106390771D02*
X80938684Y-106343152D01*
X80938684Y-106343152D02*
X81081541Y-106343152D01*
X81081541Y-106343152D02*
X81176779Y-106390771D01*
X81176779Y-106390771D02*
X81224398Y-106438390D01*
X81224398Y-106438390D02*
X81272017Y-106533628D01*
X81272017Y-106533628D02*
X81272017Y-106819342D01*
X81272017Y-106819342D02*
X81224398Y-106914580D01*
X81224398Y-106914580D02*
X81176779Y-106962200D01*
X81176779Y-106962200D02*
X81081541Y-107009819D01*
X81081541Y-107009819D02*
X80938684Y-107009819D01*
X81557732Y-106343152D02*
X81938684Y-106343152D01*
X81700589Y-106009819D02*
X81700589Y-106866961D01*
X81700589Y-106866961D02*
X81748208Y-106962200D01*
X81748208Y-106962200D02*
X81843446Y-107009819D01*
X81843446Y-107009819D02*
X81938684Y-107009819D01*
X82414875Y-107009819D02*
X82319637Y-106962200D01*
X82319637Y-106962200D02*
X82272018Y-106914580D01*
X82272018Y-106914580D02*
X82224399Y-106819342D01*
X82224399Y-106819342D02*
X82224399Y-106533628D01*
X82224399Y-106533628D02*
X82272018Y-106438390D01*
X82272018Y-106438390D02*
X82319637Y-106390771D01*
X82319637Y-106390771D02*
X82414875Y-106343152D01*
X82414875Y-106343152D02*
X82557732Y-106343152D01*
X82557732Y-106343152D02*
X82652970Y-106390771D01*
X82652970Y-106390771D02*
X82700589Y-106438390D01*
X82700589Y-106438390D02*
X82748208Y-106533628D01*
X82748208Y-106533628D02*
X82748208Y-106819342D01*
X82748208Y-106819342D02*
X82700589Y-106914580D01*
X82700589Y-106914580D02*
X82652970Y-106962200D01*
X82652970Y-106962200D02*
X82557732Y-107009819D01*
X82557732Y-107009819D02*
X82414875Y-107009819D01*
X84748209Y-107009819D02*
X84700590Y-107009819D01*
X84700590Y-107009819D02*
X84605351Y-106962200D01*
X84605351Y-106962200D02*
X84462494Y-106819342D01*
X84462494Y-106819342D02*
X84224399Y-106533628D01*
X84224399Y-106533628D02*
X84129161Y-106390771D01*
X84129161Y-106390771D02*
X84081542Y-106247914D01*
X84081542Y-106247914D02*
X84081542Y-106152676D01*
X84081542Y-106152676D02*
X84129161Y-106057438D01*
X84129161Y-106057438D02*
X84224399Y-106009819D01*
X84224399Y-106009819D02*
X84272018Y-106009819D01*
X84272018Y-106009819D02*
X84367256Y-106057438D01*
X84367256Y-106057438D02*
X84414875Y-106152676D01*
X84414875Y-106152676D02*
X84414875Y-106200295D01*
X84414875Y-106200295D02*
X84367256Y-106295533D01*
X84367256Y-106295533D02*
X84319637Y-106343152D01*
X84319637Y-106343152D02*
X84033923Y-106533628D01*
X84033923Y-106533628D02*
X83986304Y-106581247D01*
X83986304Y-106581247D02*
X83938685Y-106676485D01*
X83938685Y-106676485D02*
X83938685Y-106819342D01*
X83938685Y-106819342D02*
X83986304Y-106914580D01*
X83986304Y-106914580D02*
X84033923Y-106962200D01*
X84033923Y-106962200D02*
X84129161Y-107009819D01*
X84129161Y-107009819D02*
X84272018Y-107009819D01*
X84272018Y-107009819D02*
X84367256Y-106962200D01*
X84367256Y-106962200D02*
X84414875Y-106914580D01*
X84414875Y-106914580D02*
X84557732Y-106724104D01*
X84557732Y-106724104D02*
X84605351Y-106581247D01*
X84605351Y-106581247D02*
X84605351Y-106486009D01*
X86367256Y-107009819D02*
X86367256Y-106009819D01*
X86367256Y-106962200D02*
X86272018Y-107009819D01*
X86272018Y-107009819D02*
X86081542Y-107009819D01*
X86081542Y-107009819D02*
X85986304Y-106962200D01*
X85986304Y-106962200D02*
X85938685Y-106914580D01*
X85938685Y-106914580D02*
X85891066Y-106819342D01*
X85891066Y-106819342D02*
X85891066Y-106533628D01*
X85891066Y-106533628D02*
X85938685Y-106438390D01*
X85938685Y-106438390D02*
X85986304Y-106390771D01*
X85986304Y-106390771D02*
X86081542Y-106343152D01*
X86081542Y-106343152D02*
X86272018Y-106343152D01*
X86272018Y-106343152D02*
X86367256Y-106390771D01*
X87272018Y-107009819D02*
X87272018Y-106486009D01*
X87272018Y-106486009D02*
X87224399Y-106390771D01*
X87224399Y-106390771D02*
X87129161Y-106343152D01*
X87129161Y-106343152D02*
X86938685Y-106343152D01*
X86938685Y-106343152D02*
X86843447Y-106390771D01*
X87272018Y-106962200D02*
X87176780Y-107009819D01*
X87176780Y-107009819D02*
X86938685Y-107009819D01*
X86938685Y-107009819D02*
X86843447Y-106962200D01*
X86843447Y-106962200D02*
X86795828Y-106866961D01*
X86795828Y-106866961D02*
X86795828Y-106771723D01*
X86795828Y-106771723D02*
X86843447Y-106676485D01*
X86843447Y-106676485D02*
X86938685Y-106628866D01*
X86938685Y-106628866D02*
X87176780Y-106628866D01*
X87176780Y-106628866D02*
X87272018Y-106581247D01*
X87748209Y-107009819D02*
X87748209Y-106343152D01*
X87748209Y-106009819D02*
X87700590Y-106057438D01*
X87700590Y-106057438D02*
X87748209Y-106105057D01*
X87748209Y-106105057D02*
X87795828Y-106057438D01*
X87795828Y-106057438D02*
X87748209Y-106009819D01*
X87748209Y-106009819D02*
X87748209Y-106105057D01*
X88224399Y-107009819D02*
X88224399Y-106009819D01*
X88319637Y-106628866D02*
X88605351Y-107009819D01*
X88605351Y-106343152D02*
X88224399Y-106724104D01*
X89033923Y-107009819D02*
X89033923Y-106343152D01*
X89033923Y-106009819D02*
X88986304Y-106057438D01*
X88986304Y-106057438D02*
X89033923Y-106105057D01*
X89033923Y-106105057D02*
X89081542Y-106057438D01*
X89081542Y-106057438D02*
X89033923Y-106009819D01*
X89033923Y-106009819D02*
X89033923Y-106105057D01*
X89272018Y-107105057D02*
X90033922Y-107105057D01*
X90700589Y-107009819D02*
X90700589Y-106009819D01*
X90700589Y-106962200D02*
X90605351Y-107009819D01*
X90605351Y-107009819D02*
X90414875Y-107009819D01*
X90414875Y-107009819D02*
X90319637Y-106962200D01*
X90319637Y-106962200D02*
X90272018Y-106914580D01*
X90272018Y-106914580D02*
X90224399Y-106819342D01*
X90224399Y-106819342D02*
X90224399Y-106533628D01*
X90224399Y-106533628D02*
X90272018Y-106438390D01*
X90272018Y-106438390D02*
X90319637Y-106390771D01*
X90319637Y-106390771D02*
X90414875Y-106343152D01*
X90414875Y-106343152D02*
X90605351Y-106343152D01*
X90605351Y-106343152D02*
X90700589Y-106390771D01*
X91605351Y-107009819D02*
X91605351Y-106486009D01*
X91605351Y-106486009D02*
X91557732Y-106390771D01*
X91557732Y-106390771D02*
X91462494Y-106343152D01*
X91462494Y-106343152D02*
X91272018Y-106343152D01*
X91272018Y-106343152D02*
X91176780Y-106390771D01*
X91605351Y-106962200D02*
X91510113Y-107009819D01*
X91510113Y-107009819D02*
X91272018Y-107009819D01*
X91272018Y-107009819D02*
X91176780Y-106962200D01*
X91176780Y-106962200D02*
X91129161Y-106866961D01*
X91129161Y-106866961D02*
X91129161Y-106771723D01*
X91129161Y-106771723D02*
X91176780Y-106676485D01*
X91176780Y-106676485D02*
X91272018Y-106628866D01*
X91272018Y-106628866D02*
X91510113Y-106628866D01*
X91510113Y-106628866D02*
X91605351Y-106581247D01*
X92081542Y-107009819D02*
X92081542Y-106343152D01*
X92081542Y-106009819D02*
X92033923Y-106057438D01*
X92033923Y-106057438D02*
X92081542Y-106105057D01*
X92081542Y-106105057D02*
X92129161Y-106057438D01*
X92129161Y-106057438D02*
X92081542Y-106009819D01*
X92081542Y-106009819D02*
X92081542Y-106105057D01*
X92557732Y-107009819D02*
X92557732Y-106009819D01*
X92652970Y-106628866D02*
X92938684Y-107009819D01*
X92938684Y-106343152D02*
X92557732Y-106724104D01*
X93795827Y-106343152D02*
X93795827Y-107009819D01*
X93367256Y-106343152D02*
X93367256Y-106866961D01*
X93367256Y-106866961D02*
X93414875Y-106962200D01*
X93414875Y-106962200D02*
X93510113Y-107009819D01*
X93510113Y-107009819D02*
X93652970Y-107009819D01*
X93652970Y-107009819D02*
X93748208Y-106962200D01*
X93748208Y-106962200D02*
X93795827Y-106914580D01*
D11*
%TO.C,D11*%
X65493250Y-88821300D03*
X62093250Y-88821300D03*
%TD*%
D12*
%TO.C,TH3*%
X69746500Y-60921300D03*
%TD*%
D11*
%TO.C,D8*%
X103594050Y-60245700D03*
X100194050Y-60245700D03*
%TD*%
D13*
%TO.C,SW1*%
X52340000Y-58540000D03*
D14*
X52760000Y-58540000D03*
D15*
X52840000Y-62240000D03*
X54030000Y-55999999D03*
X55300000Y-53460000D03*
D16*
X57840000Y-58540000D03*
D15*
X57840000Y-64440000D03*
X60380000Y-53460000D03*
X61650000Y-56000000D03*
X62840000Y-62240000D03*
D14*
X62920000Y-58540000D03*
D13*
X63340000Y-58540000D03*
D17*
X50640000Y-53440000D03*
D18*
X52140000Y-53460000D03*
D19*
X65940000Y-62240000D03*
D20*
X55040000Y-64440000D03*
D21*
X64740000Y-55999999D03*
D17*
X66340000Y-56040000D03*
%TD*%
D13*
%TO.C,SW4*%
X109491200Y-53777400D03*
D14*
X109911200Y-53777400D03*
D15*
X109991200Y-57477400D03*
X111181200Y-51237399D03*
X112451200Y-48697400D03*
D16*
X114991200Y-53777400D03*
D15*
X114991200Y-59677400D03*
X117531200Y-48697400D03*
X118801200Y-51237400D03*
X119991200Y-57477400D03*
D14*
X120071200Y-53777400D03*
D13*
X120491200Y-53777400D03*
D17*
X107791200Y-48677400D03*
D18*
X109291200Y-48697400D03*
D19*
X123091200Y-57477400D03*
D20*
X112191200Y-59677400D03*
D21*
X121891200Y-51237399D03*
D17*
X123491200Y-51277400D03*
%TD*%
D13*
%TO.C,SW7*%
X71390400Y-70446500D03*
D14*
X71810400Y-70446500D03*
D15*
X71890400Y-74146500D03*
X73080400Y-67906499D03*
X74350400Y-65366500D03*
D16*
X76890400Y-70446500D03*
D15*
X76890400Y-76346500D03*
X79430400Y-65366500D03*
X80700400Y-67906500D03*
X81890400Y-74146500D03*
D14*
X81970400Y-70446500D03*
D13*
X82390400Y-70446500D03*
D17*
X69690400Y-65346500D03*
D18*
X71190400Y-65366500D03*
D19*
X84990400Y-74146500D03*
D20*
X74090400Y-76346500D03*
D21*
X83790400Y-67906499D03*
D17*
X85390400Y-67946500D03*
%TD*%
D22*
%TO.C,SW18*%
X137541960Y-123841111D03*
D23*
X150740187Y-131461111D03*
D13*
X147910000Y-122393140D03*
D14*
X148120000Y-122029409D03*
D15*
X151364294Y-123810127D03*
X146555295Y-119659556D03*
X144990591Y-117289705D03*
D22*
X150660000Y-117630000D03*
D15*
X155769550Y-120580000D03*
X147530591Y-112890295D03*
X150365295Y-113060443D03*
X156364294Y-115149873D03*
D14*
X153200000Y-113230591D03*
D13*
X153410000Y-112866860D03*
D22*
X149479960Y-103163889D03*
D23*
X162678187Y-110783889D03*
D24*
X142643270Y-121315383D03*
D25*
X143410591Y-120026345D03*
D26*
X157914294Y-112465194D03*
D27*
X154369550Y-123004871D03*
D28*
X151910295Y-110384424D03*
D24*
X152744936Y-109018784D03*
%TD*%
D29*
%TO.C,OL1*%
X139770000Y-115899410D03*
X141040000Y-113699705D03*
X142310000Y-111500000D03*
X143580000Y-109300296D03*
%TD*%
D13*
%TO.C,SW16*%
X99966000Y-110928600D03*
D14*
X100386000Y-110928600D03*
D15*
X100466000Y-114628600D03*
X101656000Y-108388599D03*
X102926000Y-105848600D03*
D16*
X105466000Y-110928600D03*
D15*
X105466000Y-116828600D03*
X108006000Y-105848600D03*
X109276000Y-108388600D03*
X110466000Y-114628600D03*
D14*
X110546000Y-110928600D03*
D13*
X110966000Y-110928600D03*
D17*
X98266000Y-105828600D03*
D18*
X99766000Y-105848600D03*
D19*
X113566000Y-114628600D03*
D20*
X102666000Y-116828600D03*
D21*
X112366000Y-108388599D03*
D17*
X113966000Y-108428600D03*
%TD*%
D30*
%TO.C,J2*%
X163110000Y-85300000D03*
X156110000Y-85300000D03*
X163110000Y-87050000D03*
X156110000Y-87050000D03*
D31*
X152810000Y-84950000D03*
X152810000Y-87400000D03*
X161310000Y-83200000D03*
X161310000Y-89150000D03*
X158310000Y-83200000D03*
X158310000Y-89150000D03*
X154310000Y-83200000D03*
X154310000Y-89150000D03*
%TD*%
D13*
%TO.C,SW2*%
X71390400Y-51396100D03*
D14*
X71810400Y-51396100D03*
D15*
X71890400Y-55096100D03*
X73080400Y-48856099D03*
X74350400Y-46316100D03*
D16*
X76890400Y-51396100D03*
D15*
X76890400Y-57296100D03*
X79430400Y-46316100D03*
X80700400Y-48856100D03*
X81890400Y-55096100D03*
D14*
X81970400Y-51396100D03*
D13*
X82390400Y-51396100D03*
D17*
X69690400Y-46296100D03*
D18*
X71190400Y-46316100D03*
D19*
X84990400Y-55096100D03*
D20*
X74090400Y-57296100D03*
D21*
X83790400Y-48856099D03*
D17*
X85390400Y-48896100D03*
%TD*%
D13*
%TO.C,SW6*%
X52340000Y-77590400D03*
D14*
X52760000Y-77590400D03*
D15*
X52840000Y-81290400D03*
X54030000Y-75050399D03*
X55300000Y-72510400D03*
D16*
X57840000Y-77590400D03*
D15*
X57840000Y-83490400D03*
X60380000Y-72510400D03*
X61650000Y-75050400D03*
X62840000Y-81290400D03*
D14*
X62920000Y-77590400D03*
D13*
X63340000Y-77590400D03*
D17*
X50640000Y-72490400D03*
D18*
X52140000Y-72510400D03*
D19*
X65940000Y-81290400D03*
D20*
X55040000Y-83490400D03*
D21*
X64740000Y-75050399D03*
D17*
X66340000Y-75090400D03*
%TD*%
D13*
%TO.C,SW3*%
X90440800Y-49014800D03*
D14*
X90860800Y-49014800D03*
D15*
X90940800Y-52714800D03*
X92130800Y-46474799D03*
X93400800Y-43934800D03*
D16*
X95940800Y-49014800D03*
D15*
X95940800Y-54914800D03*
X98480800Y-43934800D03*
X99750800Y-46474800D03*
X100940800Y-52714800D03*
D14*
X101020800Y-49014800D03*
D13*
X101440800Y-49014800D03*
D17*
X88740800Y-43914800D03*
D18*
X90240800Y-43934800D03*
D19*
X104040800Y-52714800D03*
D20*
X93140800Y-54914800D03*
D21*
X102840800Y-46474799D03*
D17*
X104440800Y-46514800D03*
%TD*%
D11*
%TO.C,D9*%
X122644450Y-65008300D03*
X119244450Y-65008300D03*
%TD*%
%TO.C,D10*%
X141694850Y-67389600D03*
X138294850Y-67389600D03*
%TD*%
%TO.C,D14*%
X122644450Y-84058700D03*
X119244450Y-84058700D03*
%TD*%
D12*
%TO.C,*%
X69746500Y-79971700D03*
%TD*%
D32*
%TO.C,D18*%
X146240000Y-101625514D03*
X144540000Y-104570000D03*
%TD*%
D33*
%TO.C,D17*%
X137019426Y-107337571D03*
X133720420Y-106515037D03*
%TD*%
D11*
%TO.C,D5*%
X141694850Y-64493250D03*
X138294850Y-64493250D03*
%TD*%
%TO.C,D7*%
X84543650Y-62627000D03*
X81143650Y-62627000D03*
%TD*%
%TO.C,D6*%
X65493250Y-69770900D03*
X62093250Y-69770900D03*
%TD*%
%TO.C,D13*%
X103594050Y-79296100D03*
X100194050Y-79296100D03*
%TD*%
D13*
%TO.C,SW8*%
X90440800Y-68065200D03*
D14*
X90860800Y-68065200D03*
D15*
X90940800Y-71765200D03*
X92130800Y-65525199D03*
X93400800Y-62985200D03*
D16*
X95940800Y-68065200D03*
D15*
X95940800Y-73965200D03*
X98480800Y-62985200D03*
X99750800Y-65525200D03*
X100940800Y-71765200D03*
D14*
X101020800Y-68065200D03*
D13*
X101440800Y-68065200D03*
D17*
X88740800Y-62965200D03*
D18*
X90240800Y-62985200D03*
D19*
X104040800Y-71765200D03*
D20*
X93140800Y-73965200D03*
D21*
X102840800Y-65525199D03*
D17*
X104440800Y-65565200D03*
%TD*%
D13*
%TO.C,SW15*%
X128541600Y-94259500D03*
D14*
X128961600Y-94259500D03*
D15*
X129041600Y-97959500D03*
X130231600Y-91719499D03*
X131501600Y-89179500D03*
D16*
X134041600Y-94259500D03*
D15*
X134041600Y-100159500D03*
X136581600Y-89179500D03*
X137851600Y-91719500D03*
X139041600Y-97959500D03*
D14*
X139121600Y-94259500D03*
D13*
X139541600Y-94259500D03*
D17*
X126841600Y-89159500D03*
D18*
X128341600Y-89179500D03*
D19*
X142141600Y-97959500D03*
D20*
X131241600Y-100159500D03*
D21*
X140941600Y-91719499D03*
D17*
X142541600Y-91759500D03*
%TD*%
D13*
%TO.C,SW5*%
X128541600Y-56158700D03*
D14*
X128961600Y-56158700D03*
D15*
X129041600Y-59858700D03*
X130231600Y-53618699D03*
X131501600Y-51078700D03*
D16*
X134041600Y-56158700D03*
D15*
X134041600Y-62058700D03*
X136581600Y-51078700D03*
X137851600Y-53618700D03*
X139041600Y-59858700D03*
D14*
X139121600Y-56158700D03*
D13*
X139541600Y-56158700D03*
D17*
X126841600Y-51058700D03*
D18*
X128341600Y-51078700D03*
D19*
X142141600Y-59858700D03*
D20*
X131241600Y-62058700D03*
D21*
X140941600Y-53618699D03*
D17*
X142541600Y-53658700D03*
%TD*%
D34*
%TO.C,SW19*%
X164830000Y-98260000D03*
X164830000Y-91760000D03*
%TD*%
D13*
%TO.C,SW13*%
X90440800Y-87115600D03*
D14*
X90860800Y-87115600D03*
D15*
X90940800Y-90815600D03*
X92130800Y-84575599D03*
X93400800Y-82035600D03*
D16*
X95940800Y-87115600D03*
D15*
X95940800Y-93015600D03*
X98480800Y-82035600D03*
X99750800Y-84575600D03*
X100940800Y-90815600D03*
D14*
X101020800Y-87115600D03*
D13*
X101440800Y-87115600D03*
D17*
X88740800Y-82015600D03*
D18*
X90240800Y-82035600D03*
D19*
X104040800Y-90815600D03*
D20*
X93140800Y-93015600D03*
D21*
X102840800Y-84575599D03*
D17*
X104440800Y-84615600D03*
%TD*%
D11*
%TO.C,D2*%
X84543650Y-59730650D03*
X81143650Y-59730650D03*
%TD*%
D12*
%TO.C,TH3*%
X131940000Y-128790000D03*
%TD*%
D11*
%TO.C,D4*%
X122644450Y-62111950D03*
X119244450Y-62111950D03*
%TD*%
D13*
%TO.C,SW17*%
X122343374Y-112309430D03*
D14*
X122750898Y-112411037D03*
D15*
X121933410Y-116020485D03*
X124597655Y-110253725D03*
X126444412Y-108096416D03*
D16*
X127680000Y-113640000D03*
D15*
X126252661Y-119364745D03*
X131373514Y-109325379D03*
X131991308Y-112097171D03*
X131636368Y-118439704D03*
D14*
X132609102Y-114868963D03*
D13*
X133016626Y-114970570D03*
D35*
X121927672Y-106949654D03*
D36*
X123378278Y-107331943D03*
D37*
X134644284Y-119189663D03*
D38*
X123535833Y-118687363D03*
D39*
X134989522Y-112844709D03*
D35*
X136532318Y-113270597D03*
%TD*%
D12*
%TO.C,*%
X127090000Y-65700000D03*
%TD*%
D11*
%TO.C,D1*%
X65493250Y-66874550D03*
X62093250Y-66874550D03*
%TD*%
%TO.C,D12*%
X84543650Y-81677400D03*
X81143650Y-81677400D03*
%TD*%
%TO.C,D16*%
X113119250Y-102594050D03*
X109719250Y-102594050D03*
%TD*%
D13*
%TO.C,SW10*%
X128541600Y-75209100D03*
D14*
X128961600Y-75209100D03*
D15*
X129041600Y-78909100D03*
X130231600Y-72669099D03*
X131501600Y-70129100D03*
D16*
X134041600Y-75209100D03*
D15*
X134041600Y-81109100D03*
X136581600Y-70129100D03*
X137851600Y-72669100D03*
X139041600Y-78909100D03*
D14*
X139121600Y-75209100D03*
D13*
X139541600Y-75209100D03*
D17*
X126841600Y-70109100D03*
D18*
X128341600Y-70129100D03*
D19*
X142141600Y-78909100D03*
D20*
X131241600Y-81109100D03*
D21*
X140941600Y-72669099D03*
D17*
X142541600Y-72709100D03*
%TD*%
D11*
%TO.C,D3*%
X103594050Y-57349350D03*
X100194050Y-57349350D03*
%TD*%
D13*
%TO.C,SW14*%
X109491200Y-91878200D03*
D14*
X109911200Y-91878200D03*
D15*
X109991200Y-95578200D03*
X111181200Y-89338199D03*
X112451200Y-86798200D03*
D16*
X114991200Y-91878200D03*
D15*
X114991200Y-97778200D03*
X117531200Y-86798200D03*
X118801200Y-89338200D03*
X119991200Y-95578200D03*
D14*
X120071200Y-91878200D03*
D13*
X120491200Y-91878200D03*
D17*
X107791200Y-86778200D03*
D18*
X109291200Y-86798200D03*
D19*
X123091200Y-95578200D03*
D20*
X112191200Y-97778200D03*
D21*
X121891200Y-89338199D03*
D17*
X123491200Y-89378200D03*
%TD*%
D40*
%TO.C,U1*%
X148708465Y-51204255D03*
X165247280Y-52400000D03*
X148708465Y-53744255D03*
X165247280Y-54940000D03*
X148708465Y-56284255D03*
X165247280Y-57480000D03*
X148708465Y-58824255D03*
X165247280Y-60020000D03*
X148708465Y-61364255D03*
X165247280Y-62560000D03*
X148708465Y-63904255D03*
X165247280Y-65100000D03*
X148708465Y-66444255D03*
X165247280Y-67640000D03*
X148708465Y-68984255D03*
X165247280Y-70180000D03*
X148708465Y-71524255D03*
X165247280Y-72720000D03*
X148708465Y-74064255D03*
X165247280Y-75260000D03*
X148708465Y-76604255D03*
X165247280Y-77800000D03*
X148708465Y-79144255D03*
X165247280Y-80340000D03*
X150007280Y-80340000D03*
X163948465Y-79144255D03*
X150007280Y-77800000D03*
X163948465Y-76604255D03*
X150007280Y-75260000D03*
X163948465Y-74064255D03*
X150007280Y-72720000D03*
X163948465Y-71524255D03*
X150007280Y-70180000D03*
X163948465Y-68984255D03*
X150007280Y-67640000D03*
X163948465Y-66444255D03*
X150007280Y-65100000D03*
X163948465Y-63904255D03*
X150007280Y-62560000D03*
X163948465Y-61364255D03*
X150007280Y-60020000D03*
X163948465Y-58824255D03*
X150007280Y-57480000D03*
X163948465Y-56284255D03*
X150007280Y-54940000D03*
X163948465Y-53744255D03*
X150007280Y-52400000D03*
X163948465Y-51204255D03*
%TD*%
D13*
%TO.C,SW11*%
X52340000Y-96640800D03*
D14*
X52760000Y-96640800D03*
D15*
X52840000Y-100340800D03*
X54030000Y-94100799D03*
X55300000Y-91560800D03*
D16*
X57840000Y-96640800D03*
D15*
X57840000Y-102540800D03*
X60380000Y-91560800D03*
X61650000Y-94100800D03*
X62840000Y-100340800D03*
D14*
X62920000Y-96640800D03*
D13*
X63340000Y-96640800D03*
D17*
X50640000Y-91540800D03*
D18*
X52140000Y-91560800D03*
D19*
X65940000Y-100340800D03*
D20*
X55040000Y-102540800D03*
D21*
X64740000Y-94100799D03*
D17*
X66340000Y-94140800D03*
%TD*%
D13*
%TO.C,SW12*%
X71390400Y-89496900D03*
D14*
X71810400Y-89496900D03*
D15*
X71890400Y-93196900D03*
X73080400Y-86956899D03*
X74350400Y-84416900D03*
D16*
X76890400Y-89496900D03*
D15*
X76890400Y-95396900D03*
X79430400Y-84416900D03*
X80700400Y-86956900D03*
X81890400Y-93196900D03*
D14*
X81970400Y-89496900D03*
D13*
X82390400Y-89496900D03*
D17*
X69690400Y-84396900D03*
D18*
X71190400Y-84416900D03*
D19*
X84990400Y-93196900D03*
D20*
X74090400Y-95396900D03*
D21*
X83790400Y-86956899D03*
D17*
X85390400Y-86996900D03*
%TD*%
D12*
%TO.C,TH3*%
X92130000Y-111890000D03*
%TD*%
%TO.C,*%
X127090000Y-84734300D03*
%TD*%
D11*
%TO.C,D15*%
X141694850Y-86440000D03*
X138294850Y-86440000D03*
%TD*%
D13*
%TO.C,SW9*%
X109491200Y-72827800D03*
D14*
X109911200Y-72827800D03*
D15*
X109991200Y-76527800D03*
X111181200Y-70287799D03*
X112451200Y-67747800D03*
D16*
X114991200Y-72827800D03*
D15*
X114991200Y-78727800D03*
X117531200Y-67747800D03*
X118801200Y-70287800D03*
X119991200Y-76527800D03*
D14*
X120071200Y-72827800D03*
D13*
X120491200Y-72827800D03*
D17*
X107791200Y-67727800D03*
D18*
X109291200Y-67747800D03*
D19*
X123091200Y-76527800D03*
D20*
X112191200Y-78727800D03*
D21*
X121891200Y-70287799D03*
D17*
X123491200Y-70327800D03*
%TD*%
M02*
