%TF.GenerationSoftware,KiCad,Pcbnew,8.0.2-1*%
%TF.CreationDate,2024-06-10T16:48:46+09:00*%
%TF.ProjectId,Miriball36,4d697269-6261-46c6-9c33-362e6b696361,rev?*%
%TF.SameCoordinates,Original*%
%TF.FileFunction,Legend,Bot*%
%TF.FilePolarity,Positive*%
%FSLAX46Y46*%
G04 Gerber Fmt 4.6, Leading zero omitted, Abs format (unit mm)*
G04 Created by KiCad (PCBNEW 8.0.2-1) date 2024-06-10 16:48:46*
%MOMM*%
%LPD*%
G01*
G04 APERTURE LIST*
G04 Aperture macros list*
%AMRotRect*
0 Rectangle, with rotation*
0 The origin of the aperture is its center*
0 $1 length*
0 $2 width*
0 $3 Rotation angle, in degrees counterclockwise*
0 Add horizontal line*
21,1,$1,$2,0,0,$3*%
G04 Aperture macros list end*
%ADD10C,0.150000*%
%ADD11C,0.250000*%
%ADD12C,0.000000*%
%ADD13R,1.800000X1.500000*%
%ADD14C,4.900000*%
%ADD15C,1.900000*%
%ADD16C,1.700000*%
%ADD17C,3.000000*%
%ADD18C,4.000000*%
%ADD19R,0.700000X1.500000*%
%ADD20R,2.000000X2.000000*%
%ADD21R,2.500000X2.500000*%
%ADD22R,1.900000X2.000000*%
%ADD23R,2.400000X2.400000*%
%ADD24C,3.987800*%
%ADD25C,3.048000*%
%ADD26RotRect,0.700000X1.500000X60.000000*%
%ADD27RotRect,2.000000X2.000000X240.000000*%
%ADD28RotRect,2.500000X2.500000X240.000000*%
%ADD29RotRect,1.900000X2.000000X240.000000*%
%ADD30RotRect,2.400000X2.400000X240.000000*%
%ADD31C,1.397000*%
%ADD32C,1.200000*%
%ADD33R,2.100000X1.200000*%
%ADD34RotRect,1.800000X1.500000X240.000000*%
%ADD35RotRect,1.800000X1.500000X166.000000*%
%ADD36C,2.500000*%
%ADD37RotRect,0.700000X1.500000X346.000000*%
%ADD38RotRect,2.000000X2.000000X166.000000*%
%ADD39RotRect,2.500000X2.500000X166.000000*%
%ADD40RotRect,1.900000X2.000000X166.000000*%
%ADD41RotRect,2.400000X2.400000X166.000000*%
%ADD42C,1.524000*%
G04 APERTURE END LIST*
D10*
X165192295Y-93848095D02*
X164811342Y-93581428D01*
X165192295Y-93390952D02*
X164392295Y-93390952D01*
X164392295Y-93390952D02*
X164392295Y-93695714D01*
X164392295Y-93695714D02*
X164430390Y-93771904D01*
X164430390Y-93771904D02*
X164468485Y-93809999D01*
X164468485Y-93809999D02*
X164544676Y-93848095D01*
X164544676Y-93848095D02*
X164658961Y-93848095D01*
X164658961Y-93848095D02*
X164735152Y-93809999D01*
X164735152Y-93809999D02*
X164773247Y-93771904D01*
X164773247Y-93771904D02*
X164811342Y-93695714D01*
X164811342Y-93695714D02*
X164811342Y-93390952D01*
X164773247Y-94190952D02*
X164773247Y-94457618D01*
X165192295Y-94571904D02*
X165192295Y-94190952D01*
X165192295Y-94190952D02*
X164392295Y-94190952D01*
X164392295Y-94190952D02*
X164392295Y-94571904D01*
X165154200Y-94876666D02*
X165192295Y-94990952D01*
X165192295Y-94990952D02*
X165192295Y-95181428D01*
X165192295Y-95181428D02*
X165154200Y-95257619D01*
X165154200Y-95257619D02*
X165116104Y-95295714D01*
X165116104Y-95295714D02*
X165039914Y-95333809D01*
X165039914Y-95333809D02*
X164963723Y-95333809D01*
X164963723Y-95333809D02*
X164887533Y-95295714D01*
X164887533Y-95295714D02*
X164849438Y-95257619D01*
X164849438Y-95257619D02*
X164811342Y-95181428D01*
X164811342Y-95181428D02*
X164773247Y-95029047D01*
X164773247Y-95029047D02*
X164735152Y-94952857D01*
X164735152Y-94952857D02*
X164697057Y-94914762D01*
X164697057Y-94914762D02*
X164620866Y-94876666D01*
X164620866Y-94876666D02*
X164544676Y-94876666D01*
X164544676Y-94876666D02*
X164468485Y-94914762D01*
X164468485Y-94914762D02*
X164430390Y-94952857D01*
X164430390Y-94952857D02*
X164392295Y-95029047D01*
X164392295Y-95029047D02*
X164392295Y-95219524D01*
X164392295Y-95219524D02*
X164430390Y-95333809D01*
X164773247Y-95676667D02*
X164773247Y-95943333D01*
X165192295Y-96057619D02*
X165192295Y-95676667D01*
X165192295Y-95676667D02*
X164392295Y-95676667D01*
X164392295Y-95676667D02*
X164392295Y-96057619D01*
X164392295Y-96286191D02*
X164392295Y-96743334D01*
X165192295Y-96514762D02*
X164392295Y-96514762D01*
%TO.C,D11*%
X63393250Y-88121300D02*
X64293250Y-88821300D01*
X63393250Y-89521300D02*
X63393250Y-88121300D01*
X64293250Y-88821300D02*
X63393250Y-89521300D01*
X64293250Y-89521300D02*
X64293250Y-88121300D01*
%TO.C,D8*%
X101494050Y-59545700D02*
X102394050Y-60245700D01*
X101494050Y-60945700D02*
X101494050Y-59545700D01*
X102394050Y-60245700D02*
X101494050Y-60945700D01*
X102394050Y-60945700D02*
X102394050Y-59545700D01*
%TO.C,SW1*%
X50565000Y-59940000D02*
X50540001Y-64540000D01*
X51740000Y-53690000D02*
X51740000Y-57635000D01*
X51740000Y-57644000D02*
X55350000Y-57644000D01*
X54340000Y-64565000D02*
X50565000Y-64565000D01*
X55265000Y-59915000D02*
X50565000Y-59915000D01*
X55560000Y-66040000D02*
X55560000Y-66740000D01*
X60115000Y-62115000D02*
X57565000Y-62115000D01*
X60115000Y-66765000D02*
X55565000Y-66765000D01*
X60140000Y-62139999D02*
X60140000Y-66740000D01*
X62640000Y-51736000D02*
X54015000Y-51736000D01*
X62640000Y-55644000D02*
X62640000Y-51736000D01*
X62640000Y-55690000D02*
X57590000Y-55736000D01*
X51751000Y-53620000D02*
G75*
G02*
X54015000Y-51736000I2074000J-190000D01*
G01*
X54340000Y-64570000D02*
G75*
G02*
X55560000Y-65990000I-100000J-1320000D01*
G01*
X55355001Y-57619999D02*
G75*
G02*
X57615000Y-55740000I2069998J-189999D01*
G01*
X57640000Y-62110000D02*
G75*
G02*
X55270000Y-59940000I-100000J2270000D01*
G01*
%TO.C,SW4*%
X107716200Y-55177400D02*
X107691201Y-59777400D01*
X108891200Y-48927400D02*
X108891200Y-52872400D01*
X108891200Y-52881400D02*
X112501200Y-52881400D01*
X111491200Y-59802400D02*
X107716200Y-59802400D01*
X112416200Y-55152400D02*
X107716200Y-55152400D01*
X112711200Y-61277400D02*
X112711200Y-61977400D01*
X117266200Y-57352400D02*
X114716200Y-57352400D01*
X117266200Y-62002400D02*
X112716200Y-62002400D01*
X117291200Y-57377399D02*
X117291200Y-61977400D01*
X119791200Y-46973400D02*
X111166200Y-46973400D01*
X119791200Y-50881400D02*
X119791200Y-46973400D01*
X119791200Y-50927400D02*
X114741200Y-50973400D01*
X108902200Y-48857400D02*
G75*
G02*
X111166200Y-46973400I2074000J-190000D01*
G01*
X111491200Y-59807400D02*
G75*
G02*
X112711200Y-61227400I-100000J-1320000D01*
G01*
X112506201Y-52857399D02*
G75*
G02*
X114766200Y-50977400I2069998J-189999D01*
G01*
X114791200Y-57347400D02*
G75*
G02*
X112421200Y-55177400I-100000J2270000D01*
G01*
%TO.C,SW7*%
X69615400Y-71846500D02*
X69590401Y-76446500D01*
X70790400Y-65596500D02*
X70790400Y-69541500D01*
X70790400Y-69550500D02*
X74400400Y-69550500D01*
X73390400Y-76471500D02*
X69615400Y-76471500D01*
X74315400Y-71821500D02*
X69615400Y-71821500D01*
X74610400Y-77946500D02*
X74610400Y-78646500D01*
X79165400Y-74021500D02*
X76615400Y-74021500D01*
X79165400Y-78671500D02*
X74615400Y-78671500D01*
X79190400Y-74046499D02*
X79190400Y-78646500D01*
X81690400Y-63642500D02*
X73065400Y-63642500D01*
X81690400Y-67550500D02*
X81690400Y-63642500D01*
X81690400Y-67596500D02*
X76640400Y-67642500D01*
X70801400Y-65526500D02*
G75*
G02*
X73065400Y-63642500I2074000J-190000D01*
G01*
X73390400Y-76476500D02*
G75*
G02*
X74610400Y-77896500I-100000J-1320000D01*
G01*
X74405401Y-69526499D02*
G75*
G02*
X76665400Y-67646500I2069998J-189999D01*
G01*
X76690400Y-74016500D02*
G75*
G02*
X74320400Y-71846500I-100000J2270000D01*
G01*
%TO.C,SW18*%
X143409777Y-120487755D02*
X146826247Y-122460255D01*
X146834041Y-122464755D02*
X148639041Y-119338403D01*
X147167563Y-110071078D02*
X142855063Y-117540547D01*
X148234936Y-124630335D02*
X152206153Y-126951985D01*
X150551990Y-112025078D02*
X147167563Y-110071078D01*
X150563285Y-120547515D02*
X148213285Y-124617835D01*
X150591828Y-112048078D02*
X148106665Y-116444506D01*
X154127803Y-123673589D02*
X152240303Y-126942835D01*
X154893541Y-117447292D02*
X153618541Y-119655657D01*
X154927691Y-117438141D02*
X158911408Y-119738142D01*
X156015191Y-123354538D02*
X156621408Y-123704538D01*
X158920559Y-119772292D02*
X156645559Y-123712708D01*
X143354655Y-120443229D02*
G75*
G02*
X142855063Y-117540547I1201545J1701137D01*
G01*
X148620756Y-119322072D02*
G75*
G02*
X148122630Y-116424856I1199539J1697670D01*
G01*
X153651711Y-119588205D02*
G75*
G02*
X150587436Y-120555685I-2015877J1048395D01*
G01*
X154132133Y-123676089D02*
G75*
G02*
X155971889Y-123329538I1093153J-746600D01*
G01*
%TO.C,SW16*%
X98191000Y-112328600D02*
X98166001Y-116928600D01*
X99366000Y-106078600D02*
X99366000Y-110023600D01*
X99366000Y-110032600D02*
X102976000Y-110032600D01*
X101966000Y-116953600D02*
X98191000Y-116953600D01*
X102891000Y-112303600D02*
X98191000Y-112303600D01*
X103186000Y-118428600D02*
X103186000Y-119128600D01*
X107741000Y-114503600D02*
X105191000Y-114503600D01*
X107741000Y-119153600D02*
X103191000Y-119153600D01*
X107766000Y-114528599D02*
X107766000Y-119128600D01*
X110266000Y-104124600D02*
X101641000Y-104124600D01*
X110266000Y-108032600D02*
X110266000Y-104124600D01*
X110266000Y-108078600D02*
X105216000Y-108124600D01*
X99377000Y-106008600D02*
G75*
G02*
X101641000Y-104124600I2074000J-190000D01*
G01*
X101966000Y-116958600D02*
G75*
G02*
X103186000Y-118378600I-100000J-1320000D01*
G01*
X102981001Y-110008599D02*
G75*
G02*
X105241000Y-108128600I2069998J-189999D01*
G01*
X105266000Y-114498600D02*
G75*
G02*
X102896000Y-112328600I-100000J2270000D01*
G01*
%TO.C,J2*%
X152610000Y-82300000D02*
X164610000Y-82300000D01*
X152610000Y-88300000D02*
X152610000Y-82300000D01*
X164610000Y-82300000D02*
X164610000Y-82800000D01*
X164610000Y-82800000D02*
X166510000Y-82800000D01*
X164610000Y-87800000D02*
X166510000Y-87800000D01*
X164610000Y-88300000D02*
X152610000Y-88300000D01*
X164610000Y-88300000D02*
X164610000Y-87800000D01*
X166510000Y-82850000D02*
X166510000Y-87800000D01*
%TO.C,SW2*%
X69615400Y-52796100D02*
X69590401Y-57396100D01*
X70790400Y-46546100D02*
X70790400Y-50491100D01*
X70790400Y-50500100D02*
X74400400Y-50500100D01*
X73390400Y-57421100D02*
X69615400Y-57421100D01*
X74315400Y-52771100D02*
X69615400Y-52771100D01*
X74610400Y-58896100D02*
X74610400Y-59596100D01*
X79165400Y-54971100D02*
X76615400Y-54971100D01*
X79165400Y-59621100D02*
X74615400Y-59621100D01*
X79190400Y-54996099D02*
X79190400Y-59596100D01*
X81690400Y-44592100D02*
X73065400Y-44592100D01*
X81690400Y-48500100D02*
X81690400Y-44592100D01*
X81690400Y-48546100D02*
X76640400Y-48592100D01*
X70801400Y-46476100D02*
G75*
G02*
X73065400Y-44592100I2074000J-190000D01*
G01*
X73390400Y-57426100D02*
G75*
G02*
X74610400Y-58846100I-100000J-1320000D01*
G01*
X74405401Y-50476099D02*
G75*
G02*
X76665400Y-48596100I2069998J-189999D01*
G01*
X76690400Y-54966100D02*
G75*
G02*
X74320400Y-52796100I-100000J2270000D01*
G01*
%TO.C,SW6*%
X50565000Y-78990400D02*
X50540001Y-83590400D01*
X51740000Y-72740400D02*
X51740000Y-76685400D01*
X51740000Y-76694400D02*
X55350000Y-76694400D01*
X54340000Y-83615400D02*
X50565000Y-83615400D01*
X55265000Y-78965400D02*
X50565000Y-78965400D01*
X55560000Y-85090400D02*
X55560000Y-85790400D01*
X60115000Y-81165400D02*
X57565000Y-81165400D01*
X60115000Y-85815400D02*
X55565000Y-85815400D01*
X60140000Y-81190399D02*
X60140000Y-85790400D01*
X62640000Y-70786400D02*
X54015000Y-70786400D01*
X62640000Y-74694400D02*
X62640000Y-70786400D01*
X62640000Y-74740400D02*
X57590000Y-74786400D01*
X51751000Y-72670400D02*
G75*
G02*
X54015000Y-70786400I2074000J-190000D01*
G01*
X54340000Y-83620400D02*
G75*
G02*
X55560000Y-85040400I-100000J-1320000D01*
G01*
X55355001Y-76670399D02*
G75*
G02*
X57615000Y-74790400I2069998J-189999D01*
G01*
X57640000Y-81160400D02*
G75*
G02*
X55270000Y-78990400I-100000J2270000D01*
G01*
%TO.C,SW3*%
X88665800Y-50414800D02*
X88640801Y-55014800D01*
X89840800Y-44164800D02*
X89840800Y-48109800D01*
X89840800Y-48118800D02*
X93450800Y-48118800D01*
X92440800Y-55039800D02*
X88665800Y-55039800D01*
X93365800Y-50389800D02*
X88665800Y-50389800D01*
X93660800Y-56514800D02*
X93660800Y-57214800D01*
X98215800Y-52589800D02*
X95665800Y-52589800D01*
X98215800Y-57239800D02*
X93665800Y-57239800D01*
X98240800Y-52614799D02*
X98240800Y-57214800D01*
X100740800Y-42210800D02*
X92115800Y-42210800D01*
X100740800Y-46118800D02*
X100740800Y-42210800D01*
X100740800Y-46164800D02*
X95690800Y-46210800D01*
X89851800Y-44094800D02*
G75*
G02*
X92115800Y-42210800I2074000J-190000D01*
G01*
X92440800Y-55044800D02*
G75*
G02*
X93660800Y-56464800I-100000J-1320000D01*
G01*
X93455801Y-48094799D02*
G75*
G02*
X95715800Y-46214800I2069998J-189999D01*
G01*
X95740800Y-52584800D02*
G75*
G02*
X93370800Y-50414800I-100000J2270000D01*
G01*
%TO.C,D9*%
X120544450Y-64308300D02*
X121444450Y-65008300D01*
X120544450Y-65708300D02*
X120544450Y-64308300D01*
X121444450Y-65008300D02*
X120544450Y-65708300D01*
X121444450Y-65708300D02*
X121444450Y-64308300D01*
%TO.C,D10*%
X139594850Y-66689600D02*
X140494850Y-67389600D01*
X139594850Y-68089600D02*
X139594850Y-66689600D01*
X140494850Y-67389600D02*
X139594850Y-68089600D01*
X140494850Y-68089600D02*
X140494850Y-66689600D01*
%TO.C,D14*%
X120544450Y-83358700D02*
X121444450Y-84058700D01*
X120544450Y-84758700D02*
X120544450Y-83358700D01*
X121444450Y-84058700D02*
X120544450Y-84758700D01*
X121444450Y-84758700D02*
X121444450Y-83358700D01*
%TO.C,D18*%
X144583782Y-103094167D02*
X145640000Y-102664744D01*
X145640000Y-102664744D02*
X145796218Y-103794167D01*
X145796218Y-103794167D02*
X144583782Y-103094167D01*
X146246218Y-103014744D02*
X145033782Y-102314744D01*
%TO.C,D17*%
X134812459Y-107508742D02*
X135151150Y-106150328D01*
X135151150Y-106150328D02*
X135855071Y-107047265D01*
X135685726Y-107726472D02*
X136024416Y-106368058D01*
X135855071Y-107047265D02*
X134812459Y-107508742D01*
%TO.C,D5*%
X139594850Y-63793250D02*
X140494850Y-64493250D01*
X139594850Y-65193250D02*
X139594850Y-63793250D01*
X140494850Y-64493250D02*
X139594850Y-65193250D01*
X140494850Y-65193250D02*
X140494850Y-63793250D01*
%TO.C,D7*%
X82443650Y-61927000D02*
X83343650Y-62627000D01*
X82443650Y-63327000D02*
X82443650Y-61927000D01*
X83343650Y-62627000D02*
X82443650Y-63327000D01*
X83343650Y-63327000D02*
X83343650Y-61927000D01*
%TO.C,D6*%
X63393250Y-69070900D02*
X64293250Y-69770900D01*
X63393250Y-70470900D02*
X63393250Y-69070900D01*
X64293250Y-69770900D02*
X63393250Y-70470900D01*
X64293250Y-70470900D02*
X64293250Y-69070900D01*
%TO.C,D13*%
X101494050Y-78596100D02*
X102394050Y-79296100D01*
X101494050Y-79996100D02*
X101494050Y-78596100D01*
X102394050Y-79296100D02*
X101494050Y-79996100D01*
X102394050Y-79996100D02*
X102394050Y-78596100D01*
%TO.C,SW8*%
X88665800Y-69465200D02*
X88640801Y-74065200D01*
X89840800Y-63215200D02*
X89840800Y-67160200D01*
X89840800Y-67169200D02*
X93450800Y-67169200D01*
X92440800Y-74090200D02*
X88665800Y-74090200D01*
X93365800Y-69440200D02*
X88665800Y-69440200D01*
X93660800Y-75565200D02*
X93660800Y-76265200D01*
X98215800Y-71640200D02*
X95665800Y-71640200D01*
X98215800Y-76290200D02*
X93665800Y-76290200D01*
X98240800Y-71665199D02*
X98240800Y-76265200D01*
X100740800Y-61261200D02*
X92115800Y-61261200D01*
X100740800Y-65169200D02*
X100740800Y-61261200D01*
X100740800Y-65215200D02*
X95690800Y-65261200D01*
X89851800Y-63145200D02*
G75*
G02*
X92115800Y-61261200I2074000J-190000D01*
G01*
X92440800Y-74095200D02*
G75*
G02*
X93660800Y-75515200I-100000J-1320000D01*
G01*
X93455801Y-67145199D02*
G75*
G02*
X95715800Y-65265200I2069998J-189999D01*
G01*
X95740800Y-71635200D02*
G75*
G02*
X93370800Y-69465200I-100000J2270000D01*
G01*
%TO.C,SW15*%
X126766600Y-95659500D02*
X126741601Y-100259500D01*
X127941600Y-89409500D02*
X127941600Y-93354500D01*
X127941600Y-93363500D02*
X131551600Y-93363500D01*
X130541600Y-100284500D02*
X126766600Y-100284500D01*
X131466600Y-95634500D02*
X126766600Y-95634500D01*
X131761600Y-101759500D02*
X131761600Y-102459500D01*
X136316600Y-97834500D02*
X133766600Y-97834500D01*
X136316600Y-102484500D02*
X131766600Y-102484500D01*
X136341600Y-97859499D02*
X136341600Y-102459500D01*
X138841600Y-87455500D02*
X130216600Y-87455500D01*
X138841600Y-91363500D02*
X138841600Y-87455500D01*
X138841600Y-91409500D02*
X133791600Y-91455500D01*
X127952600Y-89339500D02*
G75*
G02*
X130216600Y-87455500I2074000J-190000D01*
G01*
X130541600Y-100289500D02*
G75*
G02*
X131761600Y-101709500I-100000J-1320000D01*
G01*
X131556601Y-93339499D02*
G75*
G02*
X133816600Y-91459500I2069998J-189999D01*
G01*
X133841600Y-97829500D02*
G75*
G02*
X131471600Y-95659500I-100000J2270000D01*
G01*
%TO.C,SW5*%
X126766600Y-57558700D02*
X126741601Y-62158700D01*
X127941600Y-51308700D02*
X127941600Y-55253700D01*
X127941600Y-55262700D02*
X131551600Y-55262700D01*
X130541600Y-62183700D02*
X126766600Y-62183700D01*
X131466600Y-57533700D02*
X126766600Y-57533700D01*
X131761600Y-63658700D02*
X131761600Y-64358700D01*
X136316600Y-59733700D02*
X133766600Y-59733700D01*
X136316600Y-64383700D02*
X131766600Y-64383700D01*
X136341600Y-59758699D02*
X136341600Y-64358700D01*
X138841600Y-49354700D02*
X130216600Y-49354700D01*
X138841600Y-53262700D02*
X138841600Y-49354700D01*
X138841600Y-53308700D02*
X133791600Y-53354700D01*
X127952600Y-51238700D02*
G75*
G02*
X130216600Y-49354700I2074000J-190000D01*
G01*
X130541600Y-62188700D02*
G75*
G02*
X131761600Y-63608700I-100000J-1320000D01*
G01*
X131556601Y-55238699D02*
G75*
G02*
X133816600Y-53358700I2069998J-189999D01*
G01*
X133841600Y-59728700D02*
G75*
G02*
X131471600Y-57558700I-100000J2270000D01*
G01*
%TO.C,SW19*%
X163030000Y-92010000D02*
X163530000Y-92010000D01*
X163030000Y-98010000D02*
X163030000Y-92010000D01*
X163030000Y-98010000D02*
X163030000Y-92110000D01*
X163030000Y-98010000D02*
X163530000Y-98010000D01*
X166530000Y-92010000D02*
X166130000Y-92010000D01*
X166530000Y-92010000D02*
X166530000Y-98010000D01*
X166530000Y-98010000D02*
X166130000Y-98010000D01*
%TO.C,SW13*%
X88665800Y-88515600D02*
X88640801Y-93115600D01*
X89840800Y-82265600D02*
X89840800Y-86210600D01*
X89840800Y-86219600D02*
X93450800Y-86219600D01*
X92440800Y-93140600D02*
X88665800Y-93140600D01*
X93365800Y-88490600D02*
X88665800Y-88490600D01*
X93660800Y-94615600D02*
X93660800Y-95315600D01*
X98215800Y-90690600D02*
X95665800Y-90690600D01*
X98215800Y-95340600D02*
X93665800Y-95340600D01*
X98240800Y-90715599D02*
X98240800Y-95315600D01*
X100740800Y-80311600D02*
X92115800Y-80311600D01*
X100740800Y-84219600D02*
X100740800Y-80311600D01*
X100740800Y-84265600D02*
X95690800Y-84311600D01*
X89851800Y-82195600D02*
G75*
G02*
X92115800Y-80311600I2074000J-190000D01*
G01*
X92440800Y-93145600D02*
G75*
G02*
X93660800Y-94565600I-100000J-1320000D01*
G01*
X93455801Y-86195599D02*
G75*
G02*
X95715800Y-84315600I2069998J-189999D01*
G01*
X95740800Y-90685600D02*
G75*
G02*
X93370800Y-88515600I-100000J2270000D01*
G01*
%TO.C,D2*%
X82443650Y-59030650D02*
X83343650Y-59730650D01*
X82443650Y-60430650D02*
X82443650Y-59030650D01*
X83343650Y-59730650D02*
X82443650Y-60430650D01*
X83343650Y-60430650D02*
X83343650Y-59030650D01*
%TO.C,D4*%
X120544450Y-61411950D02*
X121444450Y-62111950D01*
X120544450Y-62811950D02*
X120544450Y-61411950D01*
X121444450Y-62111950D02*
X120544450Y-62811950D01*
X121444450Y-62811950D02*
X121444450Y-61411950D01*
%TO.C,SW17*%
X120282408Y-113238432D02*
X119145311Y-117695745D01*
X121977958Y-111294891D02*
X125480726Y-112168230D01*
X122826386Y-118639305D02*
X119163519Y-117726050D01*
X122934517Y-107458342D02*
X121980135Y-111286159D01*
X123653312Y-120365636D02*
X123483966Y-121044843D01*
X124848846Y-114351208D02*
X120288456Y-113214175D01*
X127897615Y-122171055D02*
X123482770Y-121070310D01*
X129022552Y-117659180D02*
X126548298Y-117042279D01*
X129040762Y-117689484D02*
X127927921Y-122152845D01*
X133026897Y-112035882D02*
X128115775Y-110858810D01*
X133038025Y-111991249D02*
X133983456Y-108199333D01*
X133983456Y-108199333D02*
X125614655Y-106112757D01*
X122825176Y-118644157D02*
G75*
G02*
X123665407Y-120317121I-416373J-1256601D01*
G01*
X122962125Y-107393083D02*
G75*
G02*
X125614655Y-106112756I1966430J-686104D01*
G01*
X125491384Y-112146151D02*
G75*
G02*
X128139065Y-110868739I1962548J-685138D01*
G01*
X126622280Y-117055571D02*
G75*
G02*
X124847650Y-114376675I452134J2226764D01*
G01*
%TO.C,D1*%
X63393250Y-66174550D02*
X64293250Y-66874550D01*
X63393250Y-67574550D02*
X63393250Y-66174550D01*
X64293250Y-66874550D02*
X63393250Y-67574550D01*
X64293250Y-67574550D02*
X64293250Y-66174550D01*
%TO.C,D12*%
X82443650Y-80977400D02*
X83343650Y-81677400D01*
X82443650Y-82377400D02*
X82443650Y-80977400D01*
X83343650Y-81677400D02*
X82443650Y-82377400D01*
X83343650Y-82377400D02*
X83343650Y-80977400D01*
%TO.C,D16*%
X111019250Y-101894050D02*
X111919250Y-102594050D01*
X111019250Y-103294050D02*
X111019250Y-101894050D01*
X111919250Y-102594050D02*
X111019250Y-103294050D01*
X111919250Y-103294050D02*
X111919250Y-101894050D01*
%TO.C,SW10*%
X126766600Y-76609100D02*
X126741601Y-81209100D01*
X127941600Y-70359100D02*
X127941600Y-74304100D01*
X127941600Y-74313100D02*
X131551600Y-74313100D01*
X130541600Y-81234100D02*
X126766600Y-81234100D01*
X131466600Y-76584100D02*
X126766600Y-76584100D01*
X131761600Y-82709100D02*
X131761600Y-83409100D01*
X136316600Y-78784100D02*
X133766600Y-78784100D01*
X136316600Y-83434100D02*
X131766600Y-83434100D01*
X136341600Y-78809099D02*
X136341600Y-83409100D01*
X138841600Y-68405100D02*
X130216600Y-68405100D01*
X138841600Y-72313100D02*
X138841600Y-68405100D01*
X138841600Y-72359100D02*
X133791600Y-72405100D01*
X127952600Y-70289100D02*
G75*
G02*
X130216600Y-68405100I2074000J-190000D01*
G01*
X130541600Y-81239100D02*
G75*
G02*
X131761600Y-82659100I-100000J-1320000D01*
G01*
X131556601Y-74289099D02*
G75*
G02*
X133816600Y-72409100I2069998J-189999D01*
G01*
X133841600Y-78779100D02*
G75*
G02*
X131471600Y-76609100I-100000J2270000D01*
G01*
%TO.C,D3*%
X101494050Y-56649350D02*
X102394050Y-57349350D01*
X101494050Y-58049350D02*
X101494050Y-56649350D01*
X102394050Y-57349350D02*
X101494050Y-58049350D01*
X102394050Y-58049350D02*
X102394050Y-56649350D01*
%TO.C,SW14*%
X107716200Y-93278200D02*
X107691201Y-97878200D01*
X108891200Y-87028200D02*
X108891200Y-90973200D01*
X108891200Y-90982200D02*
X112501200Y-90982200D01*
X111491200Y-97903200D02*
X107716200Y-97903200D01*
X112416200Y-93253200D02*
X107716200Y-93253200D01*
X112711200Y-99378200D02*
X112711200Y-100078200D01*
X117266200Y-95453200D02*
X114716200Y-95453200D01*
X117266200Y-100103200D02*
X112716200Y-100103200D01*
X117291200Y-95478199D02*
X117291200Y-100078200D01*
X119791200Y-85074200D02*
X111166200Y-85074200D01*
X119791200Y-88982200D02*
X119791200Y-85074200D01*
X119791200Y-89028200D02*
X114741200Y-89074200D01*
X108902200Y-86958200D02*
G75*
G02*
X111166200Y-85074200I2074000J-190000D01*
G01*
X111491200Y-97908200D02*
G75*
G02*
X112711200Y-99328200I-100000J-1320000D01*
G01*
X112506201Y-90958199D02*
G75*
G02*
X114766200Y-89078200I2069998J-189999D01*
G01*
X114791200Y-95448200D02*
G75*
G02*
X112421200Y-93278200I-100000J2270000D01*
G01*
D11*
%TO.C,U1*%
X147438465Y-49934255D02*
X149978465Y-49934255D01*
D10*
X147438465Y-80414255D02*
X147438465Y-49934255D01*
D11*
X147438465Y-80414255D02*
X147438465Y-49934255D01*
X149978465Y-49934255D02*
X149978465Y-80414255D01*
X149978465Y-80414255D02*
X147438465Y-80414255D01*
X162678465Y-49934255D02*
X165218465Y-49934255D01*
X162678465Y-80414255D02*
X162678465Y-49934255D01*
D10*
X165218465Y-49934255D02*
X165218465Y-80414255D01*
D11*
X165218465Y-49934255D02*
X165218465Y-80414255D01*
X165218465Y-80414255D02*
X162678465Y-80414255D01*
D10*
%TO.C,SW11*%
X50565000Y-98040800D02*
X50540001Y-102640800D01*
X51740000Y-91790800D02*
X51740000Y-95735800D01*
X51740000Y-95744800D02*
X55350000Y-95744800D01*
X54340000Y-102665800D02*
X50565000Y-102665800D01*
X55265000Y-98015800D02*
X50565000Y-98015800D01*
X55560000Y-104140800D02*
X55560000Y-104840800D01*
X60115000Y-100215800D02*
X57565000Y-100215800D01*
X60115000Y-104865800D02*
X55565000Y-104865800D01*
X60140000Y-100240799D02*
X60140000Y-104840800D01*
X62640000Y-89836800D02*
X54015000Y-89836800D01*
X62640000Y-93744800D02*
X62640000Y-89836800D01*
X62640000Y-93790800D02*
X57590000Y-93836800D01*
X51751000Y-91720800D02*
G75*
G02*
X54015000Y-89836800I2074000J-190000D01*
G01*
X54340000Y-102670800D02*
G75*
G02*
X55560000Y-104090800I-100000J-1320000D01*
G01*
X55355001Y-95720799D02*
G75*
G02*
X57615000Y-93840800I2069998J-189999D01*
G01*
X57640000Y-100210800D02*
G75*
G02*
X55270000Y-98040800I-100000J2270000D01*
G01*
%TO.C,SW12*%
X69615400Y-90896900D02*
X69590401Y-95496900D01*
X70790400Y-84646900D02*
X70790400Y-88591900D01*
X70790400Y-88600900D02*
X74400400Y-88600900D01*
X73390400Y-95521900D02*
X69615400Y-95521900D01*
X74315400Y-90871900D02*
X69615400Y-90871900D01*
X74610400Y-96996900D02*
X74610400Y-97696900D01*
X79165400Y-93071900D02*
X76615400Y-93071900D01*
X79165400Y-97721900D02*
X74615400Y-97721900D01*
X79190400Y-93096899D02*
X79190400Y-97696900D01*
X81690400Y-82692900D02*
X73065400Y-82692900D01*
X81690400Y-86600900D02*
X81690400Y-82692900D01*
X81690400Y-86646900D02*
X76640400Y-86692900D01*
X70801400Y-84576900D02*
G75*
G02*
X73065400Y-82692900I2074000J-190000D01*
G01*
X73390400Y-95526900D02*
G75*
G02*
X74610400Y-96946900I-100000J-1320000D01*
G01*
X74405401Y-88576899D02*
G75*
G02*
X76665400Y-86696900I2069998J-189999D01*
G01*
X76690400Y-93066900D02*
G75*
G02*
X74320400Y-90896900I-100000J2270000D01*
G01*
%TO.C,D15*%
X139594850Y-85740000D02*
X140494850Y-86440000D01*
X139594850Y-87140000D02*
X139594850Y-85740000D01*
X140494850Y-86440000D02*
X139594850Y-87140000D01*
X140494850Y-87140000D02*
X140494850Y-85740000D01*
%TO.C,SW9*%
X107716200Y-74227800D02*
X107691201Y-78827800D01*
X108891200Y-67977800D02*
X108891200Y-71922800D01*
X108891200Y-71931800D02*
X112501200Y-71931800D01*
X111491200Y-78852800D02*
X107716200Y-78852800D01*
X112416200Y-74202800D02*
X107716200Y-74202800D01*
X112711200Y-80327800D02*
X112711200Y-81027800D01*
X117266200Y-76402800D02*
X114716200Y-76402800D01*
X117266200Y-81052800D02*
X112716200Y-81052800D01*
X117291200Y-76427799D02*
X117291200Y-81027800D01*
X119791200Y-66023800D02*
X111166200Y-66023800D01*
X119791200Y-69931800D02*
X119791200Y-66023800D01*
X119791200Y-69977800D02*
X114741200Y-70023800D01*
X108902200Y-67907800D02*
G75*
G02*
X111166200Y-66023800I2074000J-190000D01*
G01*
X111491200Y-78857800D02*
G75*
G02*
X112711200Y-80277800I-100000J-1320000D01*
G01*
X112506201Y-71907799D02*
G75*
G02*
X114766200Y-70027800I2069998J-189999D01*
G01*
X114791200Y-76397800D02*
G75*
G02*
X112421200Y-74227800I-100000J2270000D01*
G01*
D12*
%TO.C,G\u002A\u002A\u002A*%
G36*
X157714718Y-70197637D02*
G01*
X157749686Y-70217174D01*
X157768928Y-70252690D01*
X157774814Y-70306592D01*
X157774723Y-70314971D01*
X157765123Y-70382095D01*
X157737750Y-70439244D01*
X157689791Y-70492576D01*
X157658688Y-70517815D01*
X157600534Y-70552947D01*
X157540768Y-70576339D01*
X157483384Y-70587400D01*
X157432375Y-70585536D01*
X157391735Y-70570156D01*
X157365460Y-70540667D01*
X157361593Y-70531801D01*
X157352591Y-70479151D01*
X157362507Y-70422767D01*
X157388527Y-70365964D01*
X157427838Y-70312056D01*
X157477625Y-70264357D01*
X157535076Y-70226183D01*
X157597376Y-70200848D01*
X157661713Y-70191666D01*
X157714718Y-70197637D01*
G37*
G36*
X157700397Y-73417597D02*
G01*
X157742477Y-73436825D01*
X157751037Y-73443969D01*
X157766317Y-73462490D01*
X157773208Y-73487173D01*
X157774814Y-73526648D01*
X157774812Y-73528162D01*
X157767605Y-73597574D01*
X157744619Y-73654459D01*
X157703057Y-73705802D01*
X157660164Y-73741794D01*
X157602421Y-73776047D01*
X157542680Y-73798901D01*
X157484996Y-73809676D01*
X157433423Y-73807690D01*
X157392013Y-73792260D01*
X157364822Y-73762704D01*
X157357758Y-73738244D01*
X157357370Y-73692531D01*
X157367077Y-73640942D01*
X157385846Y-73591881D01*
X157388476Y-73586874D01*
X157425832Y-73534214D01*
X157474828Y-73488816D01*
X157531125Y-73452568D01*
X157590380Y-73427357D01*
X157648251Y-73415071D01*
X157700397Y-73417597D01*
G37*
G36*
X158421183Y-53204616D02*
G01*
X158455414Y-53209255D01*
X158538420Y-53231998D01*
X158606199Y-53268693D01*
X158656070Y-53318044D01*
X158680381Y-53358006D01*
X158711647Y-53433708D01*
X158734461Y-53522091D01*
X158746950Y-53616990D01*
X158746486Y-53719688D01*
X158729155Y-53847344D01*
X158694773Y-53986410D01*
X158644105Y-54135238D01*
X158577915Y-54292176D01*
X158496967Y-54455577D01*
X158402025Y-54623792D01*
X158293853Y-54795169D01*
X158173216Y-54968062D01*
X158040878Y-55140819D01*
X157975302Y-55221149D01*
X157770680Y-55455290D01*
X157549052Y-55686625D01*
X157314156Y-55911807D01*
X157069731Y-56127490D01*
X156819515Y-56330328D01*
X156567247Y-56516974D01*
X156316666Y-56684082D01*
X156300303Y-56694301D01*
X156135449Y-56789949D01*
X155968052Y-56874468D01*
X155800760Y-56946984D01*
X155636222Y-57006625D01*
X155477086Y-57052517D01*
X155326000Y-57083786D01*
X155185612Y-57099559D01*
X155058570Y-57098964D01*
X155041775Y-57096893D01*
X154949953Y-57085572D01*
X154841397Y-57057979D01*
X154751117Y-57016732D01*
X154678131Y-56961057D01*
X154621462Y-56890179D01*
X154580128Y-56803324D01*
X154553149Y-56699719D01*
X154547077Y-56646359D01*
X154544791Y-56571857D01*
X154546843Y-56488709D01*
X154552616Y-56407784D01*
X154652554Y-56407784D01*
X154672305Y-56489893D01*
X154712707Y-56562138D01*
X154773054Y-56622979D01*
X154852639Y-56670878D01*
X154867354Y-56677397D01*
X154889475Y-56685467D01*
X154913694Y-56691046D01*
X154944294Y-56694554D01*
X154985561Y-56696413D01*
X155041775Y-56697043D01*
X155117222Y-56696865D01*
X155123745Y-56696830D01*
X155201196Y-56696006D01*
X155261090Y-56694154D01*
X155308979Y-56690732D01*
X155350414Y-56685194D01*
X155390947Y-56676996D01*
X155436128Y-56665594D01*
X155438622Y-56664924D01*
X155584014Y-56615396D01*
X155726932Y-56547037D01*
X155864374Y-56462378D01*
X155993337Y-56363950D01*
X156110818Y-56254283D01*
X156213815Y-56135910D01*
X156299325Y-56011361D01*
X156364345Y-55883167D01*
X156404067Y-55775641D01*
X156433698Y-55657918D01*
X156443585Y-55552756D01*
X156433728Y-55460209D01*
X156404129Y-55380335D01*
X156354789Y-55313188D01*
X156324205Y-55285505D01*
X156273683Y-55254262D01*
X156213324Y-55233695D01*
X156138905Y-55222521D01*
X156046203Y-55219458D01*
X155971596Y-55222532D01*
X155828059Y-55243717D01*
X155683180Y-55285511D01*
X155535062Y-55348523D01*
X155381805Y-55433366D01*
X155363044Y-55445045D01*
X155240627Y-55529699D01*
X155123528Y-55624823D01*
X155014111Y-55727683D01*
X154914740Y-55835546D01*
X154827779Y-55945678D01*
X154755590Y-56055346D01*
X154700539Y-56161816D01*
X154664988Y-56262355D01*
X154654163Y-56317349D01*
X154652554Y-56407784D01*
X154552616Y-56407784D01*
X154552853Y-56404459D01*
X154562441Y-56326649D01*
X154575224Y-56262824D01*
X154578997Y-56249173D01*
X154607286Y-56168123D01*
X154647406Y-56076489D01*
X154696331Y-55980295D01*
X154751035Y-55885568D01*
X154808492Y-55798333D01*
X154854078Y-55738848D01*
X154920070Y-55661897D01*
X154996095Y-55580258D01*
X155077394Y-55498683D01*
X155159211Y-55421926D01*
X155236789Y-55354739D01*
X155305370Y-55301877D01*
X155389160Y-55245139D01*
X155562071Y-55143703D01*
X155732981Y-55064919D01*
X155902763Y-55008359D01*
X155948151Y-54998131D01*
X156028352Y-54986914D01*
X156113244Y-54981745D01*
X156195994Y-54982705D01*
X156269770Y-54989876D01*
X156327739Y-55003337D01*
X156361369Y-55017476D01*
X156428159Y-55062960D01*
X156482935Y-55125671D01*
X156525042Y-55203174D01*
X156553825Y-55293035D01*
X156568627Y-55392817D01*
X156568795Y-55500085D01*
X156553671Y-55612405D01*
X156522602Y-55727342D01*
X156518824Y-55738141D01*
X156487530Y-55814939D01*
X156445939Y-55901956D01*
X156397793Y-55992121D01*
X156346837Y-56078369D01*
X156296813Y-56153630D01*
X156292022Y-56160223D01*
X156255301Y-56207353D01*
X156208384Y-56263518D01*
X156156800Y-56322239D01*
X156106080Y-56377041D01*
X155983688Y-56505086D01*
X156064382Y-56474713D01*
X156159071Y-56437131D01*
X156362337Y-56344474D01*
X156571080Y-56234179D01*
X156781817Y-56108502D01*
X156991063Y-55969698D01*
X157195334Y-55820021D01*
X157391145Y-55661726D01*
X157575012Y-55497069D01*
X157613342Y-55460507D01*
X157804840Y-55266878D01*
X157975555Y-55074767D01*
X158125169Y-54884665D01*
X158253370Y-54697063D01*
X158359841Y-54512453D01*
X158444267Y-54331328D01*
X158506334Y-54154180D01*
X158545726Y-53981499D01*
X158554513Y-53912594D01*
X158560392Y-53816232D01*
X158560426Y-53716891D01*
X158554843Y-53621065D01*
X158543868Y-53535246D01*
X158527729Y-53465928D01*
X158501372Y-53402511D01*
X158456464Y-53338254D01*
X158400198Y-53292015D01*
X158334716Y-53265452D01*
X158262159Y-53260226D01*
X158230491Y-53261342D01*
X158214114Y-53256749D01*
X158209907Y-53244552D01*
X158211544Y-53238646D01*
X158230052Y-53224441D01*
X158265215Y-53213000D01*
X158312087Y-53205260D01*
X158365725Y-53202153D01*
X158421183Y-53204616D01*
G37*
G36*
X157880648Y-57333537D02*
G01*
X157930364Y-57335462D01*
X157967505Y-57340574D01*
X157999959Y-57350315D01*
X158035611Y-57366130D01*
X158107510Y-57412459D01*
X158176180Y-57480472D01*
X158237571Y-57566162D01*
X158290251Y-57666774D01*
X158332782Y-57779553D01*
X158363732Y-57901744D01*
X158381665Y-58030594D01*
X158384529Y-58069161D01*
X158384625Y-58103751D01*
X158379271Y-58132762D01*
X158366660Y-58165006D01*
X158344983Y-58209293D01*
X158339638Y-58219801D01*
X158305415Y-58282813D01*
X158270165Y-58341413D01*
X158236212Y-58392285D01*
X158205883Y-58432112D01*
X158181504Y-58457578D01*
X158165400Y-58465367D01*
X158157906Y-58462461D01*
X158149290Y-58452513D01*
X158141686Y-58432601D01*
X158134203Y-58399370D01*
X158125949Y-58349466D01*
X158116033Y-58279537D01*
X158103275Y-58204444D01*
X158071802Y-58083811D01*
X158029058Y-57972078D01*
X157976649Y-57872123D01*
X157916175Y-57786825D01*
X157849242Y-57719062D01*
X157777453Y-57671713D01*
X157771436Y-57668792D01*
X157725953Y-57650212D01*
X157682242Y-57641086D01*
X157627824Y-57638657D01*
X157623863Y-57638672D01*
X157570570Y-57642393D01*
X157521536Y-57653840D01*
X157474967Y-57674705D01*
X157429072Y-57706678D01*
X157382059Y-57751449D01*
X157332137Y-57810708D01*
X157277513Y-57886147D01*
X157216397Y-57979456D01*
X157146996Y-58092324D01*
X157070295Y-58219621D01*
X156999093Y-58337062D01*
X156937663Y-58437020D01*
X156884838Y-58520902D01*
X156839456Y-58590115D01*
X156800351Y-58646068D01*
X156766359Y-58690167D01*
X156736317Y-58723820D01*
X156709059Y-58748435D01*
X156683421Y-58765418D01*
X156658240Y-58776177D01*
X156632350Y-58782120D01*
X156604587Y-58784653D01*
X156573787Y-58785185D01*
X156569203Y-58785166D01*
X156520278Y-58781644D01*
X156475676Y-58770417D01*
X156430283Y-58749133D01*
X156378985Y-58715441D01*
X156316666Y-58666990D01*
X156299673Y-58653194D01*
X156174676Y-58554589D01*
X156063792Y-58472692D01*
X155965737Y-58406682D01*
X155879225Y-58355739D01*
X155802972Y-58319042D01*
X155735694Y-58295768D01*
X155733510Y-58295203D01*
X155690249Y-58287408D01*
X155635532Y-58281842D01*
X155580654Y-58279676D01*
X155513885Y-58282549D01*
X155385940Y-58305161D01*
X155263507Y-58349377D01*
X155147681Y-58414139D01*
X155039559Y-58498390D01*
X154940238Y-58601070D01*
X154850814Y-58721123D01*
X154772384Y-58857490D01*
X154706045Y-59009112D01*
X154652891Y-59174933D01*
X154621316Y-59314174D01*
X154598450Y-59465031D01*
X154585982Y-59617167D01*
X154583831Y-59766814D01*
X154591913Y-59910202D01*
X154610147Y-60043565D01*
X154638449Y-60163133D01*
X154676738Y-60265138D01*
X154677574Y-60266906D01*
X154734038Y-60359202D01*
X154808331Y-60439180D01*
X154897195Y-60504851D01*
X154997370Y-60554224D01*
X155105597Y-60585307D01*
X155218617Y-60596111D01*
X155238010Y-60596289D01*
X155266444Y-60598561D01*
X155278691Y-60604797D01*
X155279774Y-60616689D01*
X155273709Y-60626707D01*
X155245123Y-60645198D01*
X155193657Y-60666032D01*
X155186008Y-60668674D01*
X155149048Y-60680064D01*
X155113441Y-60687654D01*
X155072972Y-60692193D01*
X155021428Y-60694432D01*
X154952592Y-60695121D01*
X154876764Y-60694369D01*
X154816936Y-60690739D01*
X154768275Y-60682756D01*
X154724578Y-60668950D01*
X154679643Y-60647850D01*
X154627267Y-60617986D01*
X154586856Y-60590321D01*
X154516319Y-60521165D01*
X154458187Y-60433675D01*
X154413451Y-60329510D01*
X154383106Y-60210327D01*
X154382099Y-60204455D01*
X154376003Y-60155077D01*
X154370909Y-60091009D01*
X154367323Y-60019889D01*
X154365754Y-59949352D01*
X154368393Y-59824104D01*
X154383995Y-59655851D01*
X154414489Y-59491951D01*
X154460980Y-59327959D01*
X154524574Y-59159433D01*
X154606374Y-58981928D01*
X154650322Y-58897594D01*
X154751770Y-58727223D01*
X154864454Y-58566714D01*
X154986275Y-58418335D01*
X155115132Y-58284356D01*
X155248925Y-58167046D01*
X155385553Y-58068676D01*
X155522916Y-57991516D01*
X155608502Y-57954810D01*
X155693643Y-57929954D01*
X155781498Y-57918044D01*
X155881574Y-57917108D01*
X155922031Y-57918998D01*
X155964882Y-57923153D01*
X156003322Y-57930896D01*
X156040538Y-57943892D01*
X156079720Y-57963805D01*
X156124057Y-57992301D01*
X156176737Y-58031044D01*
X156240951Y-58081699D01*
X156319887Y-58145932D01*
X156353748Y-58173535D01*
X156433352Y-58236823D01*
X156499322Y-58286184D01*
X156554266Y-58323142D01*
X156600792Y-58349223D01*
X156641505Y-58365948D01*
X156679014Y-58374844D01*
X156715925Y-58377433D01*
X156743022Y-58376579D01*
X156781904Y-58371227D01*
X156818265Y-58359439D01*
X156853883Y-58339471D01*
X156890538Y-58309578D01*
X156930010Y-58268015D01*
X156974077Y-58213037D01*
X157024519Y-58142899D01*
X157083115Y-58055857D01*
X157151646Y-57950166D01*
X157190012Y-57890918D01*
X157271524Y-57769997D01*
X157345723Y-57667829D01*
X157414265Y-57582553D01*
X157478805Y-57512307D01*
X157541000Y-57455231D01*
X157602504Y-57409464D01*
X157664975Y-57373143D01*
X157699319Y-57356324D01*
X157731591Y-57343572D01*
X157763178Y-57336607D01*
X157802145Y-57333755D01*
X157856554Y-57333339D01*
X157880648Y-57333537D01*
G37*
G36*
X156404463Y-71565578D02*
G01*
X156418540Y-71573556D01*
X156452523Y-71605491D01*
X156482685Y-71656713D01*
X156499871Y-71716632D01*
X156501257Y-71728084D01*
X156498549Y-71799783D01*
X156479036Y-71884398D01*
X156443756Y-71980075D01*
X156393745Y-72084963D01*
X156330040Y-72197209D01*
X156253678Y-72314961D01*
X156165695Y-72436368D01*
X156067130Y-72559576D01*
X155959017Y-72682735D01*
X155936397Y-72707812D01*
X155908329Y-72740528D01*
X155890085Y-72763927D01*
X155884826Y-72774116D01*
X155889874Y-72772924D01*
X155912164Y-72762366D01*
X155948898Y-72742845D01*
X155996553Y-72716253D01*
X156051610Y-72684482D01*
X156110336Y-72650184D01*
X156174389Y-72613304D01*
X156223635Y-72586022D01*
X156261159Y-72566907D01*
X156290047Y-72554529D01*
X156313385Y-72547458D01*
X156334258Y-72544265D01*
X156355752Y-72543518D01*
X156376661Y-72544336D01*
X156410574Y-72553238D01*
X156439717Y-72575702D01*
X156447823Y-72584259D01*
X156474178Y-72618397D01*
X156494977Y-72654250D01*
X156506888Y-72685365D01*
X156506583Y-72705286D01*
X156505749Y-72706325D01*
X156489777Y-72718379D01*
X156457962Y-72738624D01*
X156414458Y-72764504D01*
X156363417Y-72793460D01*
X156255114Y-72854142D01*
X156144047Y-72917516D01*
X156034791Y-72980922D01*
X155929695Y-73042936D01*
X155831106Y-73102135D01*
X155741371Y-73157096D01*
X155662840Y-73206394D01*
X155597860Y-73248606D01*
X155548779Y-73282308D01*
X155517945Y-73306078D01*
X155484888Y-73335995D01*
X155401903Y-73417879D01*
X155312955Y-73513683D01*
X155221867Y-73618776D01*
X155132460Y-73728528D01*
X155048556Y-73838309D01*
X154973978Y-73943488D01*
X154912548Y-74039437D01*
X154889774Y-74078680D01*
X154831806Y-74191804D01*
X154789923Y-74296040D01*
X154763960Y-74390325D01*
X154753748Y-74473595D01*
X154759120Y-74544789D01*
X154779907Y-74602842D01*
X154815944Y-74646692D01*
X154867062Y-74675275D01*
X154933094Y-74687530D01*
X155013871Y-74682393D01*
X155039242Y-74677726D01*
X155127185Y-74655085D01*
X155230781Y-74620470D01*
X155347406Y-74575136D01*
X155474436Y-74520340D01*
X155609244Y-74457336D01*
X155749207Y-74387382D01*
X155891699Y-74311732D01*
X156034097Y-74231642D01*
X156173774Y-74148369D01*
X156308107Y-74063168D01*
X156348935Y-74038593D01*
X156393289Y-74017585D01*
X156425700Y-74009252D01*
X156436875Y-74008862D01*
X156455289Y-74011543D01*
X156462182Y-74024736D01*
X156462833Y-74054934D01*
X156456147Y-74099298D01*
X156435737Y-74159115D01*
X156405343Y-74220999D01*
X156368753Y-74277388D01*
X156329753Y-74320717D01*
X156309269Y-74337531D01*
X156259365Y-74374055D01*
X156193308Y-74418796D01*
X156114032Y-74470001D01*
X156024469Y-74525921D01*
X155927549Y-74584805D01*
X155826206Y-74644902D01*
X155723371Y-74704461D01*
X155621977Y-74761731D01*
X155524955Y-74814963D01*
X155435237Y-74862404D01*
X155355756Y-74902304D01*
X155328273Y-74915498D01*
X155209822Y-74968963D01*
X155107643Y-75008429D01*
X155019715Y-75034087D01*
X154944014Y-75046128D01*
X154878519Y-75044742D01*
X154821207Y-75030121D01*
X154770054Y-75002454D01*
X154723040Y-74961932D01*
X154690652Y-74922896D01*
X154651529Y-74847883D01*
X154630025Y-74758957D01*
X154625999Y-74655409D01*
X154639313Y-74536530D01*
X154643581Y-74513041D01*
X154671417Y-74395605D01*
X154710468Y-74279496D01*
X154761931Y-74162666D01*
X154827003Y-74043068D01*
X154906879Y-73918651D01*
X155002759Y-73787370D01*
X155115837Y-73647175D01*
X155247310Y-73496018D01*
X155265365Y-73475690D01*
X155298330Y-73437288D01*
X155321169Y-73408778D01*
X155331954Y-73392636D01*
X155328760Y-73391339D01*
X155326396Y-73392825D01*
X155303712Y-73406425D01*
X155264931Y-73429170D01*
X155213634Y-73458978D01*
X155153404Y-73493764D01*
X155087824Y-73531446D01*
X155041992Y-73557711D01*
X154954911Y-73607328D01*
X154884750Y-73646234D01*
X154829089Y-73675060D01*
X154785506Y-73694438D01*
X154751581Y-73704998D01*
X154724890Y-73707371D01*
X154703015Y-73702188D01*
X154683532Y-73690081D01*
X154664022Y-73671680D01*
X154642062Y-73647617D01*
X154642018Y-73647569D01*
X154614835Y-73615396D01*
X154595449Y-73588762D01*
X154588055Y-73573429D01*
X154589418Y-73564522D01*
X154595932Y-73552124D01*
X154609380Y-73537362D01*
X154631465Y-73519106D01*
X154663893Y-73496226D01*
X154708366Y-73467588D01*
X154766588Y-73432063D01*
X154840263Y-73388519D01*
X154931095Y-73335826D01*
X155040787Y-73272851D01*
X155210276Y-73173642D01*
X155364824Y-73078082D01*
X155501618Y-72987454D01*
X155622858Y-72900170D01*
X155730743Y-72814645D01*
X155827475Y-72729293D01*
X155915253Y-72642529D01*
X155964303Y-72590045D01*
X156038200Y-72504698D01*
X156098160Y-72425345D01*
X156147635Y-72347251D01*
X156190078Y-72265685D01*
X156202039Y-72239273D01*
X156218791Y-72192951D01*
X156228037Y-72146201D01*
X156232515Y-72087520D01*
X156232986Y-72076222D01*
X156233693Y-72027988D01*
X156230332Y-71992757D01*
X156221439Y-71961785D01*
X156205551Y-71926325D01*
X156193261Y-71904091D01*
X156161480Y-71859739D01*
X156127895Y-71825710D01*
X156114468Y-71814630D01*
X156088877Y-71786727D01*
X156084825Y-71763578D01*
X156102781Y-71741886D01*
X156143217Y-71718353D01*
X156155594Y-71711921D01*
X156198561Y-71686890D01*
X156248667Y-71654930D01*
X156297446Y-71621368D01*
X156308060Y-71613739D01*
X156347480Y-71586014D01*
X156373585Y-71569970D01*
X156391029Y-71563771D01*
X156404463Y-71565578D01*
G37*
G36*
X158614746Y-75018171D02*
G01*
X158634147Y-75030637D01*
X158639159Y-75054009D01*
X158629857Y-75090910D01*
X158606315Y-75143963D01*
X158596771Y-75164415D01*
X158575105Y-75215644D01*
X158549942Y-75279671D01*
X158523682Y-75350309D01*
X158498726Y-75421370D01*
X158491407Y-75442876D01*
X158461159Y-75529802D01*
X158435045Y-75599174D01*
X158410682Y-75655011D01*
X158385689Y-75701333D01*
X158357684Y-75742160D01*
X158324285Y-75781510D01*
X158283110Y-75823404D01*
X158231777Y-75871860D01*
X158219941Y-75882833D01*
X158059919Y-76029699D01*
X157883448Y-76189143D01*
X157692510Y-76359463D01*
X157489083Y-76538956D01*
X157275148Y-76725921D01*
X157052684Y-76918655D01*
X156823672Y-77115457D01*
X156590091Y-77314625D01*
X156353923Y-77514456D01*
X156117145Y-77713249D01*
X155881740Y-77909301D01*
X155649685Y-78100911D01*
X155422963Y-78286376D01*
X155363345Y-78334904D01*
X155276130Y-78405956D01*
X155204663Y-78464348D01*
X155147375Y-78511453D01*
X155102698Y-78548645D01*
X155069066Y-78577295D01*
X155044909Y-78598776D01*
X155028661Y-78614461D01*
X155018752Y-78625723D01*
X155013616Y-78633934D01*
X155011684Y-78640466D01*
X155011389Y-78646693D01*
X155012626Y-78654576D01*
X155019748Y-78663896D01*
X155035128Y-78671057D01*
X155060945Y-78676222D01*
X155099374Y-78679558D01*
X155152592Y-78681230D01*
X155222777Y-78681403D01*
X155312105Y-78680241D01*
X155422753Y-78677911D01*
X155469821Y-78676716D01*
X155671831Y-78669789D01*
X155890040Y-78659720D01*
X156120838Y-78646807D01*
X156360614Y-78631347D01*
X156605758Y-78613639D01*
X156852658Y-78593979D01*
X157097704Y-78572665D01*
X157337285Y-78549995D01*
X157567791Y-78526265D01*
X157785611Y-78501774D01*
X157987134Y-78476818D01*
X158168750Y-78451695D01*
X158190900Y-78448409D01*
X158280042Y-78434384D01*
X158350049Y-78421437D01*
X158404418Y-78408440D01*
X158446648Y-78394265D01*
X158480235Y-78377783D01*
X158508678Y-78357866D01*
X158535475Y-78333384D01*
X158548323Y-78320940D01*
X158585036Y-78291441D01*
X158610051Y-78281942D01*
X158622731Y-78292121D01*
X158622442Y-78321657D01*
X158608547Y-78370231D01*
X158606260Y-78376688D01*
X158593551Y-78414466D01*
X158576486Y-78467143D01*
X158557016Y-78528639D01*
X158537093Y-78592872D01*
X158486839Y-78756717D01*
X158251359Y-78952308D01*
X158150670Y-79035681D01*
X157976706Y-79178672D01*
X157792365Y-79329015D01*
X157599677Y-79485108D01*
X157400672Y-79645348D01*
X157197379Y-79808132D01*
X156991829Y-79971858D01*
X156786051Y-80134922D01*
X156582076Y-80295721D01*
X156381933Y-80452654D01*
X156187652Y-80604116D01*
X156001263Y-80748506D01*
X155824797Y-80884220D01*
X155660282Y-81009655D01*
X155509750Y-81123210D01*
X155375229Y-81223280D01*
X155337803Y-81250764D01*
X155229193Y-81329316D01*
X155121010Y-81405890D01*
X155015865Y-81478732D01*
X154916370Y-81546089D01*
X154825137Y-81606207D01*
X154744776Y-81657333D01*
X154677901Y-81697714D01*
X154627121Y-81725595D01*
X154533815Y-81772508D01*
X154463921Y-81756016D01*
X154439500Y-81750483D01*
X154387482Y-81739387D01*
X154326532Y-81726960D01*
X154265336Y-81714996D01*
X154237385Y-81709506D01*
X154167232Y-81693464D01*
X154114583Y-81676899D01*
X154074965Y-81658213D01*
X154043903Y-81635806D01*
X154040683Y-81632906D01*
X154027500Y-81616454D01*
X154030389Y-81604757D01*
X154051195Y-81597057D01*
X154091764Y-81592595D01*
X154153943Y-81590613D01*
X154266665Y-81583552D01*
X154370509Y-81563981D01*
X154426850Y-81546426D01*
X154520026Y-81509574D01*
X154628865Y-81459027D01*
X154751946Y-81395558D01*
X154887849Y-81319936D01*
X155035154Y-81232932D01*
X155192440Y-81135318D01*
X155358287Y-81027865D01*
X155446492Y-80969116D01*
X155650277Y-80830356D01*
X155866759Y-80679199D01*
X156092748Y-80518034D01*
X156325053Y-80349249D01*
X156560483Y-80175233D01*
X156795848Y-79998374D01*
X157027958Y-79821060D01*
X157253622Y-79645682D01*
X157469648Y-79474625D01*
X157672847Y-79310280D01*
X157860029Y-79155035D01*
X157927594Y-79097884D01*
X157998821Y-79036530D01*
X158053956Y-78987205D01*
X158094295Y-78948440D01*
X158121139Y-78918769D01*
X158135784Y-78896722D01*
X158139529Y-78880832D01*
X158133674Y-78869631D01*
X158119516Y-78861650D01*
X158119466Y-78861631D01*
X158112376Y-78860228D01*
X158099366Y-78859424D01*
X158079462Y-78859284D01*
X158051690Y-78859873D01*
X158015075Y-78861254D01*
X157968644Y-78863492D01*
X157911422Y-78866652D01*
X157842436Y-78870797D01*
X157760711Y-78875993D01*
X157665274Y-78882303D01*
X157555150Y-78889793D01*
X157429366Y-78898526D01*
X157286947Y-78908566D01*
X157126920Y-78919979D01*
X156948310Y-78932829D01*
X156750144Y-78947179D01*
X156531447Y-78963095D01*
X156291245Y-78980640D01*
X156028564Y-78999880D01*
X155925285Y-79007644D01*
X155782690Y-79018883D01*
X155633700Y-79031139D01*
X155482049Y-79044075D01*
X155331467Y-79057357D01*
X155185686Y-79070647D01*
X155048438Y-79083611D01*
X154923455Y-79095912D01*
X154814467Y-79107215D01*
X154725207Y-79117183D01*
X154676816Y-79122775D01*
X154613243Y-79129811D01*
X154559354Y-79135416D01*
X154519702Y-79139123D01*
X154498842Y-79140463D01*
X154494797Y-79140329D01*
X154474434Y-79130961D01*
X154471826Y-79107538D01*
X154486801Y-79071067D01*
X154519184Y-79022554D01*
X154554538Y-78972298D01*
X154588090Y-78910178D01*
X154610423Y-78843937D01*
X154625476Y-78763996D01*
X154628992Y-78739871D01*
X154635987Y-78700797D01*
X154643616Y-78677514D01*
X154654038Y-78664782D01*
X154669410Y-78657363D01*
X154692429Y-78648524D01*
X154730594Y-78630905D01*
X154774741Y-78607039D01*
X154826424Y-78575877D01*
X154887197Y-78536372D01*
X154958615Y-78487476D01*
X155042230Y-78428142D01*
X155139598Y-78357321D01*
X155252271Y-78273966D01*
X155381805Y-78177029D01*
X155492260Y-78093118D01*
X155632696Y-77984444D01*
X155784503Y-77865180D01*
X155944363Y-77738018D01*
X156108964Y-77605655D01*
X156274989Y-77470785D01*
X156439124Y-77336102D01*
X156598054Y-77204301D01*
X156748463Y-77078077D01*
X156887038Y-76960123D01*
X157010463Y-76853136D01*
X157086326Y-76786258D01*
X157208050Y-76677474D01*
X157327356Y-76569109D01*
X157442970Y-76462418D01*
X157553618Y-76358658D01*
X157658027Y-76259083D01*
X157754923Y-76164949D01*
X157843032Y-76077510D01*
X157921081Y-75998023D01*
X157987795Y-75927743D01*
X158041901Y-75867924D01*
X158082125Y-75819822D01*
X158107194Y-75784693D01*
X158115833Y-75763791D01*
X158114244Y-75759521D01*
X158105546Y-75755854D01*
X158087748Y-75755419D01*
X158059141Y-75758550D01*
X158018016Y-75765577D01*
X157962665Y-75776833D01*
X157891379Y-75792650D01*
X157802450Y-75813358D01*
X157694168Y-75839290D01*
X157564825Y-75870778D01*
X157433048Y-75902984D01*
X157106493Y-75982337D01*
X156802217Y-76055576D01*
X156519927Y-76122765D01*
X156259329Y-76183966D01*
X156020130Y-76239245D01*
X155802036Y-76288663D01*
X155604753Y-76332284D01*
X155427987Y-76370171D01*
X155271446Y-76402389D01*
X155134834Y-76428999D01*
X155017860Y-76450066D01*
X154920228Y-76465653D01*
X154841646Y-76475824D01*
X154781820Y-76480641D01*
X154740456Y-76480168D01*
X154701773Y-76473042D01*
X154646211Y-76446205D01*
X154605585Y-76401905D01*
X154580759Y-76341244D01*
X154572592Y-76265324D01*
X154572747Y-76258677D01*
X154575377Y-76231080D01*
X154581702Y-76195093D01*
X154592318Y-76148388D01*
X154607821Y-76088635D01*
X154628807Y-76013504D01*
X154655872Y-75920665D01*
X154689612Y-75807789D01*
X154703768Y-75760942D01*
X154735176Y-75658302D01*
X154761254Y-75575761D01*
X154782769Y-75511509D01*
X154800491Y-75463734D01*
X154815189Y-75430627D01*
X154827631Y-75410376D01*
X154838586Y-75401173D01*
X154848823Y-75401206D01*
X154859111Y-75408666D01*
X154859247Y-75408805D01*
X154864367Y-75424043D01*
X154860763Y-75453111D01*
X154847971Y-75499817D01*
X154847662Y-75500821D01*
X154833988Y-75553368D01*
X154821217Y-75615758D01*
X154812077Y-75674702D01*
X154807257Y-75731115D01*
X154810204Y-75807311D01*
X154826882Y-75866281D01*
X154857816Y-75909538D01*
X154903530Y-75938597D01*
X154905733Y-75939504D01*
X154925132Y-75945661D01*
X154949980Y-75949851D01*
X154983885Y-75952225D01*
X155030455Y-75952934D01*
X155093297Y-75952128D01*
X155176018Y-75949957D01*
X155249326Y-75947386D01*
X155340132Y-75942860D01*
X155429188Y-75936613D01*
X155520640Y-75928209D01*
X155618631Y-75917215D01*
X155727306Y-75903196D01*
X155850810Y-75885718D01*
X155993287Y-75864347D01*
X156019371Y-75860326D01*
X156259858Y-75820632D01*
X156513952Y-75774376D01*
X156776357Y-75722706D01*
X157041775Y-75666770D01*
X157304910Y-75607718D01*
X157560463Y-75546696D01*
X157803138Y-75484853D01*
X158027639Y-75423339D01*
X158044643Y-75418484D01*
X158149338Y-75388265D01*
X158234377Y-75362518D01*
X158302397Y-75339688D01*
X158356030Y-75318222D01*
X158397912Y-75296566D01*
X158430677Y-75273166D01*
X158456960Y-75246469D01*
X158479396Y-75214921D01*
X158500620Y-75176969D01*
X158523265Y-75131058D01*
X158535185Y-75106544D01*
X158558842Y-75060812D01*
X158576553Y-75032473D01*
X158590445Y-75018435D01*
X158602641Y-75015608D01*
X158614746Y-75018171D01*
G37*
G36*
X160332170Y-59846762D02*
G01*
X160347267Y-59862479D01*
X160364556Y-59886603D01*
X160372010Y-59913612D01*
X160373611Y-59953787D01*
X160367468Y-60009509D01*
X160345910Y-60087329D01*
X160310220Y-60177433D01*
X160261833Y-60277587D01*
X160202185Y-60385559D01*
X160132710Y-60499116D01*
X160054845Y-60616027D01*
X159970024Y-60734058D01*
X159879684Y-60850978D01*
X159785259Y-60964553D01*
X159688184Y-61072551D01*
X159589896Y-61172739D01*
X159570712Y-61191140D01*
X159518920Y-61238729D01*
X159462449Y-61287553D01*
X159400309Y-61338254D01*
X159331512Y-61391474D01*
X159255066Y-61447853D01*
X159169982Y-61508034D01*
X159075271Y-61572658D01*
X158969942Y-61642366D01*
X158853006Y-61717801D01*
X158723473Y-61799602D01*
X158580353Y-61888412D01*
X158422656Y-61984873D01*
X158249393Y-62089626D01*
X158059574Y-62203312D01*
X157852208Y-62326572D01*
X157626307Y-62460049D01*
X157380879Y-62604384D01*
X157306766Y-62648068D01*
X157192179Y-62716177D01*
X157072081Y-62788138D01*
X156951645Y-62860823D01*
X156921173Y-62879350D01*
X156836045Y-62931109D01*
X156730454Y-62995868D01*
X156640046Y-63051975D01*
X156594097Y-63080613D01*
X156435955Y-63177613D01*
X156273977Y-63274748D01*
X156112801Y-63369317D01*
X155957063Y-63458620D01*
X155811402Y-63539958D01*
X155680454Y-63610630D01*
X155657202Y-63623021D01*
X155614563Y-63646999D01*
X155578520Y-63670166D01*
X155544557Y-63696135D01*
X155508159Y-63728518D01*
X155464809Y-63770929D01*
X155409991Y-63826978D01*
X155269973Y-63977156D01*
X155126746Y-64145784D01*
X155005461Y-64307023D01*
X154906160Y-64460804D01*
X154828883Y-64607057D01*
X154773670Y-64745713D01*
X154740562Y-64876701D01*
X154729598Y-64999953D01*
X154735189Y-65074122D01*
X154755274Y-65141057D01*
X154790972Y-65191414D01*
X154843328Y-65226160D01*
X154913386Y-65246264D01*
X155002191Y-65252695D01*
X155046897Y-65251322D01*
X155132881Y-65241336D01*
X155226308Y-65220876D01*
X155331153Y-65188986D01*
X155451391Y-65144711D01*
X155456206Y-65142811D01*
X155549253Y-65103670D01*
X155658595Y-65053778D01*
X155780852Y-64994865D01*
X155912642Y-64928656D01*
X156050585Y-64856881D01*
X156191299Y-64781267D01*
X156331404Y-64703542D01*
X156467519Y-64625433D01*
X156777121Y-64444493D01*
X156831227Y-64352664D01*
X156918529Y-64352664D01*
X156925640Y-64354089D01*
X156943981Y-64343700D01*
X156950490Y-64339545D01*
X156976304Y-64323303D01*
X157019033Y-64296534D01*
X157076758Y-64260439D01*
X157147559Y-64216216D01*
X157229516Y-64165063D01*
X157320709Y-64108181D01*
X157419218Y-64046767D01*
X157523124Y-63982021D01*
X157685354Y-63880860D01*
X157901402Y-63745760D01*
X158099594Y-63621282D01*
X158281267Y-63506517D01*
X158447761Y-63400561D01*
X158600413Y-63302504D01*
X158740562Y-63211440D01*
X158869546Y-63126463D01*
X158988703Y-63046665D01*
X159099372Y-62971138D01*
X159202891Y-62898977D01*
X159300598Y-62829273D01*
X159393832Y-62761121D01*
X159483930Y-62693611D01*
X159572232Y-62625839D01*
X159660075Y-62556896D01*
X159748798Y-62485875D01*
X159839739Y-62411870D01*
X159898190Y-62362638D01*
X159984223Y-62283532D01*
X160050183Y-62212998D01*
X160095658Y-62151494D01*
X160120236Y-62099481D01*
X160129580Y-62053775D01*
X160125494Y-62005805D01*
X160102771Y-61970638D01*
X160061101Y-61948125D01*
X160000170Y-61938114D01*
X159919669Y-61940459D01*
X159819285Y-61955007D01*
X159781276Y-61962592D01*
X159609557Y-62008077D01*
X159429019Y-62072923D01*
X159241352Y-62155925D01*
X159048245Y-62255879D01*
X158851388Y-62371579D01*
X158652471Y-62501822D01*
X158453184Y-62645403D01*
X158255216Y-62801116D01*
X158060256Y-62967758D01*
X157869994Y-63144124D01*
X157686121Y-63329009D01*
X157510325Y-63521209D01*
X157344297Y-63719519D01*
X157318642Y-63752205D01*
X157259208Y-63831144D01*
X157194187Y-63920980D01*
X157127646Y-64015870D01*
X157063652Y-64109968D01*
X157006270Y-64197432D01*
X156959568Y-64272418D01*
X156939836Y-64305950D01*
X156923108Y-64337319D01*
X156918529Y-64352664D01*
X156831227Y-64352664D01*
X156855983Y-64310649D01*
X157032464Y-64031535D01*
X157231170Y-63754863D01*
X157449284Y-63483848D01*
X157684784Y-63220346D01*
X157935650Y-62966213D01*
X158199863Y-62723307D01*
X158475402Y-62493484D01*
X158760247Y-62278601D01*
X159052378Y-62080515D01*
X159349774Y-61901083D01*
X159650416Y-61742162D01*
X159714936Y-61710871D01*
X159823524Y-61660535D01*
X159916676Y-61621068D01*
X159997345Y-61591430D01*
X160068485Y-61570583D01*
X160133052Y-61557489D01*
X160193998Y-61551110D01*
X160290728Y-61545691D01*
X160332170Y-61587133D01*
X160347267Y-61602849D01*
X160364556Y-61626973D01*
X160372010Y-61653983D01*
X160373611Y-61694157D01*
X160369627Y-61739944D01*
X160350065Y-61818929D01*
X160315546Y-61910000D01*
X160267588Y-62011009D01*
X160207713Y-62119806D01*
X160137439Y-62234243D01*
X160058285Y-62352171D01*
X159971770Y-62471441D01*
X159879415Y-62589904D01*
X159782739Y-62705412D01*
X159683260Y-62815814D01*
X159582499Y-62918964D01*
X159481974Y-63012710D01*
X159383206Y-63094906D01*
X159374481Y-63101661D01*
X159303818Y-63154654D01*
X159222371Y-63212881D01*
X159129321Y-63276853D01*
X159023853Y-63347081D01*
X158905147Y-63424073D01*
X158772387Y-63508341D01*
X158624756Y-63600395D01*
X158461435Y-63700745D01*
X158281607Y-63809902D01*
X158084455Y-63928375D01*
X157869162Y-64056676D01*
X157634909Y-64195314D01*
X157380879Y-64344799D01*
X157305702Y-64389115D01*
X157191586Y-64456957D01*
X157072272Y-64528462D01*
X156952871Y-64600541D01*
X156925640Y-64617103D01*
X156838492Y-64670106D01*
X156734249Y-64734069D01*
X156645250Y-64789341D01*
X156554322Y-64845950D01*
X156316354Y-64990813D01*
X156087676Y-65125203D01*
X155871115Y-65247477D01*
X155669500Y-65355993D01*
X155486824Y-65451576D01*
X155281142Y-65660857D01*
X155184624Y-65760375D01*
X155069071Y-65884138D01*
X154969148Y-65997513D01*
X154883114Y-66102758D01*
X154809227Y-66202131D01*
X154745744Y-66297887D01*
X154690923Y-66392285D01*
X154643022Y-66487582D01*
X154616516Y-66547783D01*
X154583326Y-66641842D01*
X154566467Y-66724030D01*
X154565479Y-66797098D01*
X154579900Y-66863796D01*
X154604340Y-66904480D01*
X154647606Y-66935035D01*
X154706227Y-66951573D01*
X154777624Y-66952930D01*
X154782730Y-66952462D01*
X154862508Y-66939686D01*
X154958806Y-66915639D01*
X155068322Y-66881251D01*
X155187753Y-66837452D01*
X155216519Y-66825709D01*
X155282062Y-66796880D01*
X155363303Y-66759239D01*
X155457080Y-66714370D01*
X155560234Y-66663855D01*
X155669604Y-66609277D01*
X155782029Y-66552221D01*
X155894349Y-66494269D01*
X156003404Y-66437003D01*
X156106032Y-66382008D01*
X156199074Y-66330866D01*
X156440139Y-66196262D01*
X156437107Y-66097876D01*
X156436907Y-66091994D01*
X156433480Y-66035335D01*
X156427895Y-65979654D01*
X156421255Y-65936221D01*
X156414793Y-65897409D01*
X156415349Y-65874870D01*
X156423221Y-65863813D01*
X156440745Y-65857443D01*
X156462510Y-65866786D01*
X156479721Y-65898549D01*
X156492488Y-65952970D01*
X156500923Y-66030290D01*
X156502722Y-66052752D01*
X156507524Y-66096360D01*
X156512819Y-66127767D01*
X156517751Y-66141329D01*
X156525578Y-66140082D01*
X156549509Y-66128969D01*
X156583934Y-66109769D01*
X156623727Y-66085622D01*
X156663763Y-66059668D01*
X156698916Y-66035050D01*
X156724060Y-66014907D01*
X156743799Y-66001758D01*
X156755877Y-66002520D01*
X156755466Y-66016244D01*
X156749210Y-66047966D01*
X156738080Y-66092638D01*
X156723190Y-66145402D01*
X156717488Y-66164290D01*
X156694982Y-66230593D01*
X156672187Y-66279959D01*
X156645726Y-66317438D01*
X156612218Y-66348081D01*
X156568285Y-66376937D01*
X156520042Y-66405387D01*
X156513095Y-66508180D01*
X156509685Y-66547532D01*
X156482029Y-66702524D01*
X156431413Y-66860902D01*
X156357782Y-67022800D01*
X156261077Y-67188350D01*
X156141240Y-67357685D01*
X156125614Y-67379151D01*
X156080951Y-67450775D01*
X156036113Y-67535680D01*
X155994456Y-67626723D01*
X155959333Y-67716762D01*
X155934099Y-67798657D01*
X155910249Y-67910784D01*
X155896567Y-68042671D01*
X155901656Y-68165740D01*
X155925704Y-68283231D01*
X155968899Y-68398379D01*
X155984652Y-68429160D01*
X156028535Y-68496461D01*
X156082170Y-68561670D01*
X156139728Y-68618080D01*
X156195381Y-68658986D01*
X156241923Y-68682580D01*
X156312341Y-68708947D01*
X156383486Y-68726892D01*
X156445626Y-68733518D01*
X156462633Y-68734190D01*
X156501012Y-68742428D01*
X156523538Y-68758368D01*
X156526505Y-68779886D01*
X156517560Y-68796339D01*
X156493495Y-68828125D01*
X156459829Y-68866748D01*
X156421243Y-68907334D01*
X156382416Y-68945007D01*
X156348026Y-68974894D01*
X156322754Y-68992121D01*
X156302310Y-69001707D01*
X156277474Y-69009578D01*
X156254463Y-69007459D01*
X156221529Y-68995776D01*
X156210817Y-68992308D01*
X156166603Y-68984178D01*
X156105452Y-68978488D01*
X156032126Y-68975238D01*
X155951391Y-68974431D01*
X155868011Y-68976067D01*
X155786749Y-68980146D01*
X155712371Y-68986671D01*
X155649639Y-68995643D01*
X155592405Y-69007439D01*
X155462815Y-69041725D01*
X155332309Y-69085421D01*
X155212640Y-69134787D01*
X155182608Y-69149105D01*
X155081602Y-69204226D01*
X154989366Y-69265153D01*
X154907092Y-69330187D01*
X154835972Y-69397627D01*
X154777196Y-69465774D01*
X154731956Y-69532928D01*
X154701444Y-69597389D01*
X154686850Y-69657456D01*
X154689366Y-69711429D01*
X154710183Y-69757609D01*
X154750493Y-69794295D01*
X154761812Y-69800362D01*
X154812092Y-69815293D01*
X154877848Y-69822119D01*
X154954005Y-69820844D01*
X155035488Y-69811473D01*
X155117222Y-69794008D01*
X155145792Y-69786147D01*
X155247981Y-69755685D01*
X155362867Y-69718547D01*
X155483827Y-69677046D01*
X155604235Y-69633499D01*
X155717467Y-69590219D01*
X155816898Y-69549522D01*
X155897866Y-69513653D01*
X156006246Y-69463078D01*
X156130187Y-69403095D01*
X156267186Y-69335026D01*
X156414737Y-69260193D01*
X156570334Y-69179918D01*
X156731474Y-69095525D01*
X156895651Y-69008334D01*
X157060359Y-68919669D01*
X157223096Y-68830851D01*
X157381354Y-68743203D01*
X157532629Y-68658047D01*
X157674417Y-68576705D01*
X157804213Y-68500500D01*
X157810358Y-68496840D01*
X158020477Y-68369833D01*
X158225068Y-68242578D01*
X158422185Y-68116402D01*
X158609878Y-67992630D01*
X158786199Y-67872588D01*
X158949200Y-67757602D01*
X159096932Y-67648998D01*
X159227447Y-67548101D01*
X159338796Y-67456239D01*
X159445715Y-67359462D01*
X159581637Y-67221029D01*
X159705731Y-67076462D01*
X159815935Y-66928581D01*
X159910190Y-66780203D01*
X159986436Y-66634149D01*
X160042612Y-66493236D01*
X160070260Y-66395047D01*
X160090838Y-66279339D01*
X160100868Y-66152930D01*
X160101013Y-66010354D01*
X160099584Y-65967972D01*
X160095870Y-65903798D01*
X160089237Y-65854677D01*
X160077838Y-65815091D01*
X160059828Y-65779524D01*
X160033360Y-65742459D01*
X159996586Y-65698379D01*
X159984847Y-65684520D01*
X159960077Y-65652023D01*
X159950147Y-65631265D01*
X159953291Y-65619004D01*
X159957952Y-65616228D01*
X159985244Y-65610448D01*
X160032650Y-65606816D01*
X160097771Y-65605555D01*
X160149218Y-65605947D01*
X160194686Y-65607966D01*
X160227712Y-65612530D01*
X160254343Y-65620543D01*
X160280627Y-65632909D01*
X160300570Y-65644448D01*
X160359026Y-65694517D01*
X160400033Y-65759026D01*
X160423730Y-65837091D01*
X160430253Y-65927833D01*
X160419739Y-66030369D01*
X160392325Y-66143818D01*
X160348149Y-66267298D01*
X160287347Y-66399929D01*
X160210056Y-66540828D01*
X160116414Y-66689113D01*
X160099799Y-66713678D01*
X159952170Y-66916743D01*
X159786398Y-67119224D01*
X159601770Y-67321806D01*
X159397572Y-67525173D01*
X159173089Y-67730008D01*
X158927608Y-67936993D01*
X158660414Y-68146814D01*
X158370795Y-68360152D01*
X158294744Y-68414115D01*
X158024528Y-68599729D01*
X157737623Y-68788129D01*
X157438624Y-68976569D01*
X157132130Y-69162301D01*
X156822735Y-69342576D01*
X156515038Y-69514649D01*
X156213634Y-69675770D01*
X155923121Y-69823193D01*
X155641288Y-69962012D01*
X155446300Y-70156214D01*
X155384402Y-70218990D01*
X155254338Y-70359108D01*
X155137420Y-70496849D01*
X155034459Y-70630892D01*
X154946264Y-70759913D01*
X154873647Y-70882592D01*
X154817418Y-70997606D01*
X154778388Y-71103633D01*
X154757367Y-71199351D01*
X154755165Y-71283438D01*
X154758992Y-71311698D01*
X154777802Y-71372378D01*
X154810190Y-71417376D01*
X154856796Y-71446781D01*
X154918262Y-71460683D01*
X154995230Y-71459171D01*
X155088341Y-71442336D01*
X155198237Y-71410266D01*
X155325560Y-71363050D01*
X155357988Y-71349713D01*
X155468435Y-71300768D01*
X155592478Y-71241314D01*
X155725850Y-71173604D01*
X155864285Y-71099895D01*
X156003517Y-71022442D01*
X156139279Y-70943498D01*
X156267304Y-70865319D01*
X156276945Y-70859305D01*
X156346960Y-70818677D01*
X156400398Y-70794242D01*
X156437873Y-70786201D01*
X156460001Y-70794755D01*
X156467398Y-70820107D01*
X156460679Y-70862457D01*
X156440460Y-70922008D01*
X156421672Y-70965058D01*
X156396953Y-71013186D01*
X156374019Y-71050219D01*
X156369004Y-71056570D01*
X156336356Y-71088223D01*
X156285643Y-71128475D01*
X156219308Y-71175913D01*
X156139793Y-71229124D01*
X156049540Y-71286693D01*
X155950990Y-71347209D01*
X155846587Y-71409256D01*
X155738773Y-71471423D01*
X155629990Y-71532295D01*
X155522680Y-71590459D01*
X155419285Y-71644501D01*
X155322248Y-71693009D01*
X155234010Y-71734569D01*
X155157015Y-71767767D01*
X155093703Y-71791189D01*
X155040199Y-71805520D01*
X154968038Y-71816895D01*
X154898721Y-71819907D01*
X154838555Y-71814368D01*
X154793842Y-71800092D01*
X154744003Y-71764044D01*
X154694912Y-71708869D01*
X154657099Y-71643935D01*
X154647937Y-71619056D01*
X154634433Y-71552151D01*
X154629238Y-71471143D01*
X154632285Y-71381389D01*
X154643503Y-71288249D01*
X154662825Y-71197083D01*
X154685947Y-71120700D01*
X154743329Y-70979300D01*
X154821458Y-70831546D01*
X154920588Y-70677056D01*
X155040973Y-70515447D01*
X155182868Y-70346337D01*
X155346527Y-70169345D01*
X155386043Y-70127812D01*
X155423552Y-70087071D01*
X155451137Y-70055559D01*
X155466607Y-70035789D01*
X155467773Y-70030272D01*
X155363351Y-70066577D01*
X155211931Y-70111740D01*
X155077643Y-70141609D01*
X154960023Y-70156166D01*
X154858608Y-70155396D01*
X154772931Y-70139280D01*
X154702530Y-70107802D01*
X154646939Y-70060945D01*
X154605694Y-69998692D01*
X154580031Y-69932155D01*
X154567418Y-69853135D01*
X154573274Y-69769050D01*
X154597839Y-69677056D01*
X154641352Y-69574305D01*
X154721735Y-69435529D01*
X154823205Y-69306760D01*
X154944858Y-69189456D01*
X155086272Y-69084083D01*
X155087131Y-69083519D01*
X155236689Y-68994708D01*
X155387763Y-68924464D01*
X155544988Y-68871215D01*
X155713000Y-68833391D01*
X155896433Y-68809419D01*
X155975969Y-68802167D01*
X155927463Y-68747264D01*
X155905088Y-68720659D01*
X155835753Y-68615558D01*
X155787377Y-68500034D01*
X155786723Y-68497925D01*
X155768421Y-68407714D01*
X155762981Y-68301759D01*
X155769890Y-68183562D01*
X155788636Y-68056621D01*
X155818706Y-67924436D01*
X155859586Y-67790510D01*
X155910763Y-67658340D01*
X155930720Y-67612097D01*
X155846639Y-67687738D01*
X155759289Y-67763996D01*
X155606757Y-67886104D01*
X155456610Y-67992462D01*
X155310340Y-68082261D01*
X155169437Y-68154690D01*
X155035393Y-68208940D01*
X154909698Y-68244200D01*
X154815475Y-68256775D01*
X154793842Y-68259662D01*
X154772678Y-68260600D01*
X154726397Y-68261426D01*
X154694712Y-68258880D01*
X154671111Y-68252085D01*
X154649084Y-68240164D01*
X154640139Y-68234034D01*
X154602809Y-68192355D01*
X154582053Y-68136480D01*
X154577803Y-68068438D01*
X154589990Y-67990254D01*
X154618548Y-67903957D01*
X154635836Y-67868353D01*
X154746747Y-67868353D01*
X154752164Y-67899008D01*
X154774995Y-67916544D01*
X154815475Y-67922129D01*
X154830110Y-67921726D01*
X154903562Y-67911070D01*
X154991416Y-67887027D01*
X155090788Y-67851063D01*
X155198791Y-67804642D01*
X155312542Y-67749228D01*
X155429154Y-67686287D01*
X155545743Y-67617284D01*
X155659422Y-67543683D01*
X155767308Y-67466948D01*
X155866515Y-67388545D01*
X155930772Y-67332116D01*
X156002224Y-67264863D01*
X156074531Y-67192973D01*
X156142920Y-67121318D01*
X156202618Y-67054770D01*
X156248853Y-66998202D01*
X156314054Y-66902362D01*
X156369658Y-66800374D01*
X156410005Y-66702140D01*
X156416425Y-66681044D01*
X156427761Y-66636088D01*
X156438357Y-66585850D01*
X156447251Y-66535956D01*
X156453479Y-66492033D01*
X156456078Y-66459709D01*
X156454085Y-66444610D01*
X156451447Y-66444861D01*
X156431997Y-66453355D01*
X156396072Y-66471716D01*
X156346295Y-66498445D01*
X156285292Y-66532042D01*
X156215685Y-66571007D01*
X156140101Y-66613841D01*
X156061163Y-66659044D01*
X155981496Y-66705116D01*
X155903724Y-66750558D01*
X155830472Y-66793870D01*
X155764364Y-66833552D01*
X155708026Y-66868105D01*
X155664080Y-66896029D01*
X155645696Y-66908087D01*
X155554787Y-66969274D01*
X155476343Y-67025504D01*
X155403442Y-67082113D01*
X155329160Y-67144438D01*
X155246574Y-67217814D01*
X155234723Y-67228652D01*
X155160484Y-67300588D01*
X155084002Y-67380844D01*
X155008605Y-67465456D01*
X154937620Y-67550462D01*
X154874376Y-67631898D01*
X154822200Y-67705801D01*
X154784420Y-67768208D01*
X154758508Y-67823411D01*
X154746747Y-67868353D01*
X154635836Y-67868353D01*
X154663408Y-67811572D01*
X154665461Y-67807917D01*
X154729523Y-67706068D01*
X154810524Y-67596127D01*
X154905250Y-67481788D01*
X155010490Y-67366742D01*
X155123031Y-67254682D01*
X155239660Y-67149298D01*
X155246537Y-67143400D01*
X155292240Y-67104104D01*
X155332470Y-67069345D01*
X155363093Y-67042703D01*
X155379973Y-67027762D01*
X155381513Y-67026016D01*
X155374510Y-67026292D01*
X155350527Y-67035583D01*
X155312660Y-67052600D01*
X155264006Y-67076053D01*
X155161757Y-67123526D01*
X155042081Y-67170756D01*
X154930443Y-67205578D01*
X154829362Y-67227346D01*
X154741358Y-67235412D01*
X154668950Y-67229127D01*
X154660189Y-67227163D01*
X154579348Y-67198846D01*
X154516963Y-67156004D01*
X154472900Y-67098516D01*
X154447025Y-67026259D01*
X154442392Y-66988892D01*
X154440454Y-66938650D01*
X154441698Y-66886822D01*
X154454851Y-66785649D01*
X154490894Y-66653127D01*
X154548665Y-66512706D01*
X154628020Y-66364628D01*
X154728812Y-66209132D01*
X154850896Y-66046461D01*
X154994127Y-65876856D01*
X155158358Y-65700556D01*
X155181459Y-65676675D01*
X155228578Y-65627022D01*
X155267107Y-65585091D01*
X155295056Y-65553129D01*
X155310434Y-65533381D01*
X155311250Y-65528095D01*
X155273539Y-65542163D01*
X155195308Y-65569644D01*
X155131051Y-65588954D01*
X155075580Y-65601344D01*
X155023703Y-65608066D01*
X154970231Y-65610373D01*
X154919761Y-65609959D01*
X154875636Y-65606310D01*
X154839512Y-65597989D01*
X154803088Y-65583669D01*
X154763886Y-65562457D01*
X154699595Y-65510447D01*
X154648559Y-65445906D01*
X154615896Y-65374550D01*
X154608653Y-65343856D01*
X154600116Y-65276982D01*
X154596536Y-65198445D01*
X154597918Y-65115409D01*
X154604269Y-65035037D01*
X154615592Y-64964493D01*
X154634502Y-64889864D01*
X154687555Y-64738311D01*
X154761436Y-64579730D01*
X154855476Y-64415241D01*
X154969006Y-64245966D01*
X155101358Y-64073027D01*
X155251862Y-63897546D01*
X155376678Y-63759398D01*
X155314566Y-63784493D01*
X155231321Y-63816702D01*
X155157246Y-63841419D01*
X155092818Y-63857558D01*
X155032369Y-63866523D01*
X154970231Y-63869716D01*
X154917271Y-63869375D01*
X154874244Y-63865725D01*
X154838700Y-63857365D01*
X154802316Y-63842966D01*
X154759569Y-63819143D01*
X154697293Y-63766687D01*
X154647276Y-63702055D01*
X154615146Y-63631600D01*
X154607276Y-63596862D01*
X154599532Y-63530520D01*
X154596522Y-63452932D01*
X154598234Y-63371151D01*
X154604658Y-63292227D01*
X154615784Y-63223211D01*
X154617706Y-63214566D01*
X154662458Y-63061981D01*
X154728738Y-62903024D01*
X154815806Y-62738707D01*
X154922922Y-62570040D01*
X155049347Y-62398033D01*
X155194340Y-62223697D01*
X155357161Y-62048043D01*
X155537071Y-61872080D01*
X155733331Y-61696820D01*
X155755978Y-61677818D01*
X155805192Y-61639650D01*
X155842442Y-61615705D01*
X155865622Y-61607407D01*
X155882174Y-61608339D01*
X155892025Y-61612210D01*
X155893625Y-61620590D01*
X155885624Y-61635050D01*
X155866676Y-61657162D01*
X155835434Y-61688494D01*
X155790549Y-61730619D01*
X155730675Y-61785106D01*
X155654463Y-61853527D01*
X155543592Y-61955323D01*
X155357481Y-62140009D01*
X155193909Y-62321830D01*
X155053048Y-62500576D01*
X154935069Y-62676039D01*
X154840144Y-62848009D01*
X154802652Y-62931598D01*
X154764329Y-63040387D01*
X154739893Y-63143191D01*
X154729568Y-63237582D01*
X154733575Y-63321135D01*
X154752135Y-63391423D01*
X154785471Y-63446022D01*
X154806788Y-63465265D01*
X154861374Y-63492850D01*
X154932309Y-63508738D01*
X155016806Y-63512684D01*
X155112075Y-63504444D01*
X155215328Y-63483773D01*
X155256722Y-63472376D01*
X155362024Y-63437350D01*
X155483900Y-63389713D01*
X155620640Y-63330280D01*
X155770536Y-63259871D01*
X155931881Y-63179300D01*
X156102965Y-63089387D01*
X156282080Y-62990948D01*
X156467519Y-62884799D01*
X156777121Y-62704122D01*
X156828847Y-62616326D01*
X156915683Y-62616326D01*
X156921173Y-62617420D01*
X156941504Y-62604952D01*
X156947873Y-62600879D01*
X156973697Y-62584604D01*
X157016454Y-62557782D01*
X157074209Y-62521624D01*
X157145028Y-62477339D01*
X157226977Y-62426136D01*
X157318120Y-62369224D01*
X157416522Y-62307814D01*
X157520250Y-62243115D01*
X157610274Y-62186957D01*
X157803135Y-62066464D01*
X157978192Y-61956799D01*
X158137013Y-61856951D01*
X158281167Y-61765912D01*
X158412224Y-61682670D01*
X158531753Y-61606215D01*
X158641324Y-61535536D01*
X158742506Y-61469624D01*
X158836868Y-61407467D01*
X158925979Y-61348056D01*
X159011410Y-61290381D01*
X159094729Y-61233430D01*
X159177506Y-61176194D01*
X159179878Y-61174544D01*
X159279685Y-61103759D01*
X159384157Y-61027246D01*
X159490286Y-60947384D01*
X159595063Y-60866551D01*
X159695482Y-60787125D01*
X159788535Y-60711485D01*
X159871213Y-60642008D01*
X159940509Y-60581073D01*
X159993416Y-60531058D01*
X160036052Y-60487539D01*
X160070482Y-60449464D01*
X160093667Y-60418730D01*
X160108912Y-60390895D01*
X160119523Y-60361514D01*
X160127186Y-60328512D01*
X160127040Y-60275279D01*
X160107502Y-60235174D01*
X160068628Y-60208369D01*
X160058204Y-60204709D01*
X160006590Y-60197041D01*
X159937924Y-60198544D01*
X159855564Y-60208597D01*
X159762872Y-60226576D01*
X159663205Y-60251859D01*
X159559924Y-60283823D01*
X159456389Y-60321845D01*
X159327254Y-60376563D01*
X159094263Y-60491123D01*
X158859567Y-60625919D01*
X158625203Y-60779177D01*
X158393207Y-60949121D01*
X158165615Y-61133978D01*
X157944464Y-61331972D01*
X157731789Y-61541329D01*
X157529628Y-61760274D01*
X157340016Y-61987032D01*
X157164991Y-62219829D01*
X157006587Y-62456889D01*
X157004396Y-62460392D01*
X156973769Y-62509992D01*
X156947614Y-62553490D01*
X156928644Y-62586303D01*
X156919573Y-62603848D01*
X156915683Y-62616326D01*
X156828847Y-62616326D01*
X156855976Y-62570279D01*
X156997426Y-62343566D01*
X157193551Y-62064098D01*
X157409576Y-61790229D01*
X157643557Y-61523755D01*
X157893553Y-61266470D01*
X158157619Y-61020168D01*
X158433814Y-60786645D01*
X158720194Y-60567695D01*
X159014817Y-60365113D01*
X159315739Y-60180692D01*
X159621018Y-60016229D01*
X159686970Y-59983560D01*
X159800935Y-59929673D01*
X159899422Y-59887153D01*
X159985201Y-59855006D01*
X160061043Y-59832239D01*
X160129719Y-59817860D01*
X160193998Y-59810876D01*
X160290728Y-59805321D01*
X160332170Y-59846762D01*
G37*
%TD*%
%LPC*%
D10*
X93703220Y-105399875D02*
X93703220Y-104399875D01*
X93703220Y-104399875D02*
X93369887Y-105114160D01*
X93369887Y-105114160D02*
X93036554Y-104399875D01*
X93036554Y-104399875D02*
X93036554Y-105399875D01*
X92560363Y-105399875D02*
X92560363Y-104733208D01*
X92560363Y-104399875D02*
X92607982Y-104447494D01*
X92607982Y-104447494D02*
X92560363Y-104495113D01*
X92560363Y-104495113D02*
X92512744Y-104447494D01*
X92512744Y-104447494D02*
X92560363Y-104399875D01*
X92560363Y-104399875D02*
X92560363Y-104495113D01*
X92084173Y-105399875D02*
X92084173Y-104733208D01*
X92084173Y-104923684D02*
X92036554Y-104828446D01*
X92036554Y-104828446D02*
X91988935Y-104780827D01*
X91988935Y-104780827D02*
X91893697Y-104733208D01*
X91893697Y-104733208D02*
X91798459Y-104733208D01*
X91465125Y-105399875D02*
X91465125Y-104733208D01*
X91465125Y-104399875D02*
X91512744Y-104447494D01*
X91512744Y-104447494D02*
X91465125Y-104495113D01*
X91465125Y-104495113D02*
X91417506Y-104447494D01*
X91417506Y-104447494D02*
X91465125Y-104399875D01*
X91465125Y-104399875D02*
X91465125Y-104495113D01*
X90988935Y-105399875D02*
X90988935Y-104399875D01*
X90988935Y-104780827D02*
X90893697Y-104733208D01*
X90893697Y-104733208D02*
X90703221Y-104733208D01*
X90703221Y-104733208D02*
X90607983Y-104780827D01*
X90607983Y-104780827D02*
X90560364Y-104828446D01*
X90560364Y-104828446D02*
X90512745Y-104923684D01*
X90512745Y-104923684D02*
X90512745Y-105209398D01*
X90512745Y-105209398D02*
X90560364Y-105304636D01*
X90560364Y-105304636D02*
X90607983Y-105352256D01*
X90607983Y-105352256D02*
X90703221Y-105399875D01*
X90703221Y-105399875D02*
X90893697Y-105399875D01*
X90893697Y-105399875D02*
X90988935Y-105352256D01*
X89655602Y-105399875D02*
X89655602Y-104876065D01*
X89655602Y-104876065D02*
X89703221Y-104780827D01*
X89703221Y-104780827D02*
X89798459Y-104733208D01*
X89798459Y-104733208D02*
X89988935Y-104733208D01*
X89988935Y-104733208D02*
X90084173Y-104780827D01*
X89655602Y-105352256D02*
X89750840Y-105399875D01*
X89750840Y-105399875D02*
X89988935Y-105399875D01*
X89988935Y-105399875D02*
X90084173Y-105352256D01*
X90084173Y-105352256D02*
X90131792Y-105257017D01*
X90131792Y-105257017D02*
X90131792Y-105161779D01*
X90131792Y-105161779D02*
X90084173Y-105066541D01*
X90084173Y-105066541D02*
X89988935Y-105018922D01*
X89988935Y-105018922D02*
X89750840Y-105018922D01*
X89750840Y-105018922D02*
X89655602Y-104971303D01*
X89036554Y-105399875D02*
X89131792Y-105352256D01*
X89131792Y-105352256D02*
X89179411Y-105257017D01*
X89179411Y-105257017D02*
X89179411Y-104399875D01*
X88512744Y-105399875D02*
X88607982Y-105352256D01*
X88607982Y-105352256D02*
X88655601Y-105257017D01*
X88655601Y-105257017D02*
X88655601Y-104399875D01*
X88227029Y-104399875D02*
X87607982Y-104399875D01*
X87607982Y-104399875D02*
X87941315Y-104780827D01*
X87941315Y-104780827D02*
X87798458Y-104780827D01*
X87798458Y-104780827D02*
X87703220Y-104828446D01*
X87703220Y-104828446D02*
X87655601Y-104876065D01*
X87655601Y-104876065D02*
X87607982Y-104971303D01*
X87607982Y-104971303D02*
X87607982Y-105209398D01*
X87607982Y-105209398D02*
X87655601Y-105304636D01*
X87655601Y-105304636D02*
X87703220Y-105352256D01*
X87703220Y-105352256D02*
X87798458Y-105399875D01*
X87798458Y-105399875D02*
X88084172Y-105399875D01*
X88084172Y-105399875D02*
X88179410Y-105352256D01*
X88179410Y-105352256D02*
X88227029Y-105304636D01*
X86750839Y-104399875D02*
X86941315Y-104399875D01*
X86941315Y-104399875D02*
X87036553Y-104447494D01*
X87036553Y-104447494D02*
X87084172Y-104495113D01*
X87084172Y-104495113D02*
X87179410Y-104637970D01*
X87179410Y-104637970D02*
X87227029Y-104828446D01*
X87227029Y-104828446D02*
X87227029Y-105209398D01*
X87227029Y-105209398D02*
X87179410Y-105304636D01*
X87179410Y-105304636D02*
X87131791Y-105352256D01*
X87131791Y-105352256D02*
X87036553Y-105399875D01*
X87036553Y-105399875D02*
X86846077Y-105399875D01*
X86846077Y-105399875D02*
X86750839Y-105352256D01*
X86750839Y-105352256D02*
X86703220Y-105304636D01*
X86703220Y-105304636D02*
X86655601Y-105209398D01*
X86655601Y-105209398D02*
X86655601Y-104971303D01*
X86655601Y-104971303D02*
X86703220Y-104876065D01*
X86703220Y-104876065D02*
X86750839Y-104828446D01*
X86750839Y-104828446D02*
X86846077Y-104780827D01*
X86846077Y-104780827D02*
X87036553Y-104780827D01*
X87036553Y-104780827D02*
X87131791Y-104828446D01*
X87131791Y-104828446D02*
X87179410Y-104876065D01*
X87179410Y-104876065D02*
X87227029Y-104971303D01*
X85560362Y-104733208D02*
X85322267Y-105399875D01*
X85322267Y-105399875D02*
X85084172Y-104733208D01*
X84179410Y-105399875D02*
X84750838Y-105399875D01*
X84465124Y-105399875D02*
X84465124Y-104399875D01*
X84465124Y-104399875D02*
X84560362Y-104542732D01*
X84560362Y-104542732D02*
X84655600Y-104637970D01*
X84655600Y-104637970D02*
X84750838Y-104685589D01*
X83750838Y-105304636D02*
X83703219Y-105352256D01*
X83703219Y-105352256D02*
X83750838Y-105399875D01*
X83750838Y-105399875D02*
X83798457Y-105352256D01*
X83798457Y-105352256D02*
X83750838Y-105304636D01*
X83750838Y-105304636D02*
X83750838Y-105399875D01*
X83084172Y-104399875D02*
X82988934Y-104399875D01*
X82988934Y-104399875D02*
X82893696Y-104447494D01*
X82893696Y-104447494D02*
X82846077Y-104495113D01*
X82846077Y-104495113D02*
X82798458Y-104590351D01*
X82798458Y-104590351D02*
X82750839Y-104780827D01*
X82750839Y-104780827D02*
X82750839Y-105018922D01*
X82750839Y-105018922D02*
X82798458Y-105209398D01*
X82798458Y-105209398D02*
X82846077Y-105304636D01*
X82846077Y-105304636D02*
X82893696Y-105352256D01*
X82893696Y-105352256D02*
X82988934Y-105399875D01*
X82988934Y-105399875D02*
X83084172Y-105399875D01*
X83084172Y-105399875D02*
X83179410Y-105352256D01*
X83179410Y-105352256D02*
X83227029Y-105304636D01*
X83227029Y-105304636D02*
X83274648Y-105209398D01*
X83274648Y-105209398D02*
X83322267Y-105018922D01*
X83322267Y-105018922D02*
X83322267Y-104780827D01*
X83322267Y-104780827D02*
X83274648Y-104590351D01*
X83274648Y-104590351D02*
X83227029Y-104495113D01*
X83227029Y-104495113D02*
X83179410Y-104447494D01*
X83179410Y-104447494D02*
X83084172Y-104399875D01*
X93703220Y-107009819D02*
X93703220Y-106009819D01*
X93703220Y-106009819D02*
X93322268Y-106009819D01*
X93322268Y-106009819D02*
X93227030Y-106057438D01*
X93227030Y-106057438D02*
X93179411Y-106105057D01*
X93179411Y-106105057D02*
X93131792Y-106200295D01*
X93131792Y-106200295D02*
X93131792Y-106343152D01*
X93131792Y-106343152D02*
X93179411Y-106438390D01*
X93179411Y-106438390D02*
X93227030Y-106486009D01*
X93227030Y-106486009D02*
X93322268Y-106533628D01*
X93322268Y-106533628D02*
X93703220Y-106533628D01*
X92131792Y-106914580D02*
X92179411Y-106962200D01*
X92179411Y-106962200D02*
X92322268Y-107009819D01*
X92322268Y-107009819D02*
X92417506Y-107009819D01*
X92417506Y-107009819D02*
X92560363Y-106962200D01*
X92560363Y-106962200D02*
X92655601Y-106866961D01*
X92655601Y-106866961D02*
X92703220Y-106771723D01*
X92703220Y-106771723D02*
X92750839Y-106581247D01*
X92750839Y-106581247D02*
X92750839Y-106438390D01*
X92750839Y-106438390D02*
X92703220Y-106247914D01*
X92703220Y-106247914D02*
X92655601Y-106152676D01*
X92655601Y-106152676D02*
X92560363Y-106057438D01*
X92560363Y-106057438D02*
X92417506Y-106009819D01*
X92417506Y-106009819D02*
X92322268Y-106009819D01*
X92322268Y-106009819D02*
X92179411Y-106057438D01*
X92179411Y-106057438D02*
X92131792Y-106105057D01*
X91369887Y-106486009D02*
X91227030Y-106533628D01*
X91227030Y-106533628D02*
X91179411Y-106581247D01*
X91179411Y-106581247D02*
X91131792Y-106676485D01*
X91131792Y-106676485D02*
X91131792Y-106819342D01*
X91131792Y-106819342D02*
X91179411Y-106914580D01*
X91179411Y-106914580D02*
X91227030Y-106962200D01*
X91227030Y-106962200D02*
X91322268Y-107009819D01*
X91322268Y-107009819D02*
X91703220Y-107009819D01*
X91703220Y-107009819D02*
X91703220Y-106009819D01*
X91703220Y-106009819D02*
X91369887Y-106009819D01*
X91369887Y-106009819D02*
X91274649Y-106057438D01*
X91274649Y-106057438D02*
X91227030Y-106105057D01*
X91227030Y-106105057D02*
X91179411Y-106200295D01*
X91179411Y-106200295D02*
X91179411Y-106295533D01*
X91179411Y-106295533D02*
X91227030Y-106390771D01*
X91227030Y-106390771D02*
X91274649Y-106438390D01*
X91274649Y-106438390D02*
X91369887Y-106486009D01*
X91369887Y-106486009D02*
X91703220Y-106486009D01*
X89941315Y-107009819D02*
X89941315Y-106009819D01*
X89941315Y-106009819D02*
X89703220Y-106009819D01*
X89703220Y-106009819D02*
X89560363Y-106057438D01*
X89560363Y-106057438D02*
X89465125Y-106152676D01*
X89465125Y-106152676D02*
X89417506Y-106247914D01*
X89417506Y-106247914D02*
X89369887Y-106438390D01*
X89369887Y-106438390D02*
X89369887Y-106581247D01*
X89369887Y-106581247D02*
X89417506Y-106771723D01*
X89417506Y-106771723D02*
X89465125Y-106866961D01*
X89465125Y-106866961D02*
X89560363Y-106962200D01*
X89560363Y-106962200D02*
X89703220Y-107009819D01*
X89703220Y-107009819D02*
X89941315Y-107009819D01*
X88560363Y-106962200D02*
X88655601Y-107009819D01*
X88655601Y-107009819D02*
X88846077Y-107009819D01*
X88846077Y-107009819D02*
X88941315Y-106962200D01*
X88941315Y-106962200D02*
X88988934Y-106866961D01*
X88988934Y-106866961D02*
X88988934Y-106486009D01*
X88988934Y-106486009D02*
X88941315Y-106390771D01*
X88941315Y-106390771D02*
X88846077Y-106343152D01*
X88846077Y-106343152D02*
X88655601Y-106343152D01*
X88655601Y-106343152D02*
X88560363Y-106390771D01*
X88560363Y-106390771D02*
X88512744Y-106486009D01*
X88512744Y-106486009D02*
X88512744Y-106581247D01*
X88512744Y-106581247D02*
X88988934Y-106676485D01*
X88131791Y-106962200D02*
X88036553Y-107009819D01*
X88036553Y-107009819D02*
X87846077Y-107009819D01*
X87846077Y-107009819D02*
X87750839Y-106962200D01*
X87750839Y-106962200D02*
X87703220Y-106866961D01*
X87703220Y-106866961D02*
X87703220Y-106819342D01*
X87703220Y-106819342D02*
X87750839Y-106724104D01*
X87750839Y-106724104D02*
X87846077Y-106676485D01*
X87846077Y-106676485D02*
X87988934Y-106676485D01*
X87988934Y-106676485D02*
X88084172Y-106628866D01*
X88084172Y-106628866D02*
X88131791Y-106533628D01*
X88131791Y-106533628D02*
X88131791Y-106486009D01*
X88131791Y-106486009D02*
X88084172Y-106390771D01*
X88084172Y-106390771D02*
X87988934Y-106343152D01*
X87988934Y-106343152D02*
X87846077Y-106343152D01*
X87846077Y-106343152D02*
X87750839Y-106390771D01*
X87274648Y-107009819D02*
X87274648Y-106343152D01*
X87274648Y-106009819D02*
X87322267Y-106057438D01*
X87322267Y-106057438D02*
X87274648Y-106105057D01*
X87274648Y-106105057D02*
X87227029Y-106057438D01*
X87227029Y-106057438D02*
X87274648Y-106009819D01*
X87274648Y-106009819D02*
X87274648Y-106105057D01*
X86369887Y-106343152D02*
X86369887Y-107152676D01*
X86369887Y-107152676D02*
X86417506Y-107247914D01*
X86417506Y-107247914D02*
X86465125Y-107295533D01*
X86465125Y-107295533D02*
X86560363Y-107343152D01*
X86560363Y-107343152D02*
X86703220Y-107343152D01*
X86703220Y-107343152D02*
X86798458Y-107295533D01*
X86369887Y-106962200D02*
X86465125Y-107009819D01*
X86465125Y-107009819D02*
X86655601Y-107009819D01*
X86655601Y-107009819D02*
X86750839Y-106962200D01*
X86750839Y-106962200D02*
X86798458Y-106914580D01*
X86798458Y-106914580D02*
X86846077Y-106819342D01*
X86846077Y-106819342D02*
X86846077Y-106533628D01*
X86846077Y-106533628D02*
X86798458Y-106438390D01*
X86798458Y-106438390D02*
X86750839Y-106390771D01*
X86750839Y-106390771D02*
X86655601Y-106343152D01*
X86655601Y-106343152D02*
X86465125Y-106343152D01*
X86465125Y-106343152D02*
X86369887Y-106390771D01*
X85893696Y-106343152D02*
X85893696Y-107009819D01*
X85893696Y-106438390D02*
X85846077Y-106390771D01*
X85846077Y-106390771D02*
X85750839Y-106343152D01*
X85750839Y-106343152D02*
X85607982Y-106343152D01*
X85607982Y-106343152D02*
X85512744Y-106390771D01*
X85512744Y-106390771D02*
X85465125Y-106486009D01*
X85465125Y-106486009D02*
X85465125Y-107009819D01*
X84607982Y-106962200D02*
X84703220Y-107009819D01*
X84703220Y-107009819D02*
X84893696Y-107009819D01*
X84893696Y-107009819D02*
X84988934Y-106962200D01*
X84988934Y-106962200D02*
X85036553Y-106866961D01*
X85036553Y-106866961D02*
X85036553Y-106486009D01*
X85036553Y-106486009D02*
X84988934Y-106390771D01*
X84988934Y-106390771D02*
X84893696Y-106343152D01*
X84893696Y-106343152D02*
X84703220Y-106343152D01*
X84703220Y-106343152D02*
X84607982Y-106390771D01*
X84607982Y-106390771D02*
X84560363Y-106486009D01*
X84560363Y-106486009D02*
X84560363Y-106581247D01*
X84560363Y-106581247D02*
X85036553Y-106676485D01*
X83703220Y-107009819D02*
X83703220Y-106009819D01*
X83703220Y-106962200D02*
X83798458Y-107009819D01*
X83798458Y-107009819D02*
X83988934Y-107009819D01*
X83988934Y-107009819D02*
X84084172Y-106962200D01*
X84084172Y-106962200D02*
X84131791Y-106914580D01*
X84131791Y-106914580D02*
X84179410Y-106819342D01*
X84179410Y-106819342D02*
X84179410Y-106533628D01*
X84179410Y-106533628D02*
X84131791Y-106438390D01*
X84131791Y-106438390D02*
X84084172Y-106390771D01*
X84084172Y-106390771D02*
X83988934Y-106343152D01*
X83988934Y-106343152D02*
X83798458Y-106343152D01*
X83798458Y-106343152D02*
X83703220Y-106390771D01*
X82465124Y-107009819D02*
X82465124Y-106009819D01*
X82465124Y-106390771D02*
X82369886Y-106343152D01*
X82369886Y-106343152D02*
X82179410Y-106343152D01*
X82179410Y-106343152D02*
X82084172Y-106390771D01*
X82084172Y-106390771D02*
X82036553Y-106438390D01*
X82036553Y-106438390D02*
X81988934Y-106533628D01*
X81988934Y-106533628D02*
X81988934Y-106819342D01*
X81988934Y-106819342D02*
X82036553Y-106914580D01*
X82036553Y-106914580D02*
X82084172Y-106962200D01*
X82084172Y-106962200D02*
X82179410Y-107009819D01*
X82179410Y-107009819D02*
X82369886Y-107009819D01*
X82369886Y-107009819D02*
X82465124Y-106962200D01*
X81655600Y-106343152D02*
X81417505Y-107009819D01*
X81179410Y-106343152D02*
X81417505Y-107009819D01*
X81417505Y-107009819D02*
X81512743Y-107247914D01*
X81512743Y-107247914D02*
X81560362Y-107295533D01*
X81560362Y-107295533D02*
X81655600Y-107343152D01*
X80036552Y-107009819D02*
X80036552Y-106009819D01*
X80036552Y-106009819D02*
X79703219Y-106724104D01*
X79703219Y-106724104D02*
X79369886Y-106009819D01*
X79369886Y-106009819D02*
X79369886Y-107009819D01*
X78893695Y-107009819D02*
X78893695Y-106343152D01*
X78893695Y-106009819D02*
X78941314Y-106057438D01*
X78941314Y-106057438D02*
X78893695Y-106105057D01*
X78893695Y-106105057D02*
X78846076Y-106057438D01*
X78846076Y-106057438D02*
X78893695Y-106009819D01*
X78893695Y-106009819D02*
X78893695Y-106105057D01*
X78417505Y-107009819D02*
X78417505Y-106343152D01*
X78417505Y-106438390D02*
X78369886Y-106390771D01*
X78369886Y-106390771D02*
X78274648Y-106343152D01*
X78274648Y-106343152D02*
X78131791Y-106343152D01*
X78131791Y-106343152D02*
X78036553Y-106390771D01*
X78036553Y-106390771D02*
X77988934Y-106486009D01*
X77988934Y-106486009D02*
X77988934Y-107009819D01*
X77988934Y-106486009D02*
X77941315Y-106390771D01*
X77941315Y-106390771D02*
X77846077Y-106343152D01*
X77846077Y-106343152D02*
X77703220Y-106343152D01*
X77703220Y-106343152D02*
X77607981Y-106390771D01*
X77607981Y-106390771D02*
X77560362Y-106486009D01*
X77560362Y-106486009D02*
X77560362Y-107009819D01*
X76941315Y-107009819D02*
X77036553Y-106962200D01*
X77036553Y-106962200D02*
X77084172Y-106914580D01*
X77084172Y-106914580D02*
X77131791Y-106819342D01*
X77131791Y-106819342D02*
X77131791Y-106533628D01*
X77131791Y-106533628D02*
X77084172Y-106438390D01*
X77084172Y-106438390D02*
X77036553Y-106390771D01*
X77036553Y-106390771D02*
X76941315Y-106343152D01*
X76941315Y-106343152D02*
X76798458Y-106343152D01*
X76798458Y-106343152D02*
X76703220Y-106390771D01*
X76703220Y-106390771D02*
X76655601Y-106438390D01*
X76655601Y-106438390D02*
X76607982Y-106533628D01*
X76607982Y-106533628D02*
X76607982Y-106819342D01*
X76607982Y-106819342D02*
X76655601Y-106914580D01*
X76655601Y-106914580D02*
X76703220Y-106962200D01*
X76703220Y-106962200D02*
X76798458Y-107009819D01*
X76798458Y-107009819D02*
X76941315Y-107009819D01*
X76322267Y-106343152D02*
X75941315Y-106343152D01*
X76179410Y-106009819D02*
X76179410Y-106866961D01*
X76179410Y-106866961D02*
X76131791Y-106962200D01*
X76131791Y-106962200D02*
X76036553Y-107009819D01*
X76036553Y-107009819D02*
X75941315Y-107009819D01*
X75465124Y-107009819D02*
X75560362Y-106962200D01*
X75560362Y-106962200D02*
X75607981Y-106914580D01*
X75607981Y-106914580D02*
X75655600Y-106819342D01*
X75655600Y-106819342D02*
X75655600Y-106533628D01*
X75655600Y-106533628D02*
X75607981Y-106438390D01*
X75607981Y-106438390D02*
X75560362Y-106390771D01*
X75560362Y-106390771D02*
X75465124Y-106343152D01*
X75465124Y-106343152D02*
X75322267Y-106343152D01*
X75322267Y-106343152D02*
X75227029Y-106390771D01*
X75227029Y-106390771D02*
X75179410Y-106438390D01*
X75179410Y-106438390D02*
X75131791Y-106533628D01*
X75131791Y-106533628D02*
X75131791Y-106819342D01*
X75131791Y-106819342D02*
X75179410Y-106914580D01*
X75179410Y-106914580D02*
X75227029Y-106962200D01*
X75227029Y-106962200D02*
X75322267Y-107009819D01*
X75322267Y-107009819D02*
X75465124Y-107009819D01*
X73131790Y-107009819D02*
X73179410Y-107009819D01*
X73179410Y-107009819D02*
X73274648Y-106962200D01*
X73274648Y-106962200D02*
X73417505Y-106819342D01*
X73417505Y-106819342D02*
X73655600Y-106533628D01*
X73655600Y-106533628D02*
X73750838Y-106390771D01*
X73750838Y-106390771D02*
X73798457Y-106247914D01*
X73798457Y-106247914D02*
X73798457Y-106152676D01*
X73798457Y-106152676D02*
X73750838Y-106057438D01*
X73750838Y-106057438D02*
X73655600Y-106009819D01*
X73655600Y-106009819D02*
X73607981Y-106009819D01*
X73607981Y-106009819D02*
X73512743Y-106057438D01*
X73512743Y-106057438D02*
X73465124Y-106152676D01*
X73465124Y-106152676D02*
X73465124Y-106200295D01*
X73465124Y-106200295D02*
X73512743Y-106295533D01*
X73512743Y-106295533D02*
X73560362Y-106343152D01*
X73560362Y-106343152D02*
X73846076Y-106533628D01*
X73846076Y-106533628D02*
X73893695Y-106581247D01*
X73893695Y-106581247D02*
X73941314Y-106676485D01*
X73941314Y-106676485D02*
X73941314Y-106819342D01*
X73941314Y-106819342D02*
X73893695Y-106914580D01*
X73893695Y-106914580D02*
X73846076Y-106962200D01*
X73846076Y-106962200D02*
X73750838Y-107009819D01*
X73750838Y-107009819D02*
X73607981Y-107009819D01*
X73607981Y-107009819D02*
X73512743Y-106962200D01*
X73512743Y-106962200D02*
X73465124Y-106914580D01*
X73465124Y-106914580D02*
X73322267Y-106724104D01*
X73322267Y-106724104D02*
X73274648Y-106581247D01*
X73274648Y-106581247D02*
X73274648Y-106486009D01*
X71512743Y-107009819D02*
X71512743Y-106009819D01*
X71512743Y-106962200D02*
X71607981Y-107009819D01*
X71607981Y-107009819D02*
X71798457Y-107009819D01*
X71798457Y-107009819D02*
X71893695Y-106962200D01*
X71893695Y-106962200D02*
X71941314Y-106914580D01*
X71941314Y-106914580D02*
X71988933Y-106819342D01*
X71988933Y-106819342D02*
X71988933Y-106533628D01*
X71988933Y-106533628D02*
X71941314Y-106438390D01*
X71941314Y-106438390D02*
X71893695Y-106390771D01*
X71893695Y-106390771D02*
X71798457Y-106343152D01*
X71798457Y-106343152D02*
X71607981Y-106343152D01*
X71607981Y-106343152D02*
X71512743Y-106390771D01*
X70607981Y-107009819D02*
X70607981Y-106486009D01*
X70607981Y-106486009D02*
X70655600Y-106390771D01*
X70655600Y-106390771D02*
X70750838Y-106343152D01*
X70750838Y-106343152D02*
X70941314Y-106343152D01*
X70941314Y-106343152D02*
X71036552Y-106390771D01*
X70607981Y-106962200D02*
X70703219Y-107009819D01*
X70703219Y-107009819D02*
X70941314Y-107009819D01*
X70941314Y-107009819D02*
X71036552Y-106962200D01*
X71036552Y-106962200D02*
X71084171Y-106866961D01*
X71084171Y-106866961D02*
X71084171Y-106771723D01*
X71084171Y-106771723D02*
X71036552Y-106676485D01*
X71036552Y-106676485D02*
X70941314Y-106628866D01*
X70941314Y-106628866D02*
X70703219Y-106628866D01*
X70703219Y-106628866D02*
X70607981Y-106581247D01*
X70131790Y-107009819D02*
X70131790Y-106343152D01*
X70131790Y-106009819D02*
X70179409Y-106057438D01*
X70179409Y-106057438D02*
X70131790Y-106105057D01*
X70131790Y-106105057D02*
X70084171Y-106057438D01*
X70084171Y-106057438D02*
X70131790Y-106009819D01*
X70131790Y-106009819D02*
X70131790Y-106105057D01*
X69655600Y-107009819D02*
X69655600Y-106009819D01*
X69560362Y-106628866D02*
X69274648Y-107009819D01*
X69274648Y-106343152D02*
X69655600Y-106724104D01*
X68846076Y-107009819D02*
X68846076Y-106343152D01*
X68846076Y-106009819D02*
X68893695Y-106057438D01*
X68893695Y-106057438D02*
X68846076Y-106105057D01*
X68846076Y-106105057D02*
X68798457Y-106057438D01*
X68798457Y-106057438D02*
X68846076Y-106009819D01*
X68846076Y-106009819D02*
X68846076Y-106105057D01*
X68607982Y-107105057D02*
X67846077Y-107105057D01*
X67179410Y-107009819D02*
X67179410Y-106009819D01*
X67179410Y-106962200D02*
X67274648Y-107009819D01*
X67274648Y-107009819D02*
X67465124Y-107009819D01*
X67465124Y-107009819D02*
X67560362Y-106962200D01*
X67560362Y-106962200D02*
X67607981Y-106914580D01*
X67607981Y-106914580D02*
X67655600Y-106819342D01*
X67655600Y-106819342D02*
X67655600Y-106533628D01*
X67655600Y-106533628D02*
X67607981Y-106438390D01*
X67607981Y-106438390D02*
X67560362Y-106390771D01*
X67560362Y-106390771D02*
X67465124Y-106343152D01*
X67465124Y-106343152D02*
X67274648Y-106343152D01*
X67274648Y-106343152D02*
X67179410Y-106390771D01*
X66274648Y-107009819D02*
X66274648Y-106486009D01*
X66274648Y-106486009D02*
X66322267Y-106390771D01*
X66322267Y-106390771D02*
X66417505Y-106343152D01*
X66417505Y-106343152D02*
X66607981Y-106343152D01*
X66607981Y-106343152D02*
X66703219Y-106390771D01*
X66274648Y-106962200D02*
X66369886Y-107009819D01*
X66369886Y-107009819D02*
X66607981Y-107009819D01*
X66607981Y-107009819D02*
X66703219Y-106962200D01*
X66703219Y-106962200D02*
X66750838Y-106866961D01*
X66750838Y-106866961D02*
X66750838Y-106771723D01*
X66750838Y-106771723D02*
X66703219Y-106676485D01*
X66703219Y-106676485D02*
X66607981Y-106628866D01*
X66607981Y-106628866D02*
X66369886Y-106628866D01*
X66369886Y-106628866D02*
X66274648Y-106581247D01*
X65798457Y-107009819D02*
X65798457Y-106343152D01*
X65798457Y-106009819D02*
X65846076Y-106057438D01*
X65846076Y-106057438D02*
X65798457Y-106105057D01*
X65798457Y-106105057D02*
X65750838Y-106057438D01*
X65750838Y-106057438D02*
X65798457Y-106009819D01*
X65798457Y-106009819D02*
X65798457Y-106105057D01*
X65322267Y-107009819D02*
X65322267Y-106009819D01*
X65227029Y-106628866D02*
X64941315Y-107009819D01*
X64941315Y-106343152D02*
X65322267Y-106724104D01*
X64084172Y-106343152D02*
X64084172Y-107009819D01*
X64512743Y-106343152D02*
X64512743Y-106866961D01*
X64512743Y-106866961D02*
X64465124Y-106962200D01*
X64465124Y-106962200D02*
X64369886Y-107009819D01*
X64369886Y-107009819D02*
X64227029Y-107009819D01*
X64227029Y-107009819D02*
X64131791Y-106962200D01*
X64131791Y-106962200D02*
X64084172Y-106914580D01*
D13*
%TO.C,D11*%
X65493250Y-88821300D03*
X62093250Y-88821300D03*
%TD*%
D14*
%TO.C,TH3*%
X69746500Y-60921300D03*
%TD*%
D13*
%TO.C,D8*%
X103594050Y-60245700D03*
X100194050Y-60245700D03*
%TD*%
D15*
%TO.C,SW1*%
X52340000Y-58540000D03*
D16*
X52760000Y-58540000D03*
D17*
X52840000Y-62240000D03*
X54030000Y-55999999D03*
X55300000Y-53460000D03*
D18*
X57840000Y-58540000D03*
D17*
X57840000Y-64440000D03*
X60380000Y-53460000D03*
X61650000Y-56000000D03*
X62840000Y-62240000D03*
D16*
X62920000Y-58540000D03*
D15*
X63340000Y-58540000D03*
D19*
X49340000Y-56040000D03*
D20*
X49740000Y-62240000D03*
D21*
X50940000Y-56000000D03*
D22*
X60640000Y-64440000D03*
D23*
X63540000Y-53460000D03*
D19*
X65040000Y-53440000D03*
%TD*%
D15*
%TO.C,SW4*%
X109491200Y-53777400D03*
D16*
X109911200Y-53777400D03*
D17*
X109991200Y-57477400D03*
X111181200Y-51237399D03*
X112451200Y-48697400D03*
D18*
X114991200Y-53777400D03*
D17*
X114991200Y-59677400D03*
X117531200Y-48697400D03*
X118801200Y-51237400D03*
X119991200Y-57477400D03*
D16*
X120071200Y-53777400D03*
D15*
X120491200Y-53777400D03*
D19*
X106491200Y-51277400D03*
D20*
X106891200Y-57477400D03*
D21*
X108091200Y-51237400D03*
D22*
X117791200Y-59677400D03*
D23*
X120691200Y-48697400D03*
D19*
X122191200Y-48677400D03*
%TD*%
D15*
%TO.C,SW7*%
X71390400Y-70446500D03*
D16*
X71810400Y-70446500D03*
D17*
X71890400Y-74146500D03*
X73080400Y-67906499D03*
X74350400Y-65366500D03*
D18*
X76890400Y-70446500D03*
D17*
X76890400Y-76346500D03*
X79430400Y-65366500D03*
X80700400Y-67906500D03*
X81890400Y-74146500D03*
D16*
X81970400Y-70446500D03*
D15*
X82390400Y-70446500D03*
D19*
X68390400Y-67946500D03*
D20*
X68790400Y-74146500D03*
D21*
X69990400Y-67906500D03*
D22*
X79690400Y-76346500D03*
D23*
X82590400Y-65366500D03*
D19*
X84090400Y-65346500D03*
%TD*%
D24*
%TO.C,SW18*%
X137541960Y-123841111D03*
D25*
X150740187Y-131461111D03*
D15*
X147910000Y-122393140D03*
D16*
X148120000Y-122029409D03*
D17*
X151364294Y-123810127D03*
X146555295Y-119659556D03*
X144990591Y-117289705D03*
D24*
X150660000Y-117630000D03*
D17*
X155769550Y-120580000D03*
X147530591Y-112890295D03*
X150365295Y-113060443D03*
X156364294Y-115149873D03*
D16*
X153200000Y-113230591D03*
D15*
X153410000Y-112866860D03*
D24*
X149479960Y-103163889D03*
D25*
X162678187Y-110783889D03*
D26*
X144244936Y-123741216D03*
D27*
X149814294Y-126494806D03*
D28*
X145010295Y-122335575D03*
D29*
X157169550Y-118155129D03*
D30*
X149110591Y-110153655D03*
D26*
X149843270Y-108844617D03*
%TD*%
D31*
%TO.C,OL1*%
X139770000Y-115899410D03*
X141040000Y-113699705D03*
X142310000Y-111500000D03*
X143580000Y-109300296D03*
%TD*%
D15*
%TO.C,SW16*%
X99966000Y-110928600D03*
D16*
X100386000Y-110928600D03*
D17*
X100466000Y-114628600D03*
X101656000Y-108388599D03*
X102926000Y-105848600D03*
D18*
X105466000Y-110928600D03*
D17*
X105466000Y-116828600D03*
X108006000Y-105848600D03*
X109276000Y-108388600D03*
X110466000Y-114628600D03*
D16*
X110546000Y-110928600D03*
D15*
X110966000Y-110928600D03*
D19*
X96966000Y-108428600D03*
D20*
X97366000Y-114628600D03*
D21*
X98566000Y-108388600D03*
D22*
X108266000Y-116828600D03*
D23*
X111166000Y-105848600D03*
D19*
X112666000Y-105828600D03*
%TD*%
D32*
%TO.C,J2*%
X163110000Y-85300000D03*
X156110000Y-85300000D03*
X163110000Y-87050000D03*
X156110000Y-87050000D03*
D33*
X152810000Y-84950000D03*
X152810000Y-87400000D03*
X161310000Y-83200000D03*
X161310000Y-89150000D03*
X158310000Y-83200000D03*
X158310000Y-89150000D03*
X154310000Y-83200000D03*
X154310000Y-89150000D03*
%TD*%
D15*
%TO.C,SW2*%
X71390400Y-51396100D03*
D16*
X71810400Y-51396100D03*
D17*
X71890400Y-55096100D03*
X73080400Y-48856099D03*
X74350400Y-46316100D03*
D18*
X76890400Y-51396100D03*
D17*
X76890400Y-57296100D03*
X79430400Y-46316100D03*
X80700400Y-48856100D03*
X81890400Y-55096100D03*
D16*
X81970400Y-51396100D03*
D15*
X82390400Y-51396100D03*
D19*
X68390400Y-48896100D03*
D20*
X68790400Y-55096100D03*
D21*
X69990400Y-48856100D03*
D22*
X79690400Y-57296100D03*
D23*
X82590400Y-46316100D03*
D19*
X84090400Y-46296100D03*
%TD*%
D15*
%TO.C,SW6*%
X52340000Y-77590400D03*
D16*
X52760000Y-77590400D03*
D17*
X52840000Y-81290400D03*
X54030000Y-75050399D03*
X55300000Y-72510400D03*
D18*
X57840000Y-77590400D03*
D17*
X57840000Y-83490400D03*
X60380000Y-72510400D03*
X61650000Y-75050400D03*
X62840000Y-81290400D03*
D16*
X62920000Y-77590400D03*
D15*
X63340000Y-77590400D03*
D19*
X49340000Y-75090400D03*
D20*
X49740000Y-81290400D03*
D21*
X50940000Y-75050400D03*
D22*
X60640000Y-83490400D03*
D23*
X63540000Y-72510400D03*
D19*
X65040000Y-72490400D03*
%TD*%
D15*
%TO.C,SW3*%
X90440800Y-49014800D03*
D16*
X90860800Y-49014800D03*
D17*
X90940800Y-52714800D03*
X92130800Y-46474799D03*
X93400800Y-43934800D03*
D18*
X95940800Y-49014800D03*
D17*
X95940800Y-54914800D03*
X98480800Y-43934800D03*
X99750800Y-46474800D03*
X100940800Y-52714800D03*
D16*
X101020800Y-49014800D03*
D15*
X101440800Y-49014800D03*
D19*
X87440800Y-46514800D03*
D20*
X87840800Y-52714800D03*
D21*
X89040800Y-46474800D03*
D22*
X98740800Y-54914800D03*
D23*
X101640800Y-43934800D03*
D19*
X103140800Y-43914800D03*
%TD*%
D13*
%TO.C,D9*%
X122644450Y-65008300D03*
X119244450Y-65008300D03*
%TD*%
%TO.C,D10*%
X141694850Y-67389600D03*
X138294850Y-67389600D03*
%TD*%
%TO.C,D14*%
X122644450Y-84058700D03*
X119244450Y-84058700D03*
%TD*%
D14*
%TO.C,*%
X69746500Y-79971700D03*
%TD*%
D34*
%TO.C,D18*%
X146240000Y-101625514D03*
X144540000Y-104570000D03*
%TD*%
D35*
%TO.C,D17*%
X137019426Y-107337571D03*
X133720420Y-106515037D03*
%TD*%
D13*
%TO.C,D5*%
X141694850Y-64493250D03*
X138294850Y-64493250D03*
%TD*%
%TO.C,D7*%
X84543650Y-62627000D03*
X81143650Y-62627000D03*
%TD*%
%TO.C,D6*%
X65493250Y-69770900D03*
X62093250Y-69770900D03*
%TD*%
%TO.C,D13*%
X103594050Y-79296100D03*
X100194050Y-79296100D03*
%TD*%
D15*
%TO.C,SW8*%
X90440800Y-68065200D03*
D16*
X90860800Y-68065200D03*
D17*
X90940800Y-71765200D03*
X92130800Y-65525199D03*
X93400800Y-62985200D03*
D18*
X95940800Y-68065200D03*
D17*
X95940800Y-73965200D03*
X98480800Y-62985200D03*
X99750800Y-65525200D03*
X100940800Y-71765200D03*
D16*
X101020800Y-68065200D03*
D15*
X101440800Y-68065200D03*
D19*
X87440800Y-65565200D03*
D20*
X87840800Y-71765200D03*
D21*
X89040800Y-65525200D03*
D22*
X98740800Y-73965200D03*
D23*
X101640800Y-62985200D03*
D19*
X103140800Y-62965200D03*
%TD*%
D15*
%TO.C,SW15*%
X128541600Y-94259500D03*
D16*
X128961600Y-94259500D03*
D17*
X129041600Y-97959500D03*
X130231600Y-91719499D03*
X131501600Y-89179500D03*
D18*
X134041600Y-94259500D03*
D17*
X134041600Y-100159500D03*
X136581600Y-89179500D03*
X137851600Y-91719500D03*
X139041600Y-97959500D03*
D16*
X139121600Y-94259500D03*
D15*
X139541600Y-94259500D03*
D19*
X125541600Y-91759500D03*
D20*
X125941600Y-97959500D03*
D21*
X127141600Y-91719500D03*
D22*
X136841600Y-100159500D03*
D23*
X139741600Y-89179500D03*
D19*
X141241600Y-89159500D03*
%TD*%
D15*
%TO.C,SW5*%
X128541600Y-56158700D03*
D16*
X128961600Y-56158700D03*
D17*
X129041600Y-59858700D03*
X130231600Y-53618699D03*
X131501600Y-51078700D03*
D18*
X134041600Y-56158700D03*
D17*
X134041600Y-62058700D03*
X136581600Y-51078700D03*
X137851600Y-53618700D03*
X139041600Y-59858700D03*
D16*
X139121600Y-56158700D03*
D15*
X139541600Y-56158700D03*
D19*
X125541600Y-53658700D03*
D20*
X125941600Y-59858700D03*
D21*
X127141600Y-53618700D03*
D22*
X136841600Y-62058700D03*
D23*
X139741600Y-51078700D03*
D19*
X141241600Y-51058700D03*
%TD*%
D36*
%TO.C,SW19*%
X164830000Y-98260000D03*
X164830000Y-91760000D03*
%TD*%
D15*
%TO.C,SW13*%
X90440800Y-87115600D03*
D16*
X90860800Y-87115600D03*
D17*
X90940800Y-90815600D03*
X92130800Y-84575599D03*
X93400800Y-82035600D03*
D18*
X95940800Y-87115600D03*
D17*
X95940800Y-93015600D03*
X98480800Y-82035600D03*
X99750800Y-84575600D03*
X100940800Y-90815600D03*
D16*
X101020800Y-87115600D03*
D15*
X101440800Y-87115600D03*
D19*
X87440800Y-84615600D03*
D20*
X87840800Y-90815600D03*
D21*
X89040800Y-84575600D03*
D22*
X98740800Y-93015600D03*
D23*
X101640800Y-82035600D03*
D19*
X103140800Y-82015600D03*
%TD*%
D13*
%TO.C,D2*%
X84543650Y-59730650D03*
X81143650Y-59730650D03*
%TD*%
D14*
%TO.C,TH3*%
X131940000Y-128790000D03*
%TD*%
D13*
%TO.C,D4*%
X122644450Y-62111950D03*
X119244450Y-62111950D03*
%TD*%
D15*
%TO.C,SW17*%
X122343374Y-112309430D03*
D16*
X122750898Y-112411037D03*
D17*
X121933410Y-116020485D03*
X124597655Y-110253725D03*
X126444412Y-108096416D03*
D18*
X127680000Y-113640000D03*
D17*
X126252661Y-119364745D03*
X131373514Y-109325379D03*
X131991308Y-112097171D03*
X131636368Y-118439704D03*
D16*
X132609102Y-114868963D03*
D15*
X133016626Y-114970570D03*
D37*
X120037291Y-109157925D03*
D38*
X118925494Y-115270527D03*
D39*
X121599441Y-109506188D03*
D40*
X128969489Y-120042126D03*
D41*
X134439649Y-110089853D03*
D37*
X135899931Y-110433329D03*
%TD*%
D14*
%TO.C,*%
X127090000Y-65700000D03*
%TD*%
D13*
%TO.C,D1*%
X65493250Y-66874550D03*
X62093250Y-66874550D03*
%TD*%
%TO.C,D12*%
X84543650Y-81677400D03*
X81143650Y-81677400D03*
%TD*%
%TO.C,D16*%
X113119250Y-102594050D03*
X109719250Y-102594050D03*
%TD*%
D15*
%TO.C,SW10*%
X128541600Y-75209100D03*
D16*
X128961600Y-75209100D03*
D17*
X129041600Y-78909100D03*
X130231600Y-72669099D03*
X131501600Y-70129100D03*
D18*
X134041600Y-75209100D03*
D17*
X134041600Y-81109100D03*
X136581600Y-70129100D03*
X137851600Y-72669100D03*
X139041600Y-78909100D03*
D16*
X139121600Y-75209100D03*
D15*
X139541600Y-75209100D03*
D19*
X125541600Y-72709100D03*
D20*
X125941600Y-78909100D03*
D21*
X127141600Y-72669100D03*
D22*
X136841600Y-81109100D03*
D23*
X139741600Y-70129100D03*
D19*
X141241600Y-70109100D03*
%TD*%
D13*
%TO.C,D3*%
X103594050Y-57349350D03*
X100194050Y-57349350D03*
%TD*%
D15*
%TO.C,SW14*%
X109491200Y-91878200D03*
D16*
X109911200Y-91878200D03*
D17*
X109991200Y-95578200D03*
X111181200Y-89338199D03*
X112451200Y-86798200D03*
D18*
X114991200Y-91878200D03*
D17*
X114991200Y-97778200D03*
X117531200Y-86798200D03*
X118801200Y-89338200D03*
X119991200Y-95578200D03*
D16*
X120071200Y-91878200D03*
D15*
X120491200Y-91878200D03*
D19*
X106491200Y-89378200D03*
D20*
X106891200Y-95578200D03*
D21*
X108091200Y-89338200D03*
D22*
X117791200Y-97778200D03*
D23*
X120691200Y-86798200D03*
D19*
X122191200Y-86778200D03*
%TD*%
D42*
%TO.C,U1*%
X148708465Y-51204255D03*
X165247280Y-52400000D03*
X148708465Y-53744255D03*
X165247280Y-54940000D03*
X148708465Y-56284255D03*
X165247280Y-57480000D03*
X148708465Y-58824255D03*
X165247280Y-60020000D03*
X148708465Y-61364255D03*
X165247280Y-62560000D03*
X148708465Y-63904255D03*
X165247280Y-65100000D03*
X148708465Y-66444255D03*
X165247280Y-67640000D03*
X148708465Y-68984255D03*
X165247280Y-70180000D03*
X148708465Y-71524255D03*
X165247280Y-72720000D03*
X148708465Y-74064255D03*
X165247280Y-75260000D03*
X148708465Y-76604255D03*
X165247280Y-77800000D03*
X148708465Y-79144255D03*
X165247280Y-80340000D03*
X150007280Y-80340000D03*
X163948465Y-79144255D03*
X150007280Y-77800000D03*
X163948465Y-76604255D03*
X150007280Y-75260000D03*
X163948465Y-74064255D03*
X150007280Y-72720000D03*
X163948465Y-71524255D03*
X150007280Y-70180000D03*
X163948465Y-68984255D03*
X150007280Y-67640000D03*
X163948465Y-66444255D03*
X150007280Y-65100000D03*
X163948465Y-63904255D03*
X150007280Y-62560000D03*
X163948465Y-61364255D03*
X150007280Y-60020000D03*
X163948465Y-58824255D03*
X150007280Y-57480000D03*
X163948465Y-56284255D03*
X150007280Y-54940000D03*
X163948465Y-53744255D03*
X150007280Y-52400000D03*
X163948465Y-51204255D03*
%TD*%
D15*
%TO.C,SW11*%
X52340000Y-96640800D03*
D16*
X52760000Y-96640800D03*
D17*
X52840000Y-100340800D03*
X54030000Y-94100799D03*
X55300000Y-91560800D03*
D18*
X57840000Y-96640800D03*
D17*
X57840000Y-102540800D03*
X60380000Y-91560800D03*
X61650000Y-94100800D03*
X62840000Y-100340800D03*
D16*
X62920000Y-96640800D03*
D15*
X63340000Y-96640800D03*
D19*
X49340000Y-94140800D03*
D20*
X49740000Y-100340800D03*
D21*
X50940000Y-94100800D03*
D22*
X60640000Y-102540800D03*
D23*
X63540000Y-91560800D03*
D19*
X65040000Y-91540800D03*
%TD*%
D15*
%TO.C,SW12*%
X71390400Y-89496900D03*
D16*
X71810400Y-89496900D03*
D17*
X71890400Y-93196900D03*
X73080400Y-86956899D03*
X74350400Y-84416900D03*
D18*
X76890400Y-89496900D03*
D17*
X76890400Y-95396900D03*
X79430400Y-84416900D03*
X80700400Y-86956900D03*
X81890400Y-93196900D03*
D16*
X81970400Y-89496900D03*
D15*
X82390400Y-89496900D03*
D19*
X68390400Y-86996900D03*
D20*
X68790400Y-93196900D03*
D21*
X69990400Y-86956900D03*
D22*
X79690400Y-95396900D03*
D23*
X82590400Y-84416900D03*
D19*
X84090400Y-84396900D03*
%TD*%
D14*
%TO.C,TH3*%
X92130000Y-111890000D03*
%TD*%
%TO.C,*%
X127090000Y-84734300D03*
%TD*%
D13*
%TO.C,D15*%
X141694850Y-86440000D03*
X138294850Y-86440000D03*
%TD*%
D15*
%TO.C,SW9*%
X109491200Y-72827800D03*
D16*
X109911200Y-72827800D03*
D17*
X109991200Y-76527800D03*
X111181200Y-70287799D03*
X112451200Y-67747800D03*
D18*
X114991200Y-72827800D03*
D17*
X114991200Y-78727800D03*
X117531200Y-67747800D03*
X118801200Y-70287800D03*
X119991200Y-76527800D03*
D16*
X120071200Y-72827800D03*
D15*
X120491200Y-72827800D03*
D19*
X106491200Y-70327800D03*
D20*
X106891200Y-76527800D03*
D21*
X108091200Y-70287800D03*
D22*
X117791200Y-78727800D03*
D23*
X120691200Y-67747800D03*
D19*
X122191200Y-67727800D03*
%TD*%
%LPD*%
M02*
