%TF.GenerationSoftware,KiCad,Pcbnew,8.0.2-1*%
%TF.CreationDate,2024-06-10T16:48:46+09:00*%
%TF.ProjectId,Miriball36,4d697269-6261-46c6-9c33-362e6b696361,rev?*%
%TF.SameCoordinates,Original*%
%TF.FileFunction,Paste,Bot*%
%TF.FilePolarity,Positive*%
%FSLAX46Y46*%
G04 Gerber Fmt 4.6, Leading zero omitted, Abs format (unit mm)*
G04 Created by KiCad (PCBNEW 8.0.2-1) date 2024-06-10 16:48:46*
%MOMM*%
%LPD*%
G01*
G04 APERTURE LIST*
G04 Aperture macros list*
%AMRotRect*
0 Rectangle, with rotation*
0 The origin of the aperture is its center*
0 $1 length*
0 $2 width*
0 $3 Rotation angle, in degrees counterclockwise*
0 Add horizontal line*
21,1,$1,$2,0,0,$3*%
G04 Aperture macros list end*
%ADD10R,0.700000X1.500000*%
%ADD11R,2.000000X2.000000*%
%ADD12R,2.500000X2.500000*%
%ADD13R,1.900000X2.000000*%
%ADD14R,2.400000X2.400000*%
%ADD15RotRect,0.700000X1.500000X60.000000*%
%ADD16RotRect,2.000000X2.000000X240.000000*%
%ADD17RotRect,2.500000X2.500000X240.000000*%
%ADD18RotRect,1.900000X2.000000X240.000000*%
%ADD19RotRect,2.400000X2.400000X240.000000*%
%ADD20RotRect,0.700000X1.500000X346.000000*%
%ADD21RotRect,2.000000X2.000000X166.000000*%
%ADD22RotRect,2.500000X2.500000X166.000000*%
%ADD23RotRect,1.900000X2.000000X166.000000*%
%ADD24RotRect,2.400000X2.400000X166.000000*%
G04 APERTURE END LIST*
D10*
%TO.C,SW1*%
X49340000Y-56040000D03*
D11*
X49740000Y-62240000D03*
D12*
X50940000Y-56000000D03*
D13*
X60640000Y-64440000D03*
D14*
X63540000Y-53460000D03*
D10*
X65040000Y-53440000D03*
%TD*%
%TO.C,SW4*%
X106491200Y-51277400D03*
D11*
X106891200Y-57477400D03*
D12*
X108091200Y-51237400D03*
D13*
X117791200Y-59677400D03*
D14*
X120691200Y-48697400D03*
D10*
X122191200Y-48677400D03*
%TD*%
%TO.C,SW7*%
X68390400Y-67946500D03*
D11*
X68790400Y-74146500D03*
D12*
X69990400Y-67906500D03*
D13*
X79690400Y-76346500D03*
D14*
X82590400Y-65366500D03*
D10*
X84090400Y-65346500D03*
%TD*%
D15*
%TO.C,SW18*%
X144244936Y-123741216D03*
D16*
X149814294Y-126494806D03*
D17*
X145010295Y-122335575D03*
D18*
X157169550Y-118155129D03*
D19*
X149110591Y-110153655D03*
D15*
X149843270Y-108844617D03*
%TD*%
D10*
%TO.C,SW16*%
X96966000Y-108428600D03*
D11*
X97366000Y-114628600D03*
D12*
X98566000Y-108388600D03*
D13*
X108266000Y-116828600D03*
D14*
X111166000Y-105848600D03*
D10*
X112666000Y-105828600D03*
%TD*%
%TO.C,SW2*%
X68390400Y-48896100D03*
D11*
X68790400Y-55096100D03*
D12*
X69990400Y-48856100D03*
D13*
X79690400Y-57296100D03*
D14*
X82590400Y-46316100D03*
D10*
X84090400Y-46296100D03*
%TD*%
%TO.C,SW6*%
X49340000Y-75090400D03*
D11*
X49740000Y-81290400D03*
D12*
X50940000Y-75050400D03*
D13*
X60640000Y-83490400D03*
D14*
X63540000Y-72510400D03*
D10*
X65040000Y-72490400D03*
%TD*%
%TO.C,SW3*%
X87440800Y-46514800D03*
D11*
X87840800Y-52714800D03*
D12*
X89040800Y-46474800D03*
D13*
X98740800Y-54914800D03*
D14*
X101640800Y-43934800D03*
D10*
X103140800Y-43914800D03*
%TD*%
%TO.C,SW8*%
X87440800Y-65565200D03*
D11*
X87840800Y-71765200D03*
D12*
X89040800Y-65525200D03*
D13*
X98740800Y-73965200D03*
D14*
X101640800Y-62985200D03*
D10*
X103140800Y-62965200D03*
%TD*%
%TO.C,SW15*%
X125541600Y-91759500D03*
D11*
X125941600Y-97959500D03*
D12*
X127141600Y-91719500D03*
D13*
X136841600Y-100159500D03*
D14*
X139741600Y-89179500D03*
D10*
X141241600Y-89159500D03*
%TD*%
%TO.C,SW5*%
X125541600Y-53658700D03*
D11*
X125941600Y-59858700D03*
D12*
X127141600Y-53618700D03*
D13*
X136841600Y-62058700D03*
D14*
X139741600Y-51078700D03*
D10*
X141241600Y-51058700D03*
%TD*%
%TO.C,SW13*%
X87440800Y-84615600D03*
D11*
X87840800Y-90815600D03*
D12*
X89040800Y-84575600D03*
D13*
X98740800Y-93015600D03*
D14*
X101640800Y-82035600D03*
D10*
X103140800Y-82015600D03*
%TD*%
D20*
%TO.C,SW17*%
X120037291Y-109157925D03*
D21*
X118925494Y-115270527D03*
D22*
X121599441Y-109506188D03*
D23*
X128969489Y-120042126D03*
D24*
X134439649Y-110089853D03*
D20*
X135899931Y-110433329D03*
%TD*%
D10*
%TO.C,SW10*%
X125541600Y-72709100D03*
D11*
X125941600Y-78909100D03*
D12*
X127141600Y-72669100D03*
D13*
X136841600Y-81109100D03*
D14*
X139741600Y-70129100D03*
D10*
X141241600Y-70109100D03*
%TD*%
%TO.C,SW14*%
X106491200Y-89378200D03*
D11*
X106891200Y-95578200D03*
D12*
X108091200Y-89338200D03*
D13*
X117791200Y-97778200D03*
D14*
X120691200Y-86798200D03*
D10*
X122191200Y-86778200D03*
%TD*%
%TO.C,SW11*%
X49340000Y-94140800D03*
D11*
X49740000Y-100340800D03*
D12*
X50940000Y-94100800D03*
D13*
X60640000Y-102540800D03*
D14*
X63540000Y-91560800D03*
D10*
X65040000Y-91540800D03*
%TD*%
%TO.C,SW12*%
X68390400Y-86996900D03*
D11*
X68790400Y-93196900D03*
D12*
X69990400Y-86956900D03*
D13*
X79690400Y-95396900D03*
D14*
X82590400Y-84416900D03*
D10*
X84090400Y-84396900D03*
%TD*%
%TO.C,SW9*%
X106491200Y-70327800D03*
D11*
X106891200Y-76527800D03*
D12*
X108091200Y-70287800D03*
D13*
X117791200Y-78727800D03*
D14*
X120691200Y-67747800D03*
D10*
X122191200Y-67727800D03*
%TD*%
M02*
