M48
; DRILL file {KiCad 8.0.2-1} date 2024-06-10T16:48:46+0900
; FORMAT={-:-/ absolute / inch / decimal}
; #@! TF.CreationDate,2024-06-10T16:48:46+09:00
; #@! TF.GenerationSoftware,Kicad,Pcbnew,8.0.2-1
; #@! TF.FileFunction,Plated,1,2,PTH
FMAT,2
INCH
; #@! TA.AperFunction,Plated,PTH,ViaDrill
T1C0.0118
; #@! TA.AperFunction,Plated,PTH,ComponentDrill
T2C0.0157
; #@! TA.AperFunction,Plated,PTH,ComponentDrill
T3C0.0197
; #@! TA.AperFunction,Plated,PTH,ComponentDrill
T4C0.0320
; #@! TA.AperFunction,Plated,PTH,ComponentDrill
T5C0.0512
; #@! TA.AperFunction,Plated,PTH,ComponentDrill
T6C0.1850
%
G90
G05
T1
X1.9425Y-2.1374
X1.9425Y-2.8933
X1.9425Y-3.6413
X2.2535Y-3.2024
X2.2594Y-2.4445
X2.2594Y-3.9484
X2.5628Y-2.3639
X2.5628Y-3.1198
X2.5628Y-3.8679
X2.5862Y-2.3343
X2.5898Y-2.1331
X2.5917Y-2.8819
X2.6118Y-3.6315
X2.6846Y-2.2831
X2.6906Y-1.8618
X2.6906Y-2.6098
X2.6925Y-3.3598
X3.0075Y-2.1689
X3.0075Y-2.9169
X3.0094Y-3.6669
X3.3108Y-2.0883
X3.3108Y-2.8364
X3.3128Y-3.5864
X3.3598Y-1.852
X3.3598Y-2.6
X3.3618Y-3.35
X3.411Y-2.3939
X3.4144Y-2.4252
X3.4406Y-1.7654
X3.4406Y-2.5154
X3.4406Y-3.2654
X3.4829Y-2.3402
X3.4866Y-2.3788
X3.7575Y-2.0724
X3.7575Y-2.8224
X3.7575Y-3.5724
X3.8165Y-4.2004
X4.0608Y-1.9919
X4.0608Y-2.7419
X4.0608Y-3.4919
X4.1098Y-1.7555
X4.1098Y-2.5055
X4.1098Y-3.2555
X4.1335Y-4.5075
X4.1906Y-1.9524
X4.1906Y-2.7024
X4.1906Y-3.4524
X4.206Y-2.3641
X4.2063Y-2.411
X4.2929Y-2.4925
X4.3047Y-2.4622
X4.4368Y-4.4269
X4.4858Y-4.1906
X4.5075Y-2.2594
X4.5075Y-3.0094
X4.5075Y-3.7594
X4.7294Y-4.2405
X4.8108Y-2.1789
X4.8108Y-2.9289
X4.8108Y-3.6789
X4.8598Y-1.9425
X4.8598Y-2.6925
X4.8598Y-3.4425
X4.8769Y-2.515
X4.8884Y-2.4694
X4.9327Y-2.6925
X4.9327Y-3.4465
X4.9406Y-2.0449
X4.9406Y-2.7969
X4.9406Y-3.5469
X4.9472Y-4.5892
X4.974Y-2.4474
X5.2024Y-2.6079
X5.2575Y-2.352
X5.2575Y-3.1039
X5.2575Y-3.8539
X5.2924Y-4.6224
X5.3276Y-3.4275
X5.3297Y-2.6775
X5.3849Y-4.3803
X5.5608Y-2.2714
X5.5608Y-3.7734
X5.5782Y-3.0234
X5.6098Y-2.035
X5.6098Y-2.787
X5.6098Y-3.537
X5.6159Y-4.821
X5.6236Y-3.1827
X5.6236Y-3.2181
X5.6309Y-2.5808
X5.6313Y-2.9768
X5.6562Y-2.606
X5.6709Y-2.7031
X5.6717Y-2.9756
X5.6729Y-3.1713
X5.6963Y-2.8351
X5.701Y-2.5545
X5.746Y-2.5833
X5.9486Y-4.2738
X6.0487Y-4.7147
X6.1332Y-4.4278
T2
X2.4446Y-2.6329
X2.4446Y-2.7469
X2.4446Y-3.4969
X2.5785Y-2.6329
X2.5785Y-2.7469
X2.5785Y-3.4969
X3.1946Y-2.3516
X3.1946Y-2.4656
X3.1946Y-3.2156
X3.3285Y-2.3516
X3.3285Y-2.4656
X3.3285Y-3.2156
X3.9446Y-2.2578
X3.9446Y-2.3719
X3.9446Y-3.1219
X4.0785Y-2.2578
X4.0785Y-2.3719
X4.0785Y-3.1219
X4.3197Y-4.0391
X4.4535Y-4.0391
X4.6947Y-2.4454
X4.6947Y-2.5594
X4.6947Y-3.3094
X4.8285Y-2.4454
X4.8285Y-2.5594
X4.8285Y-3.3094
X5.2646Y-4.1935
X5.3945Y-4.2259
X5.4447Y-2.5391
X5.4447Y-2.6531
X5.4447Y-3.4031
X5.5785Y-2.5391
X5.5785Y-2.6531
X5.5785Y-3.4031
X5.6906Y-4.1169
X5.7575Y-4.001
T4
X5.5028Y-4.563
X5.5528Y-4.4764
X5.6028Y-4.3898
X5.6528Y-4.3032
X5.8547Y-2.0159
X5.8547Y-2.1159
X5.8547Y-2.2159
X5.8547Y-2.3159
X5.8547Y-2.4159
X5.8547Y-2.5159
X5.8547Y-2.6159
X5.8547Y-2.7159
X5.8547Y-2.8159
X5.8547Y-2.9159
X5.8547Y-3.0159
X5.8547Y-3.1159
X5.9058Y-2.063
X5.9058Y-2.163
X5.9058Y-2.263
X5.9058Y-2.363
X5.9058Y-2.463
X5.9058Y-2.563
X5.9058Y-2.663
X5.9058Y-2.763
X5.9058Y-2.863
X5.9058Y-2.963
X5.9058Y-3.063
X5.9058Y-3.163
X6.4547Y-2.0159
X6.4547Y-2.1159
X6.4547Y-2.2159
X6.4547Y-2.3159
X6.4547Y-2.4159
X6.4547Y-2.5159
X6.4547Y-2.6159
X6.4547Y-2.7159
X6.4547Y-2.8159
X6.4547Y-2.9159
X6.4547Y-3.0159
X6.4547Y-3.1159
X6.5058Y-2.063
X6.5058Y-2.163
X6.5058Y-2.263
X6.5058Y-2.363
X6.5058Y-2.463
X6.5058Y-2.563
X6.5058Y-2.663
X6.5058Y-2.763
X6.5058Y-2.863
X6.5058Y-2.963
X6.5058Y-3.063
X6.5058Y-3.163
T5
X6.4894Y-3.6126
X6.4894Y-3.8685
T6
X2.7459Y-2.3985
X2.7459Y-3.1485
X3.6272Y-4.4051
X5.0035Y-2.5866
X5.0035Y-3.336
X5.1945Y-5.0705
T3
G00X6.0378Y-3.3445
M15
G01X5.9945Y-3.3445
M16
G05
G00X6.0378Y-3.4409
M15
G01X5.9945Y-3.4409
M16
G05
G00X6.0969Y-3.2756
M15
G01X6.0535Y-3.2756
M16
G05
G00X6.0969Y-3.5098
M15
G01X6.0535Y-3.5098
M16
G05
G00X6.2543Y-3.2756
M15
G01X6.211Y-3.2756
M16
G05
G00X6.2543Y-3.5098
M15
G01X6.211Y-3.5098
M16
G05
G00X6.3724Y-3.2756
M15
G01X6.3291Y-3.2756
M16
G05
G00X6.3724Y-3.5098
M15
G01X6.3291Y-3.5098
M16
G05
M30
