%TF.GenerationSoftware,KiCad,Pcbnew,8.0.2-1*%
%TF.CreationDate,2024-06-10T16:48:46+09:00*%
%TF.ProjectId,Miriball36,4d697269-6261-46c6-9c33-362e6b696361,rev?*%
%TF.SameCoordinates,Original*%
%TF.FileFunction,Paste,Top*%
%TF.FilePolarity,Positive*%
%FSLAX46Y46*%
G04 Gerber Fmt 4.6, Leading zero omitted, Abs format (unit mm)*
G04 Created by KiCad (PCBNEW 8.0.2-1) date 2024-06-10 16:48:46*
%MOMM*%
%LPD*%
G01*
G04 APERTURE LIST*
G04 Aperture macros list*
%AMRotRect*
0 Rectangle, with rotation*
0 The origin of the aperture is its center*
0 $1 length*
0 $2 width*
0 $3 Rotation angle, in degrees counterclockwise*
0 Add horizontal line*
21,1,$1,$2,0,0,$3*%
G04 Aperture macros list end*
%ADD10R,0.700000X1.500000*%
%ADD11R,2.400000X2.400000*%
%ADD12R,2.000000X2.000000*%
%ADD13R,1.800000X2.000000*%
%ADD14R,2.500000X2.500000*%
%ADD15RotRect,0.700000X1.500000X60.000000*%
%ADD16RotRect,2.400000X2.400000X240.000000*%
%ADD17RotRect,2.000000X2.000000X240.000000*%
%ADD18RotRect,1.800000X2.000000X240.000000*%
%ADD19RotRect,2.500000X2.500000X240.000000*%
%ADD20RotRect,0.700000X1.500000X346.000000*%
%ADD21RotRect,2.400000X2.400000X166.000000*%
%ADD22RotRect,2.000000X2.000000X166.000000*%
%ADD23RotRect,1.800000X2.000000X166.000000*%
%ADD24RotRect,2.500000X2.500000X166.000000*%
G04 APERTURE END LIST*
D10*
%TO.C,SW1*%
X50640000Y-53440000D03*
D11*
X52140000Y-53460000D03*
D12*
X65940000Y-62240000D03*
D13*
X55040000Y-64440000D03*
D14*
X64740000Y-55999999D03*
D10*
X66340000Y-56040000D03*
%TD*%
%TO.C,SW4*%
X107791200Y-48677400D03*
D11*
X109291200Y-48697400D03*
D12*
X123091200Y-57477400D03*
D13*
X112191200Y-59677400D03*
D14*
X121891200Y-51237399D03*
D10*
X123491200Y-51277400D03*
%TD*%
%TO.C,SW7*%
X69690400Y-65346500D03*
D11*
X71190400Y-65366500D03*
D12*
X84990400Y-74146500D03*
D13*
X74090400Y-76346500D03*
D14*
X83790400Y-67906499D03*
D10*
X85390400Y-67946500D03*
%TD*%
D15*
%TO.C,SW18*%
X142643270Y-121315383D03*
D16*
X143410591Y-120026345D03*
D17*
X157914294Y-112465194D03*
D18*
X154369550Y-123004871D03*
D19*
X151910295Y-110384424D03*
D15*
X152744936Y-109018784D03*
%TD*%
D10*
%TO.C,SW16*%
X98266000Y-105828600D03*
D11*
X99766000Y-105848600D03*
D12*
X113566000Y-114628600D03*
D13*
X102666000Y-116828600D03*
D14*
X112366000Y-108388599D03*
D10*
X113966000Y-108428600D03*
%TD*%
%TO.C,SW2*%
X69690400Y-46296100D03*
D11*
X71190400Y-46316100D03*
D12*
X84990400Y-55096100D03*
D13*
X74090400Y-57296100D03*
D14*
X83790400Y-48856099D03*
D10*
X85390400Y-48896100D03*
%TD*%
%TO.C,SW6*%
X50640000Y-72490400D03*
D11*
X52140000Y-72510400D03*
D12*
X65940000Y-81290400D03*
D13*
X55040000Y-83490400D03*
D14*
X64740000Y-75050399D03*
D10*
X66340000Y-75090400D03*
%TD*%
%TO.C,SW3*%
X88740800Y-43914800D03*
D11*
X90240800Y-43934800D03*
D12*
X104040800Y-52714800D03*
D13*
X93140800Y-54914800D03*
D14*
X102840800Y-46474799D03*
D10*
X104440800Y-46514800D03*
%TD*%
%TO.C,SW8*%
X88740800Y-62965200D03*
D11*
X90240800Y-62985200D03*
D12*
X104040800Y-71765200D03*
D13*
X93140800Y-73965200D03*
D14*
X102840800Y-65525199D03*
D10*
X104440800Y-65565200D03*
%TD*%
%TO.C,SW15*%
X126841600Y-89159500D03*
D11*
X128341600Y-89179500D03*
D12*
X142141600Y-97959500D03*
D13*
X131241600Y-100159500D03*
D14*
X140941600Y-91719499D03*
D10*
X142541600Y-91759500D03*
%TD*%
%TO.C,SW5*%
X126841600Y-51058700D03*
D11*
X128341600Y-51078700D03*
D12*
X142141600Y-59858700D03*
D13*
X131241600Y-62058700D03*
D14*
X140941600Y-53618699D03*
D10*
X142541600Y-53658700D03*
%TD*%
%TO.C,SW13*%
X88740800Y-82015600D03*
D11*
X90240800Y-82035600D03*
D12*
X104040800Y-90815600D03*
D13*
X93140800Y-93015600D03*
D14*
X102840800Y-84575599D03*
D10*
X104440800Y-84615600D03*
%TD*%
D20*
%TO.C,SW17*%
X121927672Y-106949654D03*
D21*
X123378278Y-107331943D03*
D22*
X134644284Y-119189663D03*
D23*
X123535833Y-118687363D03*
D24*
X134989522Y-112844709D03*
D20*
X136532318Y-113270597D03*
%TD*%
D10*
%TO.C,SW10*%
X126841600Y-70109100D03*
D11*
X128341600Y-70129100D03*
D12*
X142141600Y-78909100D03*
D13*
X131241600Y-81109100D03*
D14*
X140941600Y-72669099D03*
D10*
X142541600Y-72709100D03*
%TD*%
%TO.C,SW14*%
X107791200Y-86778200D03*
D11*
X109291200Y-86798200D03*
D12*
X123091200Y-95578200D03*
D13*
X112191200Y-97778200D03*
D14*
X121891200Y-89338199D03*
D10*
X123491200Y-89378200D03*
%TD*%
%TO.C,SW11*%
X50640000Y-91540800D03*
D11*
X52140000Y-91560800D03*
D12*
X65940000Y-100340800D03*
D13*
X55040000Y-102540800D03*
D14*
X64740000Y-94100799D03*
D10*
X66340000Y-94140800D03*
%TD*%
%TO.C,SW12*%
X69690400Y-84396900D03*
D11*
X71190400Y-84416900D03*
D12*
X84990400Y-93196900D03*
D13*
X74090400Y-95396900D03*
D14*
X83790400Y-86956899D03*
D10*
X85390400Y-86996900D03*
%TD*%
%TO.C,SW9*%
X107791200Y-67727800D03*
D11*
X109291200Y-67747800D03*
D12*
X123091200Y-76527800D03*
D13*
X112191200Y-78727800D03*
D14*
X121891200Y-70287799D03*
D10*
X123491200Y-70327800D03*
%TD*%
M02*
