%TF.GenerationSoftware,KiCad,Pcbnew,8.0.2-1*%
%TF.CreationDate,2024-06-10T16:48:46+09:00*%
%TF.ProjectId,Miriball36,4d697269-6261-46c6-9c33-362e6b696361,rev?*%
%TF.SameCoordinates,Original*%
%TF.FileFunction,Soldermask,Bot*%
%TF.FilePolarity,Negative*%
%FSLAX46Y46*%
G04 Gerber Fmt 4.6, Leading zero omitted, Abs format (unit mm)*
G04 Created by KiCad (PCBNEW 8.0.2-1) date 2024-06-10 16:48:46*
%MOMM*%
%LPD*%
G01*
G04 APERTURE LIST*
G04 Aperture macros list*
%AMRotRect*
0 Rectangle, with rotation*
0 The origin of the aperture is its center*
0 $1 length*
0 $2 width*
0 $3 Rotation angle, in degrees counterclockwise*
0 Add horizontal line*
21,1,$1,$2,0,0,$3*%
G04 Aperture macros list end*
%ADD10C,0.150000*%
%ADD11R,1.800000X1.500000*%
%ADD12C,4.900000*%
%ADD13C,1.900000*%
%ADD14C,1.700000*%
%ADD15C,3.000000*%
%ADD16C,4.000000*%
%ADD17R,0.700000X1.500000*%
%ADD18R,2.000000X2.000000*%
%ADD19R,2.500000X2.500000*%
%ADD20R,1.900000X2.000000*%
%ADD21R,2.400000X2.400000*%
%ADD22C,3.987800*%
%ADD23C,3.048000*%
%ADD24RotRect,0.700000X1.500000X60.000000*%
%ADD25RotRect,2.000000X2.000000X240.000000*%
%ADD26RotRect,2.500000X2.500000X240.000000*%
%ADD27RotRect,1.900000X2.000000X240.000000*%
%ADD28RotRect,2.400000X2.400000X240.000000*%
%ADD29C,1.397000*%
%ADD30C,1.200000*%
%ADD31R,2.100000X1.200000*%
%ADD32RotRect,1.800000X1.500000X240.000000*%
%ADD33RotRect,1.800000X1.500000X166.000000*%
%ADD34C,2.500000*%
%ADD35RotRect,0.700000X1.500000X346.000000*%
%ADD36RotRect,2.000000X2.000000X166.000000*%
%ADD37RotRect,2.500000X2.500000X166.000000*%
%ADD38RotRect,1.900000X2.000000X166.000000*%
%ADD39RotRect,2.400000X2.400000X166.000000*%
%ADD40C,1.524000*%
G04 APERTURE END LIST*
D10*
X93703220Y-105399875D02*
X93703220Y-104399875D01*
X93703220Y-104399875D02*
X93369887Y-105114160D01*
X93369887Y-105114160D02*
X93036554Y-104399875D01*
X93036554Y-104399875D02*
X93036554Y-105399875D01*
X92560363Y-105399875D02*
X92560363Y-104733208D01*
X92560363Y-104399875D02*
X92607982Y-104447494D01*
X92607982Y-104447494D02*
X92560363Y-104495113D01*
X92560363Y-104495113D02*
X92512744Y-104447494D01*
X92512744Y-104447494D02*
X92560363Y-104399875D01*
X92560363Y-104399875D02*
X92560363Y-104495113D01*
X92084173Y-105399875D02*
X92084173Y-104733208D01*
X92084173Y-104923684D02*
X92036554Y-104828446D01*
X92036554Y-104828446D02*
X91988935Y-104780827D01*
X91988935Y-104780827D02*
X91893697Y-104733208D01*
X91893697Y-104733208D02*
X91798459Y-104733208D01*
X91465125Y-105399875D02*
X91465125Y-104733208D01*
X91465125Y-104399875D02*
X91512744Y-104447494D01*
X91512744Y-104447494D02*
X91465125Y-104495113D01*
X91465125Y-104495113D02*
X91417506Y-104447494D01*
X91417506Y-104447494D02*
X91465125Y-104399875D01*
X91465125Y-104399875D02*
X91465125Y-104495113D01*
X90988935Y-105399875D02*
X90988935Y-104399875D01*
X90988935Y-104780827D02*
X90893697Y-104733208D01*
X90893697Y-104733208D02*
X90703221Y-104733208D01*
X90703221Y-104733208D02*
X90607983Y-104780827D01*
X90607983Y-104780827D02*
X90560364Y-104828446D01*
X90560364Y-104828446D02*
X90512745Y-104923684D01*
X90512745Y-104923684D02*
X90512745Y-105209398D01*
X90512745Y-105209398D02*
X90560364Y-105304636D01*
X90560364Y-105304636D02*
X90607983Y-105352256D01*
X90607983Y-105352256D02*
X90703221Y-105399875D01*
X90703221Y-105399875D02*
X90893697Y-105399875D01*
X90893697Y-105399875D02*
X90988935Y-105352256D01*
X89655602Y-105399875D02*
X89655602Y-104876065D01*
X89655602Y-104876065D02*
X89703221Y-104780827D01*
X89703221Y-104780827D02*
X89798459Y-104733208D01*
X89798459Y-104733208D02*
X89988935Y-104733208D01*
X89988935Y-104733208D02*
X90084173Y-104780827D01*
X89655602Y-105352256D02*
X89750840Y-105399875D01*
X89750840Y-105399875D02*
X89988935Y-105399875D01*
X89988935Y-105399875D02*
X90084173Y-105352256D01*
X90084173Y-105352256D02*
X90131792Y-105257017D01*
X90131792Y-105257017D02*
X90131792Y-105161779D01*
X90131792Y-105161779D02*
X90084173Y-105066541D01*
X90084173Y-105066541D02*
X89988935Y-105018922D01*
X89988935Y-105018922D02*
X89750840Y-105018922D01*
X89750840Y-105018922D02*
X89655602Y-104971303D01*
X89036554Y-105399875D02*
X89131792Y-105352256D01*
X89131792Y-105352256D02*
X89179411Y-105257017D01*
X89179411Y-105257017D02*
X89179411Y-104399875D01*
X88512744Y-105399875D02*
X88607982Y-105352256D01*
X88607982Y-105352256D02*
X88655601Y-105257017D01*
X88655601Y-105257017D02*
X88655601Y-104399875D01*
X88227029Y-104399875D02*
X87607982Y-104399875D01*
X87607982Y-104399875D02*
X87941315Y-104780827D01*
X87941315Y-104780827D02*
X87798458Y-104780827D01*
X87798458Y-104780827D02*
X87703220Y-104828446D01*
X87703220Y-104828446D02*
X87655601Y-104876065D01*
X87655601Y-104876065D02*
X87607982Y-104971303D01*
X87607982Y-104971303D02*
X87607982Y-105209398D01*
X87607982Y-105209398D02*
X87655601Y-105304636D01*
X87655601Y-105304636D02*
X87703220Y-105352256D01*
X87703220Y-105352256D02*
X87798458Y-105399875D01*
X87798458Y-105399875D02*
X88084172Y-105399875D01*
X88084172Y-105399875D02*
X88179410Y-105352256D01*
X88179410Y-105352256D02*
X88227029Y-105304636D01*
X86750839Y-104399875D02*
X86941315Y-104399875D01*
X86941315Y-104399875D02*
X87036553Y-104447494D01*
X87036553Y-104447494D02*
X87084172Y-104495113D01*
X87084172Y-104495113D02*
X87179410Y-104637970D01*
X87179410Y-104637970D02*
X87227029Y-104828446D01*
X87227029Y-104828446D02*
X87227029Y-105209398D01*
X87227029Y-105209398D02*
X87179410Y-105304636D01*
X87179410Y-105304636D02*
X87131791Y-105352256D01*
X87131791Y-105352256D02*
X87036553Y-105399875D01*
X87036553Y-105399875D02*
X86846077Y-105399875D01*
X86846077Y-105399875D02*
X86750839Y-105352256D01*
X86750839Y-105352256D02*
X86703220Y-105304636D01*
X86703220Y-105304636D02*
X86655601Y-105209398D01*
X86655601Y-105209398D02*
X86655601Y-104971303D01*
X86655601Y-104971303D02*
X86703220Y-104876065D01*
X86703220Y-104876065D02*
X86750839Y-104828446D01*
X86750839Y-104828446D02*
X86846077Y-104780827D01*
X86846077Y-104780827D02*
X87036553Y-104780827D01*
X87036553Y-104780827D02*
X87131791Y-104828446D01*
X87131791Y-104828446D02*
X87179410Y-104876065D01*
X87179410Y-104876065D02*
X87227029Y-104971303D01*
X85560362Y-104733208D02*
X85322267Y-105399875D01*
X85322267Y-105399875D02*
X85084172Y-104733208D01*
X84179410Y-105399875D02*
X84750838Y-105399875D01*
X84465124Y-105399875D02*
X84465124Y-104399875D01*
X84465124Y-104399875D02*
X84560362Y-104542732D01*
X84560362Y-104542732D02*
X84655600Y-104637970D01*
X84655600Y-104637970D02*
X84750838Y-104685589D01*
X83750838Y-105304636D02*
X83703219Y-105352256D01*
X83703219Y-105352256D02*
X83750838Y-105399875D01*
X83750838Y-105399875D02*
X83798457Y-105352256D01*
X83798457Y-105352256D02*
X83750838Y-105304636D01*
X83750838Y-105304636D02*
X83750838Y-105399875D01*
X83084172Y-104399875D02*
X82988934Y-104399875D01*
X82988934Y-104399875D02*
X82893696Y-104447494D01*
X82893696Y-104447494D02*
X82846077Y-104495113D01*
X82846077Y-104495113D02*
X82798458Y-104590351D01*
X82798458Y-104590351D02*
X82750839Y-104780827D01*
X82750839Y-104780827D02*
X82750839Y-105018922D01*
X82750839Y-105018922D02*
X82798458Y-105209398D01*
X82798458Y-105209398D02*
X82846077Y-105304636D01*
X82846077Y-105304636D02*
X82893696Y-105352256D01*
X82893696Y-105352256D02*
X82988934Y-105399875D01*
X82988934Y-105399875D02*
X83084172Y-105399875D01*
X83084172Y-105399875D02*
X83179410Y-105352256D01*
X83179410Y-105352256D02*
X83227029Y-105304636D01*
X83227029Y-105304636D02*
X83274648Y-105209398D01*
X83274648Y-105209398D02*
X83322267Y-105018922D01*
X83322267Y-105018922D02*
X83322267Y-104780827D01*
X83322267Y-104780827D02*
X83274648Y-104590351D01*
X83274648Y-104590351D02*
X83227029Y-104495113D01*
X83227029Y-104495113D02*
X83179410Y-104447494D01*
X83179410Y-104447494D02*
X83084172Y-104399875D01*
X93703220Y-107009819D02*
X93703220Y-106009819D01*
X93703220Y-106009819D02*
X93322268Y-106009819D01*
X93322268Y-106009819D02*
X93227030Y-106057438D01*
X93227030Y-106057438D02*
X93179411Y-106105057D01*
X93179411Y-106105057D02*
X93131792Y-106200295D01*
X93131792Y-106200295D02*
X93131792Y-106343152D01*
X93131792Y-106343152D02*
X93179411Y-106438390D01*
X93179411Y-106438390D02*
X93227030Y-106486009D01*
X93227030Y-106486009D02*
X93322268Y-106533628D01*
X93322268Y-106533628D02*
X93703220Y-106533628D01*
X92131792Y-106914580D02*
X92179411Y-106962200D01*
X92179411Y-106962200D02*
X92322268Y-107009819D01*
X92322268Y-107009819D02*
X92417506Y-107009819D01*
X92417506Y-107009819D02*
X92560363Y-106962200D01*
X92560363Y-106962200D02*
X92655601Y-106866961D01*
X92655601Y-106866961D02*
X92703220Y-106771723D01*
X92703220Y-106771723D02*
X92750839Y-106581247D01*
X92750839Y-106581247D02*
X92750839Y-106438390D01*
X92750839Y-106438390D02*
X92703220Y-106247914D01*
X92703220Y-106247914D02*
X92655601Y-106152676D01*
X92655601Y-106152676D02*
X92560363Y-106057438D01*
X92560363Y-106057438D02*
X92417506Y-106009819D01*
X92417506Y-106009819D02*
X92322268Y-106009819D01*
X92322268Y-106009819D02*
X92179411Y-106057438D01*
X92179411Y-106057438D02*
X92131792Y-106105057D01*
X91369887Y-106486009D02*
X91227030Y-106533628D01*
X91227030Y-106533628D02*
X91179411Y-106581247D01*
X91179411Y-106581247D02*
X91131792Y-106676485D01*
X91131792Y-106676485D02*
X91131792Y-106819342D01*
X91131792Y-106819342D02*
X91179411Y-106914580D01*
X91179411Y-106914580D02*
X91227030Y-106962200D01*
X91227030Y-106962200D02*
X91322268Y-107009819D01*
X91322268Y-107009819D02*
X91703220Y-107009819D01*
X91703220Y-107009819D02*
X91703220Y-106009819D01*
X91703220Y-106009819D02*
X91369887Y-106009819D01*
X91369887Y-106009819D02*
X91274649Y-106057438D01*
X91274649Y-106057438D02*
X91227030Y-106105057D01*
X91227030Y-106105057D02*
X91179411Y-106200295D01*
X91179411Y-106200295D02*
X91179411Y-106295533D01*
X91179411Y-106295533D02*
X91227030Y-106390771D01*
X91227030Y-106390771D02*
X91274649Y-106438390D01*
X91274649Y-106438390D02*
X91369887Y-106486009D01*
X91369887Y-106486009D02*
X91703220Y-106486009D01*
X89941315Y-107009819D02*
X89941315Y-106009819D01*
X89941315Y-106009819D02*
X89703220Y-106009819D01*
X89703220Y-106009819D02*
X89560363Y-106057438D01*
X89560363Y-106057438D02*
X89465125Y-106152676D01*
X89465125Y-106152676D02*
X89417506Y-106247914D01*
X89417506Y-106247914D02*
X89369887Y-106438390D01*
X89369887Y-106438390D02*
X89369887Y-106581247D01*
X89369887Y-106581247D02*
X89417506Y-106771723D01*
X89417506Y-106771723D02*
X89465125Y-106866961D01*
X89465125Y-106866961D02*
X89560363Y-106962200D01*
X89560363Y-106962200D02*
X89703220Y-107009819D01*
X89703220Y-107009819D02*
X89941315Y-107009819D01*
X88560363Y-106962200D02*
X88655601Y-107009819D01*
X88655601Y-107009819D02*
X88846077Y-107009819D01*
X88846077Y-107009819D02*
X88941315Y-106962200D01*
X88941315Y-106962200D02*
X88988934Y-106866961D01*
X88988934Y-106866961D02*
X88988934Y-106486009D01*
X88988934Y-106486009D02*
X88941315Y-106390771D01*
X88941315Y-106390771D02*
X88846077Y-106343152D01*
X88846077Y-106343152D02*
X88655601Y-106343152D01*
X88655601Y-106343152D02*
X88560363Y-106390771D01*
X88560363Y-106390771D02*
X88512744Y-106486009D01*
X88512744Y-106486009D02*
X88512744Y-106581247D01*
X88512744Y-106581247D02*
X88988934Y-106676485D01*
X88131791Y-106962200D02*
X88036553Y-107009819D01*
X88036553Y-107009819D02*
X87846077Y-107009819D01*
X87846077Y-107009819D02*
X87750839Y-106962200D01*
X87750839Y-106962200D02*
X87703220Y-106866961D01*
X87703220Y-106866961D02*
X87703220Y-106819342D01*
X87703220Y-106819342D02*
X87750839Y-106724104D01*
X87750839Y-106724104D02*
X87846077Y-106676485D01*
X87846077Y-106676485D02*
X87988934Y-106676485D01*
X87988934Y-106676485D02*
X88084172Y-106628866D01*
X88084172Y-106628866D02*
X88131791Y-106533628D01*
X88131791Y-106533628D02*
X88131791Y-106486009D01*
X88131791Y-106486009D02*
X88084172Y-106390771D01*
X88084172Y-106390771D02*
X87988934Y-106343152D01*
X87988934Y-106343152D02*
X87846077Y-106343152D01*
X87846077Y-106343152D02*
X87750839Y-106390771D01*
X87274648Y-107009819D02*
X87274648Y-106343152D01*
X87274648Y-106009819D02*
X87322267Y-106057438D01*
X87322267Y-106057438D02*
X87274648Y-106105057D01*
X87274648Y-106105057D02*
X87227029Y-106057438D01*
X87227029Y-106057438D02*
X87274648Y-106009819D01*
X87274648Y-106009819D02*
X87274648Y-106105057D01*
X86369887Y-106343152D02*
X86369887Y-107152676D01*
X86369887Y-107152676D02*
X86417506Y-107247914D01*
X86417506Y-107247914D02*
X86465125Y-107295533D01*
X86465125Y-107295533D02*
X86560363Y-107343152D01*
X86560363Y-107343152D02*
X86703220Y-107343152D01*
X86703220Y-107343152D02*
X86798458Y-107295533D01*
X86369887Y-106962200D02*
X86465125Y-107009819D01*
X86465125Y-107009819D02*
X86655601Y-107009819D01*
X86655601Y-107009819D02*
X86750839Y-106962200D01*
X86750839Y-106962200D02*
X86798458Y-106914580D01*
X86798458Y-106914580D02*
X86846077Y-106819342D01*
X86846077Y-106819342D02*
X86846077Y-106533628D01*
X86846077Y-106533628D02*
X86798458Y-106438390D01*
X86798458Y-106438390D02*
X86750839Y-106390771D01*
X86750839Y-106390771D02*
X86655601Y-106343152D01*
X86655601Y-106343152D02*
X86465125Y-106343152D01*
X86465125Y-106343152D02*
X86369887Y-106390771D01*
X85893696Y-106343152D02*
X85893696Y-107009819D01*
X85893696Y-106438390D02*
X85846077Y-106390771D01*
X85846077Y-106390771D02*
X85750839Y-106343152D01*
X85750839Y-106343152D02*
X85607982Y-106343152D01*
X85607982Y-106343152D02*
X85512744Y-106390771D01*
X85512744Y-106390771D02*
X85465125Y-106486009D01*
X85465125Y-106486009D02*
X85465125Y-107009819D01*
X84607982Y-106962200D02*
X84703220Y-107009819D01*
X84703220Y-107009819D02*
X84893696Y-107009819D01*
X84893696Y-107009819D02*
X84988934Y-106962200D01*
X84988934Y-106962200D02*
X85036553Y-106866961D01*
X85036553Y-106866961D02*
X85036553Y-106486009D01*
X85036553Y-106486009D02*
X84988934Y-106390771D01*
X84988934Y-106390771D02*
X84893696Y-106343152D01*
X84893696Y-106343152D02*
X84703220Y-106343152D01*
X84703220Y-106343152D02*
X84607982Y-106390771D01*
X84607982Y-106390771D02*
X84560363Y-106486009D01*
X84560363Y-106486009D02*
X84560363Y-106581247D01*
X84560363Y-106581247D02*
X85036553Y-106676485D01*
X83703220Y-107009819D02*
X83703220Y-106009819D01*
X83703220Y-106962200D02*
X83798458Y-107009819D01*
X83798458Y-107009819D02*
X83988934Y-107009819D01*
X83988934Y-107009819D02*
X84084172Y-106962200D01*
X84084172Y-106962200D02*
X84131791Y-106914580D01*
X84131791Y-106914580D02*
X84179410Y-106819342D01*
X84179410Y-106819342D02*
X84179410Y-106533628D01*
X84179410Y-106533628D02*
X84131791Y-106438390D01*
X84131791Y-106438390D02*
X84084172Y-106390771D01*
X84084172Y-106390771D02*
X83988934Y-106343152D01*
X83988934Y-106343152D02*
X83798458Y-106343152D01*
X83798458Y-106343152D02*
X83703220Y-106390771D01*
X82465124Y-107009819D02*
X82465124Y-106009819D01*
X82465124Y-106390771D02*
X82369886Y-106343152D01*
X82369886Y-106343152D02*
X82179410Y-106343152D01*
X82179410Y-106343152D02*
X82084172Y-106390771D01*
X82084172Y-106390771D02*
X82036553Y-106438390D01*
X82036553Y-106438390D02*
X81988934Y-106533628D01*
X81988934Y-106533628D02*
X81988934Y-106819342D01*
X81988934Y-106819342D02*
X82036553Y-106914580D01*
X82036553Y-106914580D02*
X82084172Y-106962200D01*
X82084172Y-106962200D02*
X82179410Y-107009819D01*
X82179410Y-107009819D02*
X82369886Y-107009819D01*
X82369886Y-107009819D02*
X82465124Y-106962200D01*
X81655600Y-106343152D02*
X81417505Y-107009819D01*
X81179410Y-106343152D02*
X81417505Y-107009819D01*
X81417505Y-107009819D02*
X81512743Y-107247914D01*
X81512743Y-107247914D02*
X81560362Y-107295533D01*
X81560362Y-107295533D02*
X81655600Y-107343152D01*
X80036552Y-107009819D02*
X80036552Y-106009819D01*
X80036552Y-106009819D02*
X79703219Y-106724104D01*
X79703219Y-106724104D02*
X79369886Y-106009819D01*
X79369886Y-106009819D02*
X79369886Y-107009819D01*
X78893695Y-107009819D02*
X78893695Y-106343152D01*
X78893695Y-106009819D02*
X78941314Y-106057438D01*
X78941314Y-106057438D02*
X78893695Y-106105057D01*
X78893695Y-106105057D02*
X78846076Y-106057438D01*
X78846076Y-106057438D02*
X78893695Y-106009819D01*
X78893695Y-106009819D02*
X78893695Y-106105057D01*
X78417505Y-107009819D02*
X78417505Y-106343152D01*
X78417505Y-106438390D02*
X78369886Y-106390771D01*
X78369886Y-106390771D02*
X78274648Y-106343152D01*
X78274648Y-106343152D02*
X78131791Y-106343152D01*
X78131791Y-106343152D02*
X78036553Y-106390771D01*
X78036553Y-106390771D02*
X77988934Y-106486009D01*
X77988934Y-106486009D02*
X77988934Y-107009819D01*
X77988934Y-106486009D02*
X77941315Y-106390771D01*
X77941315Y-106390771D02*
X77846077Y-106343152D01*
X77846077Y-106343152D02*
X77703220Y-106343152D01*
X77703220Y-106343152D02*
X77607981Y-106390771D01*
X77607981Y-106390771D02*
X77560362Y-106486009D01*
X77560362Y-106486009D02*
X77560362Y-107009819D01*
X76941315Y-107009819D02*
X77036553Y-106962200D01*
X77036553Y-106962200D02*
X77084172Y-106914580D01*
X77084172Y-106914580D02*
X77131791Y-106819342D01*
X77131791Y-106819342D02*
X77131791Y-106533628D01*
X77131791Y-106533628D02*
X77084172Y-106438390D01*
X77084172Y-106438390D02*
X77036553Y-106390771D01*
X77036553Y-106390771D02*
X76941315Y-106343152D01*
X76941315Y-106343152D02*
X76798458Y-106343152D01*
X76798458Y-106343152D02*
X76703220Y-106390771D01*
X76703220Y-106390771D02*
X76655601Y-106438390D01*
X76655601Y-106438390D02*
X76607982Y-106533628D01*
X76607982Y-106533628D02*
X76607982Y-106819342D01*
X76607982Y-106819342D02*
X76655601Y-106914580D01*
X76655601Y-106914580D02*
X76703220Y-106962200D01*
X76703220Y-106962200D02*
X76798458Y-107009819D01*
X76798458Y-107009819D02*
X76941315Y-107009819D01*
X76322267Y-106343152D02*
X75941315Y-106343152D01*
X76179410Y-106009819D02*
X76179410Y-106866961D01*
X76179410Y-106866961D02*
X76131791Y-106962200D01*
X76131791Y-106962200D02*
X76036553Y-107009819D01*
X76036553Y-107009819D02*
X75941315Y-107009819D01*
X75465124Y-107009819D02*
X75560362Y-106962200D01*
X75560362Y-106962200D02*
X75607981Y-106914580D01*
X75607981Y-106914580D02*
X75655600Y-106819342D01*
X75655600Y-106819342D02*
X75655600Y-106533628D01*
X75655600Y-106533628D02*
X75607981Y-106438390D01*
X75607981Y-106438390D02*
X75560362Y-106390771D01*
X75560362Y-106390771D02*
X75465124Y-106343152D01*
X75465124Y-106343152D02*
X75322267Y-106343152D01*
X75322267Y-106343152D02*
X75227029Y-106390771D01*
X75227029Y-106390771D02*
X75179410Y-106438390D01*
X75179410Y-106438390D02*
X75131791Y-106533628D01*
X75131791Y-106533628D02*
X75131791Y-106819342D01*
X75131791Y-106819342D02*
X75179410Y-106914580D01*
X75179410Y-106914580D02*
X75227029Y-106962200D01*
X75227029Y-106962200D02*
X75322267Y-107009819D01*
X75322267Y-107009819D02*
X75465124Y-107009819D01*
X73131790Y-107009819D02*
X73179410Y-107009819D01*
X73179410Y-107009819D02*
X73274648Y-106962200D01*
X73274648Y-106962200D02*
X73417505Y-106819342D01*
X73417505Y-106819342D02*
X73655600Y-106533628D01*
X73655600Y-106533628D02*
X73750838Y-106390771D01*
X73750838Y-106390771D02*
X73798457Y-106247914D01*
X73798457Y-106247914D02*
X73798457Y-106152676D01*
X73798457Y-106152676D02*
X73750838Y-106057438D01*
X73750838Y-106057438D02*
X73655600Y-106009819D01*
X73655600Y-106009819D02*
X73607981Y-106009819D01*
X73607981Y-106009819D02*
X73512743Y-106057438D01*
X73512743Y-106057438D02*
X73465124Y-106152676D01*
X73465124Y-106152676D02*
X73465124Y-106200295D01*
X73465124Y-106200295D02*
X73512743Y-106295533D01*
X73512743Y-106295533D02*
X73560362Y-106343152D01*
X73560362Y-106343152D02*
X73846076Y-106533628D01*
X73846076Y-106533628D02*
X73893695Y-106581247D01*
X73893695Y-106581247D02*
X73941314Y-106676485D01*
X73941314Y-106676485D02*
X73941314Y-106819342D01*
X73941314Y-106819342D02*
X73893695Y-106914580D01*
X73893695Y-106914580D02*
X73846076Y-106962200D01*
X73846076Y-106962200D02*
X73750838Y-107009819D01*
X73750838Y-107009819D02*
X73607981Y-107009819D01*
X73607981Y-107009819D02*
X73512743Y-106962200D01*
X73512743Y-106962200D02*
X73465124Y-106914580D01*
X73465124Y-106914580D02*
X73322267Y-106724104D01*
X73322267Y-106724104D02*
X73274648Y-106581247D01*
X73274648Y-106581247D02*
X73274648Y-106486009D01*
X71512743Y-107009819D02*
X71512743Y-106009819D01*
X71512743Y-106962200D02*
X71607981Y-107009819D01*
X71607981Y-107009819D02*
X71798457Y-107009819D01*
X71798457Y-107009819D02*
X71893695Y-106962200D01*
X71893695Y-106962200D02*
X71941314Y-106914580D01*
X71941314Y-106914580D02*
X71988933Y-106819342D01*
X71988933Y-106819342D02*
X71988933Y-106533628D01*
X71988933Y-106533628D02*
X71941314Y-106438390D01*
X71941314Y-106438390D02*
X71893695Y-106390771D01*
X71893695Y-106390771D02*
X71798457Y-106343152D01*
X71798457Y-106343152D02*
X71607981Y-106343152D01*
X71607981Y-106343152D02*
X71512743Y-106390771D01*
X70607981Y-107009819D02*
X70607981Y-106486009D01*
X70607981Y-106486009D02*
X70655600Y-106390771D01*
X70655600Y-106390771D02*
X70750838Y-106343152D01*
X70750838Y-106343152D02*
X70941314Y-106343152D01*
X70941314Y-106343152D02*
X71036552Y-106390771D01*
X70607981Y-106962200D02*
X70703219Y-107009819D01*
X70703219Y-107009819D02*
X70941314Y-107009819D01*
X70941314Y-107009819D02*
X71036552Y-106962200D01*
X71036552Y-106962200D02*
X71084171Y-106866961D01*
X71084171Y-106866961D02*
X71084171Y-106771723D01*
X71084171Y-106771723D02*
X71036552Y-106676485D01*
X71036552Y-106676485D02*
X70941314Y-106628866D01*
X70941314Y-106628866D02*
X70703219Y-106628866D01*
X70703219Y-106628866D02*
X70607981Y-106581247D01*
X70131790Y-107009819D02*
X70131790Y-106343152D01*
X70131790Y-106009819D02*
X70179409Y-106057438D01*
X70179409Y-106057438D02*
X70131790Y-106105057D01*
X70131790Y-106105057D02*
X70084171Y-106057438D01*
X70084171Y-106057438D02*
X70131790Y-106009819D01*
X70131790Y-106009819D02*
X70131790Y-106105057D01*
X69655600Y-107009819D02*
X69655600Y-106009819D01*
X69560362Y-106628866D02*
X69274648Y-107009819D01*
X69274648Y-106343152D02*
X69655600Y-106724104D01*
X68846076Y-107009819D02*
X68846076Y-106343152D01*
X68846076Y-106009819D02*
X68893695Y-106057438D01*
X68893695Y-106057438D02*
X68846076Y-106105057D01*
X68846076Y-106105057D02*
X68798457Y-106057438D01*
X68798457Y-106057438D02*
X68846076Y-106009819D01*
X68846076Y-106009819D02*
X68846076Y-106105057D01*
X68607982Y-107105057D02*
X67846077Y-107105057D01*
X67179410Y-107009819D02*
X67179410Y-106009819D01*
X67179410Y-106962200D02*
X67274648Y-107009819D01*
X67274648Y-107009819D02*
X67465124Y-107009819D01*
X67465124Y-107009819D02*
X67560362Y-106962200D01*
X67560362Y-106962200D02*
X67607981Y-106914580D01*
X67607981Y-106914580D02*
X67655600Y-106819342D01*
X67655600Y-106819342D02*
X67655600Y-106533628D01*
X67655600Y-106533628D02*
X67607981Y-106438390D01*
X67607981Y-106438390D02*
X67560362Y-106390771D01*
X67560362Y-106390771D02*
X67465124Y-106343152D01*
X67465124Y-106343152D02*
X67274648Y-106343152D01*
X67274648Y-106343152D02*
X67179410Y-106390771D01*
X66274648Y-107009819D02*
X66274648Y-106486009D01*
X66274648Y-106486009D02*
X66322267Y-106390771D01*
X66322267Y-106390771D02*
X66417505Y-106343152D01*
X66417505Y-106343152D02*
X66607981Y-106343152D01*
X66607981Y-106343152D02*
X66703219Y-106390771D01*
X66274648Y-106962200D02*
X66369886Y-107009819D01*
X66369886Y-107009819D02*
X66607981Y-107009819D01*
X66607981Y-107009819D02*
X66703219Y-106962200D01*
X66703219Y-106962200D02*
X66750838Y-106866961D01*
X66750838Y-106866961D02*
X66750838Y-106771723D01*
X66750838Y-106771723D02*
X66703219Y-106676485D01*
X66703219Y-106676485D02*
X66607981Y-106628866D01*
X66607981Y-106628866D02*
X66369886Y-106628866D01*
X66369886Y-106628866D02*
X66274648Y-106581247D01*
X65798457Y-107009819D02*
X65798457Y-106343152D01*
X65798457Y-106009819D02*
X65846076Y-106057438D01*
X65846076Y-106057438D02*
X65798457Y-106105057D01*
X65798457Y-106105057D02*
X65750838Y-106057438D01*
X65750838Y-106057438D02*
X65798457Y-106009819D01*
X65798457Y-106009819D02*
X65798457Y-106105057D01*
X65322267Y-107009819D02*
X65322267Y-106009819D01*
X65227029Y-106628866D02*
X64941315Y-107009819D01*
X64941315Y-106343152D02*
X65322267Y-106724104D01*
X64084172Y-106343152D02*
X64084172Y-107009819D01*
X64512743Y-106343152D02*
X64512743Y-106866961D01*
X64512743Y-106866961D02*
X64465124Y-106962200D01*
X64465124Y-106962200D02*
X64369886Y-107009819D01*
X64369886Y-107009819D02*
X64227029Y-107009819D01*
X64227029Y-107009819D02*
X64131791Y-106962200D01*
X64131791Y-106962200D02*
X64084172Y-106914580D01*
D11*
%TO.C,D11*%
X65493250Y-88821300D03*
X62093250Y-88821300D03*
%TD*%
D12*
%TO.C,TH3*%
X69746500Y-60921300D03*
%TD*%
D11*
%TO.C,D8*%
X103594050Y-60245700D03*
X100194050Y-60245700D03*
%TD*%
D13*
%TO.C,SW1*%
X52340000Y-58540000D03*
D14*
X52760000Y-58540000D03*
D15*
X52840000Y-62240000D03*
X54030000Y-55999999D03*
X55300000Y-53460000D03*
D16*
X57840000Y-58540000D03*
D15*
X57840000Y-64440000D03*
X60380000Y-53460000D03*
X61650000Y-56000000D03*
X62840000Y-62240000D03*
D14*
X62920000Y-58540000D03*
D13*
X63340000Y-58540000D03*
D17*
X49340000Y-56040000D03*
D18*
X49740000Y-62240000D03*
D19*
X50940000Y-56000000D03*
D20*
X60640000Y-64440000D03*
D21*
X63540000Y-53460000D03*
D17*
X65040000Y-53440000D03*
%TD*%
D13*
%TO.C,SW4*%
X109491200Y-53777400D03*
D14*
X109911200Y-53777400D03*
D15*
X109991200Y-57477400D03*
X111181200Y-51237399D03*
X112451200Y-48697400D03*
D16*
X114991200Y-53777400D03*
D15*
X114991200Y-59677400D03*
X117531200Y-48697400D03*
X118801200Y-51237400D03*
X119991200Y-57477400D03*
D14*
X120071200Y-53777400D03*
D13*
X120491200Y-53777400D03*
D17*
X106491200Y-51277400D03*
D18*
X106891200Y-57477400D03*
D19*
X108091200Y-51237400D03*
D20*
X117791200Y-59677400D03*
D21*
X120691200Y-48697400D03*
D17*
X122191200Y-48677400D03*
%TD*%
D13*
%TO.C,SW7*%
X71390400Y-70446500D03*
D14*
X71810400Y-70446500D03*
D15*
X71890400Y-74146500D03*
X73080400Y-67906499D03*
X74350400Y-65366500D03*
D16*
X76890400Y-70446500D03*
D15*
X76890400Y-76346500D03*
X79430400Y-65366500D03*
X80700400Y-67906500D03*
X81890400Y-74146500D03*
D14*
X81970400Y-70446500D03*
D13*
X82390400Y-70446500D03*
D17*
X68390400Y-67946500D03*
D18*
X68790400Y-74146500D03*
D19*
X69990400Y-67906500D03*
D20*
X79690400Y-76346500D03*
D21*
X82590400Y-65366500D03*
D17*
X84090400Y-65346500D03*
%TD*%
D22*
%TO.C,SW18*%
X137541960Y-123841111D03*
D23*
X150740187Y-131461111D03*
D13*
X147910000Y-122393140D03*
D14*
X148120000Y-122029409D03*
D15*
X151364294Y-123810127D03*
X146555295Y-119659556D03*
X144990591Y-117289705D03*
D22*
X150660000Y-117630000D03*
D15*
X155769550Y-120580000D03*
X147530591Y-112890295D03*
X150365295Y-113060443D03*
X156364294Y-115149873D03*
D14*
X153200000Y-113230591D03*
D13*
X153410000Y-112866860D03*
D22*
X149479960Y-103163889D03*
D23*
X162678187Y-110783889D03*
D24*
X144244936Y-123741216D03*
D25*
X149814294Y-126494806D03*
D26*
X145010295Y-122335575D03*
D27*
X157169550Y-118155129D03*
D28*
X149110591Y-110153655D03*
D24*
X149843270Y-108844617D03*
%TD*%
D29*
%TO.C,OL1*%
X139770000Y-115899410D03*
X141040000Y-113699705D03*
X142310000Y-111500000D03*
X143580000Y-109300296D03*
%TD*%
D13*
%TO.C,SW16*%
X99966000Y-110928600D03*
D14*
X100386000Y-110928600D03*
D15*
X100466000Y-114628600D03*
X101656000Y-108388599D03*
X102926000Y-105848600D03*
D16*
X105466000Y-110928600D03*
D15*
X105466000Y-116828600D03*
X108006000Y-105848600D03*
X109276000Y-108388600D03*
X110466000Y-114628600D03*
D14*
X110546000Y-110928600D03*
D13*
X110966000Y-110928600D03*
D17*
X96966000Y-108428600D03*
D18*
X97366000Y-114628600D03*
D19*
X98566000Y-108388600D03*
D20*
X108266000Y-116828600D03*
D21*
X111166000Y-105848600D03*
D17*
X112666000Y-105828600D03*
%TD*%
D30*
%TO.C,J2*%
X163110000Y-85300000D03*
X156110000Y-85300000D03*
X163110000Y-87050000D03*
X156110000Y-87050000D03*
D31*
X152810000Y-84950000D03*
X152810000Y-87400000D03*
X161310000Y-83200000D03*
X161310000Y-89150000D03*
X158310000Y-83200000D03*
X158310000Y-89150000D03*
X154310000Y-83200000D03*
X154310000Y-89150000D03*
%TD*%
D13*
%TO.C,SW2*%
X71390400Y-51396100D03*
D14*
X71810400Y-51396100D03*
D15*
X71890400Y-55096100D03*
X73080400Y-48856099D03*
X74350400Y-46316100D03*
D16*
X76890400Y-51396100D03*
D15*
X76890400Y-57296100D03*
X79430400Y-46316100D03*
X80700400Y-48856100D03*
X81890400Y-55096100D03*
D14*
X81970400Y-51396100D03*
D13*
X82390400Y-51396100D03*
D17*
X68390400Y-48896100D03*
D18*
X68790400Y-55096100D03*
D19*
X69990400Y-48856100D03*
D20*
X79690400Y-57296100D03*
D21*
X82590400Y-46316100D03*
D17*
X84090400Y-46296100D03*
%TD*%
D13*
%TO.C,SW6*%
X52340000Y-77590400D03*
D14*
X52760000Y-77590400D03*
D15*
X52840000Y-81290400D03*
X54030000Y-75050399D03*
X55300000Y-72510400D03*
D16*
X57840000Y-77590400D03*
D15*
X57840000Y-83490400D03*
X60380000Y-72510400D03*
X61650000Y-75050400D03*
X62840000Y-81290400D03*
D14*
X62920000Y-77590400D03*
D13*
X63340000Y-77590400D03*
D17*
X49340000Y-75090400D03*
D18*
X49740000Y-81290400D03*
D19*
X50940000Y-75050400D03*
D20*
X60640000Y-83490400D03*
D21*
X63540000Y-72510400D03*
D17*
X65040000Y-72490400D03*
%TD*%
D13*
%TO.C,SW3*%
X90440800Y-49014800D03*
D14*
X90860800Y-49014800D03*
D15*
X90940800Y-52714800D03*
X92130800Y-46474799D03*
X93400800Y-43934800D03*
D16*
X95940800Y-49014800D03*
D15*
X95940800Y-54914800D03*
X98480800Y-43934800D03*
X99750800Y-46474800D03*
X100940800Y-52714800D03*
D14*
X101020800Y-49014800D03*
D13*
X101440800Y-49014800D03*
D17*
X87440800Y-46514800D03*
D18*
X87840800Y-52714800D03*
D19*
X89040800Y-46474800D03*
D20*
X98740800Y-54914800D03*
D21*
X101640800Y-43934800D03*
D17*
X103140800Y-43914800D03*
%TD*%
D11*
%TO.C,D9*%
X122644450Y-65008300D03*
X119244450Y-65008300D03*
%TD*%
%TO.C,D10*%
X141694850Y-67389600D03*
X138294850Y-67389600D03*
%TD*%
%TO.C,D14*%
X122644450Y-84058700D03*
X119244450Y-84058700D03*
%TD*%
D12*
%TO.C,*%
X69746500Y-79971700D03*
%TD*%
D32*
%TO.C,D18*%
X146240000Y-101625514D03*
X144540000Y-104570000D03*
%TD*%
D33*
%TO.C,D17*%
X137019426Y-107337571D03*
X133720420Y-106515037D03*
%TD*%
D11*
%TO.C,D5*%
X141694850Y-64493250D03*
X138294850Y-64493250D03*
%TD*%
%TO.C,D7*%
X84543650Y-62627000D03*
X81143650Y-62627000D03*
%TD*%
%TO.C,D6*%
X65493250Y-69770900D03*
X62093250Y-69770900D03*
%TD*%
%TO.C,D13*%
X103594050Y-79296100D03*
X100194050Y-79296100D03*
%TD*%
D13*
%TO.C,SW8*%
X90440800Y-68065200D03*
D14*
X90860800Y-68065200D03*
D15*
X90940800Y-71765200D03*
X92130800Y-65525199D03*
X93400800Y-62985200D03*
D16*
X95940800Y-68065200D03*
D15*
X95940800Y-73965200D03*
X98480800Y-62985200D03*
X99750800Y-65525200D03*
X100940800Y-71765200D03*
D14*
X101020800Y-68065200D03*
D13*
X101440800Y-68065200D03*
D17*
X87440800Y-65565200D03*
D18*
X87840800Y-71765200D03*
D19*
X89040800Y-65525200D03*
D20*
X98740800Y-73965200D03*
D21*
X101640800Y-62985200D03*
D17*
X103140800Y-62965200D03*
%TD*%
D13*
%TO.C,SW15*%
X128541600Y-94259500D03*
D14*
X128961600Y-94259500D03*
D15*
X129041600Y-97959500D03*
X130231600Y-91719499D03*
X131501600Y-89179500D03*
D16*
X134041600Y-94259500D03*
D15*
X134041600Y-100159500D03*
X136581600Y-89179500D03*
X137851600Y-91719500D03*
X139041600Y-97959500D03*
D14*
X139121600Y-94259500D03*
D13*
X139541600Y-94259500D03*
D17*
X125541600Y-91759500D03*
D18*
X125941600Y-97959500D03*
D19*
X127141600Y-91719500D03*
D20*
X136841600Y-100159500D03*
D21*
X139741600Y-89179500D03*
D17*
X141241600Y-89159500D03*
%TD*%
D13*
%TO.C,SW5*%
X128541600Y-56158700D03*
D14*
X128961600Y-56158700D03*
D15*
X129041600Y-59858700D03*
X130231600Y-53618699D03*
X131501600Y-51078700D03*
D16*
X134041600Y-56158700D03*
D15*
X134041600Y-62058700D03*
X136581600Y-51078700D03*
X137851600Y-53618700D03*
X139041600Y-59858700D03*
D14*
X139121600Y-56158700D03*
D13*
X139541600Y-56158700D03*
D17*
X125541600Y-53658700D03*
D18*
X125941600Y-59858700D03*
D19*
X127141600Y-53618700D03*
D20*
X136841600Y-62058700D03*
D21*
X139741600Y-51078700D03*
D17*
X141241600Y-51058700D03*
%TD*%
D34*
%TO.C,SW19*%
X164830000Y-98260000D03*
X164830000Y-91760000D03*
%TD*%
D13*
%TO.C,SW13*%
X90440800Y-87115600D03*
D14*
X90860800Y-87115600D03*
D15*
X90940800Y-90815600D03*
X92130800Y-84575599D03*
X93400800Y-82035600D03*
D16*
X95940800Y-87115600D03*
D15*
X95940800Y-93015600D03*
X98480800Y-82035600D03*
X99750800Y-84575600D03*
X100940800Y-90815600D03*
D14*
X101020800Y-87115600D03*
D13*
X101440800Y-87115600D03*
D17*
X87440800Y-84615600D03*
D18*
X87840800Y-90815600D03*
D19*
X89040800Y-84575600D03*
D20*
X98740800Y-93015600D03*
D21*
X101640800Y-82035600D03*
D17*
X103140800Y-82015600D03*
%TD*%
D11*
%TO.C,D2*%
X84543650Y-59730650D03*
X81143650Y-59730650D03*
%TD*%
D12*
%TO.C,TH3*%
X131940000Y-128790000D03*
%TD*%
D11*
%TO.C,D4*%
X122644450Y-62111950D03*
X119244450Y-62111950D03*
%TD*%
D13*
%TO.C,SW17*%
X122343374Y-112309430D03*
D14*
X122750898Y-112411037D03*
D15*
X121933410Y-116020485D03*
X124597655Y-110253725D03*
X126444412Y-108096416D03*
D16*
X127680000Y-113640000D03*
D15*
X126252661Y-119364745D03*
X131373514Y-109325379D03*
X131991308Y-112097171D03*
X131636368Y-118439704D03*
D14*
X132609102Y-114868963D03*
D13*
X133016626Y-114970570D03*
D35*
X120037291Y-109157925D03*
D36*
X118925494Y-115270527D03*
D37*
X121599441Y-109506188D03*
D38*
X128969489Y-120042126D03*
D39*
X134439649Y-110089853D03*
D35*
X135899931Y-110433329D03*
%TD*%
D12*
%TO.C,*%
X127090000Y-65700000D03*
%TD*%
D11*
%TO.C,D1*%
X65493250Y-66874550D03*
X62093250Y-66874550D03*
%TD*%
%TO.C,D12*%
X84543650Y-81677400D03*
X81143650Y-81677400D03*
%TD*%
%TO.C,D16*%
X113119250Y-102594050D03*
X109719250Y-102594050D03*
%TD*%
D13*
%TO.C,SW10*%
X128541600Y-75209100D03*
D14*
X128961600Y-75209100D03*
D15*
X129041600Y-78909100D03*
X130231600Y-72669099D03*
X131501600Y-70129100D03*
D16*
X134041600Y-75209100D03*
D15*
X134041600Y-81109100D03*
X136581600Y-70129100D03*
X137851600Y-72669100D03*
X139041600Y-78909100D03*
D14*
X139121600Y-75209100D03*
D13*
X139541600Y-75209100D03*
D17*
X125541600Y-72709100D03*
D18*
X125941600Y-78909100D03*
D19*
X127141600Y-72669100D03*
D20*
X136841600Y-81109100D03*
D21*
X139741600Y-70129100D03*
D17*
X141241600Y-70109100D03*
%TD*%
D11*
%TO.C,D3*%
X103594050Y-57349350D03*
X100194050Y-57349350D03*
%TD*%
D13*
%TO.C,SW14*%
X109491200Y-91878200D03*
D14*
X109911200Y-91878200D03*
D15*
X109991200Y-95578200D03*
X111181200Y-89338199D03*
X112451200Y-86798200D03*
D16*
X114991200Y-91878200D03*
D15*
X114991200Y-97778200D03*
X117531200Y-86798200D03*
X118801200Y-89338200D03*
X119991200Y-95578200D03*
D14*
X120071200Y-91878200D03*
D13*
X120491200Y-91878200D03*
D17*
X106491200Y-89378200D03*
D18*
X106891200Y-95578200D03*
D19*
X108091200Y-89338200D03*
D20*
X117791200Y-97778200D03*
D21*
X120691200Y-86798200D03*
D17*
X122191200Y-86778200D03*
%TD*%
D40*
%TO.C,U1*%
X148708465Y-51204255D03*
X165247280Y-52400000D03*
X148708465Y-53744255D03*
X165247280Y-54940000D03*
X148708465Y-56284255D03*
X165247280Y-57480000D03*
X148708465Y-58824255D03*
X165247280Y-60020000D03*
X148708465Y-61364255D03*
X165247280Y-62560000D03*
X148708465Y-63904255D03*
X165247280Y-65100000D03*
X148708465Y-66444255D03*
X165247280Y-67640000D03*
X148708465Y-68984255D03*
X165247280Y-70180000D03*
X148708465Y-71524255D03*
X165247280Y-72720000D03*
X148708465Y-74064255D03*
X165247280Y-75260000D03*
X148708465Y-76604255D03*
X165247280Y-77800000D03*
X148708465Y-79144255D03*
X165247280Y-80340000D03*
X150007280Y-80340000D03*
X163948465Y-79144255D03*
X150007280Y-77800000D03*
X163948465Y-76604255D03*
X150007280Y-75260000D03*
X163948465Y-74064255D03*
X150007280Y-72720000D03*
X163948465Y-71524255D03*
X150007280Y-70180000D03*
X163948465Y-68984255D03*
X150007280Y-67640000D03*
X163948465Y-66444255D03*
X150007280Y-65100000D03*
X163948465Y-63904255D03*
X150007280Y-62560000D03*
X163948465Y-61364255D03*
X150007280Y-60020000D03*
X163948465Y-58824255D03*
X150007280Y-57480000D03*
X163948465Y-56284255D03*
X150007280Y-54940000D03*
X163948465Y-53744255D03*
X150007280Y-52400000D03*
X163948465Y-51204255D03*
%TD*%
D13*
%TO.C,SW11*%
X52340000Y-96640800D03*
D14*
X52760000Y-96640800D03*
D15*
X52840000Y-100340800D03*
X54030000Y-94100799D03*
X55300000Y-91560800D03*
D16*
X57840000Y-96640800D03*
D15*
X57840000Y-102540800D03*
X60380000Y-91560800D03*
X61650000Y-94100800D03*
X62840000Y-100340800D03*
D14*
X62920000Y-96640800D03*
D13*
X63340000Y-96640800D03*
D17*
X49340000Y-94140800D03*
D18*
X49740000Y-100340800D03*
D19*
X50940000Y-94100800D03*
D20*
X60640000Y-102540800D03*
D21*
X63540000Y-91560800D03*
D17*
X65040000Y-91540800D03*
%TD*%
D13*
%TO.C,SW12*%
X71390400Y-89496900D03*
D14*
X71810400Y-89496900D03*
D15*
X71890400Y-93196900D03*
X73080400Y-86956899D03*
X74350400Y-84416900D03*
D16*
X76890400Y-89496900D03*
D15*
X76890400Y-95396900D03*
X79430400Y-84416900D03*
X80700400Y-86956900D03*
X81890400Y-93196900D03*
D14*
X81970400Y-89496900D03*
D13*
X82390400Y-89496900D03*
D17*
X68390400Y-86996900D03*
D18*
X68790400Y-93196900D03*
D19*
X69990400Y-86956900D03*
D20*
X79690400Y-95396900D03*
D21*
X82590400Y-84416900D03*
D17*
X84090400Y-84396900D03*
%TD*%
D12*
%TO.C,TH3*%
X92130000Y-111890000D03*
%TD*%
%TO.C,*%
X127090000Y-84734300D03*
%TD*%
D11*
%TO.C,D15*%
X141694850Y-86440000D03*
X138294850Y-86440000D03*
%TD*%
D13*
%TO.C,SW9*%
X109491200Y-72827800D03*
D14*
X109911200Y-72827800D03*
D15*
X109991200Y-76527800D03*
X111181200Y-70287799D03*
X112451200Y-67747800D03*
D16*
X114991200Y-72827800D03*
D15*
X114991200Y-78727800D03*
X117531200Y-67747800D03*
X118801200Y-70287800D03*
X119991200Y-76527800D03*
D14*
X120071200Y-72827800D03*
D13*
X120491200Y-72827800D03*
D17*
X106491200Y-70327800D03*
D18*
X106891200Y-76527800D03*
D19*
X108091200Y-70287800D03*
D20*
X117791200Y-78727800D03*
D21*
X120691200Y-67747800D03*
D17*
X122191200Y-67727800D03*
%TD*%
M02*
