  0
SECTION
  2
HEADER
  9
$ACADVER
  1
AC1009
  9
$FILLMODE
 70
 0
  9
$SPLFRAME
 70
 1
  9
$EXTMIN
 10
0
 20
0
 30
0.0
  9
$EXTMAX
 10
1058.33
 20
1058.33
 30
0.0
  0
ENDSEC
  0
SECTION
  2
TABLES
  0
TABLE
  2
LAYER
 70
1
  0
LAYER
  2
0
 70
     0
 62
     7
  6
CONTINUOUS
  0
ENDTAB
  0
ENDSEC
  0
SECTION
  2
ENTITIES
  0
LINE
  8
0
 62
     0
 10
158.735
 20
125.494
 30
0.0
 11
158.892
 21
125.487
 31
0.0
  0
LINE
  8
0
 62
     0
 10
158.892
 20
125.487
 30
0.0
 11
159.048
 21
125.469
 31
0.0
  0
LINE
  8
0
 62
     0
 10
159.048
 20
125.469
 30
0.0
 11
159.202
 21
125.439
 31
0.0
  0
LINE
  8
0
 62
     0
 10
159.202
 20
125.439
 30
0.0
 11
159.352
 21
125.396
 31
0.0
  0
LINE
  8
0
 62
     0
 10
159.352
 20
125.396
 30
0.0
 11
159.501
 21
125.341
 31
0.0
  0
LINE
  8
0
 62
     0
 10
159.501
 20
125.341
 30
0.0
 11
159.643
 21
125.276
 31
0.0
  0
LINE
  8
0
 62
     0
 10
159.643
 20
125.276
 30
0.0
 11
159.779
 21
125.199
 31
0.0
  0
LINE
  8
0
 62
     0
 10
159.779
 20
125.199
 30
0.0
 11
159.91
 21
125.112
 31
0.0
  0
LINE
  8
0
 62
     0
 10
159.91
 20
125.112
 30
0.0
 11
160.033
 21
125.014
 31
0.0
  0
LINE
  8
0
 62
     0
 10
160.033
 20
125.014
 30
0.0
 11
160.15
 21
124.908
 31
0.0
  0
LINE
  8
0
 62
     0
 10
160.15
 20
124.908
 30
0.0
 11
160.255
 21
124.792
 31
0.0
  0
LINE
  8
0
 62
     0
 10
160.255
 20
124.792
 30
0.0
 11
160.353
 21
124.67
 31
0.0
  0
LINE
  8
0
 62
     0
 10
160.353
 20
124.67
 30
0.0
 11
160.441
 21
124.539
 31
0.0
  0
LINE
  8
0
 62
     0
 10
160.441
 20
124.539
 30
0.0
 11
160.517
 21
124.401
 31
0.0
  0
LINE
  8
0
 62
     0
 10
160.517
 20
124.401
 30
0.0
 11
160.583
 21
124.259
 31
0.0
  0
LINE
  8
0
 62
     0
 10
160.583
 20
124.259
 30
0.0
 11
160.637
 21
124.113
 31
0.0
  0
LINE
  8
0
 62
     0
 10
160.637
 20
124.113
 30
0.0
 11
160.679
 21
123.96
 31
0.0
  0
LINE
  8
0
 62
     0
 10
160.679
 20
123.96
 30
0.0
 11
160.711
 21
123.807
 31
0.0
  0
LINE
  8
0
 62
     0
 10
160.711
 20
123.807
 30
0.0
 11
160.729
 21
123.65
 31
0.0
  0
LINE
  8
0
 62
     0
 10
160.729
 20
123.65
 30
0.0
 11
160.734
 21
123.493
 31
0.0
  0
LINE
  8
0
 62
     0
 10
160.734
 20
123.493
 30
0.0
 11
160.734
 21
2.35093
 31
0.0
  0
LINE
  8
0
 62
     0
 10
160.734
 20
2.35093
 30
0.0
 11
160.729
 21
2.19384
 31
0.0
  0
LINE
  8
0
 62
     0
 10
160.729
 20
2.19384
 30
0.0
 11
160.711
 21
2.0395
 31
0.0
  0
LINE
  8
0
 62
     0
 10
160.711
 20
2.0395
 30
0.0
 11
160.679
 21
1.88378
 31
0.0
  0
LINE
  8
0
 62
     0
 10
160.679
 20
1.88378
 30
0.0
 11
160.637
 21
1.73495
 31
0.0
  0
LINE
  8
0
 62
     0
 10
160.637
 20
1.73495
 30
0.0
 11
160.583
 21
1.58612
 31
0.0
  0
LINE
  8
0
 62
     0
 10
160.583
 20
1.58612
 30
0.0
 11
160.517
 21
1.4428
 31
0.0
  0
LINE
  8
0
 62
     0
 10
160.517
 20
1.4428
 30
0.0
 11
160.441
 21
1.30638
 31
0.0
  0
LINE
  8
0
 62
     0
 10
160.441
 20
1.30638
 30
0.0
 11
160.353
 21
1.17685
 31
0.0
  0
LINE
  8
0
 62
     0
 10
160.353
 20
1.17685
 30
0.0
 11
160.255
 21
1.05282
 31
0.0
  0
LINE
  8
0
 62
     0
 10
160.255
 20
1.05282
 30
0.0
 11
160.15
 21
0.937066
 31
0.0
  0
LINE
  8
0
 62
     0
 10
160.15
 20
0.937066
 30
0.0
 11
160.033
 21
0.830957
 31
0.0
  0
LINE
  8
0
 62
     0
 10
160.033
 20
0.830957
 30
0.0
 11
159.91
 21
0.734494
 31
0.0
  0
LINE
  8
0
 62
     0
 10
159.91
 20
0.734494
 30
0.0
 11
159.779
 21
0.646299
 31
0.0
  0
LINE
  8
0
 62
     0
 10
159.779
 20
0.646299
 30
0.0
 11
159.643
 21
0.569129
 31
0.0
  0
LINE
  8
0
 62
     0
 10
159.643
 20
0.569129
 30
0.0
 11
159.501
 21
0.504363
 31
0.0
  0
LINE
  8
0
 62
     0
 10
159.501
 20
0.504363
 30
0.0
 11
159.352
 21
0.449241
 31
0.0
  0
LINE
  8
0
 62
     0
 10
159.352
 20
0.449241
 30
0.0
 11
159.202
 21
0.407899
 31
0.0
  0
LINE
  8
0
 62
     0
 10
159.202
 20
0.407899
 30
0.0
 11
159.048
 21
0.377582
 31
0.0
  0
LINE
  8
0
 62
     0
 10
159.048
 20
0.377582
 30
0.0
 11
158.892
 21
0.359668
 31
0.0
  0
LINE
  8
0
 62
     0
 10
158.892
 20
0.359668
 30
0.0
 11
158.735
 21
0.3514
 31
0.0
  0
LINE
  8
0
 62
     0
 10
158.735
 20
0.3514
 30
0.0
 11
2.096
 21
0.3514
 31
0.0
  0
LINE
  8
0
 62
     0
 10
2.096
 20
0.3514
 30
0.0
 11
1.9389
 21
0.359668
 31
0.0
  0
LINE
  8
0
 62
     0
 10
1.9389
 20
0.359668
 30
0.0
 11
1.7818
 21
0.377582
 31
0.0
  0
LINE
  8
0
 62
     0
 10
1.7818
 20
0.377582
 30
0.0
 11
1.62884
 21
0.407899
 31
0.0
  0
LINE
  8
0
 62
     0
 10
1.62884
 20
0.407899
 30
0.0
 11
1.47588
 21
0.449241
 31
0.0
  0
LINE
  8
0
 62
     0
 10
1.47588
 20
0.449241
 30
0.0
 11
1.32981
 21
0.504363
 31
0.0
  0
LINE
  8
0
 62
     0
 10
1.32981
 20
0.504363
 30
0.0
 11
1.18787
 21
0.569129
 31
0.0
  0
LINE
  8
0
 62
     0
 10
1.18787
 20
0.569129
 30
0.0
 11
1.05006
 21
0.646299
 31
0.0
  0
LINE
  8
0
 62
     0
 10
1.05006
 20
0.646299
 30
0.0
 11
0.919152
 21
0.734494
 31
0.0
  0
LINE
  8
0
 62
     0
 10
0.919152
 20
0.734494
 30
0.0
 11
0.796505
 21
0.830957
 31
0.0
  0
LINE
  8
0
 62
     0
 10
0.796505
 20
0.830957
 30
0.0
 11
0.680752
 21
0.937066
 31
0.0
  0
LINE
  8
0
 62
     0
 10
0.680752
 20
0.937066
 30
0.0
 11
0.574643
 21
1.05282
 31
0.0
  0
LINE
  8
0
 62
     0
 10
0.574643
 20
1.05282
 30
0.0
 11
0.4768
 21
1.17685
 31
0.0
  0
LINE
  8
0
 62
     0
 10
0.4768
 20
1.17685
 30
0.0
 11
0.389985
 21
1.30638
 31
0.0
  0
LINE
  8
0
 62
     0
 10
0.389985
 20
1.30638
 30
0.0
 11
0.312815
 21
1.4428
 31
0.0
  0
LINE
  8
0
 62
     0
 10
0.312815
 20
1.4428
 30
0.0
 11
0.248047
 21
1.58612
 31
0.0
  0
LINE
  8
0
 62
     0
 10
0.248047
 20
1.58612
 30
0.0
 11
0.192925
 21
1.73495
 31
0.0
  0
LINE
  8
0
 62
     0
 10
0.192925
 20
1.73495
 30
0.0
 11
0.150206
 21
1.88378
 31
0.0
  0
LINE
  8
0
 62
     0
 10
0.150206
 20
1.88378
 30
0.0
 11
0.119889
 21
2.0395
 31
0.0
  0
LINE
  8
0
 62
     0
 10
0.119889
 20
2.0395
 30
0.0
 11
0.101975
 21
2.19384
 31
0.0
  0
LINE
  8
0
 62
     0
 10
0.101975
 20
2.19384
 30
0.0
 11
0.0950846
 21
2.35093
 31
0.0
  0
LINE
  8
0
 62
     0
 10
0.0950846
 20
2.35093
 30
0.0
 11
0.0950846
 21
123.493
 31
0.0
  0
LINE
  8
0
 62
     0
 10
0.0950846
 20
123.493
 30
0.0
 11
0.101975
 21
123.65
 31
0.0
  0
LINE
  8
0
 62
     0
 10
0.101975
 20
123.65
 30
0.0
 11
0.119889
 21
123.807
 31
0.0
  0
LINE
  8
0
 62
     0
 10
0.119889
 20
123.807
 30
0.0
 11
0.150206
 21
123.96
 31
0.0
  0
LINE
  8
0
 62
     0
 10
0.150206
 20
123.96
 30
0.0
 11
0.192925
 21
124.113
 31
0.0
  0
LINE
  8
0
 62
     0
 10
0.192925
 20
124.113
 30
0.0
 11
0.248047
 21
124.259
 31
0.0
  0
LINE
  8
0
 62
     0
 10
0.248047
 20
124.259
 30
0.0
 11
0.312815
 21
124.401
 31
0.0
  0
LINE
  8
0
 62
     0
 10
0.312815
 20
124.401
 30
0.0
 11
0.389985
 21
124.539
 31
0.0
  0
LINE
  8
0
 62
     0
 10
0.389985
 20
124.539
 30
0.0
 11
0.4768
 21
124.67
 31
0.0
  0
LINE
  8
0
 62
     0
 10
0.4768
 20
124.67
 30
0.0
 11
0.574643
 21
124.792
 31
0.0
  0
LINE
  8
0
 62
     0
 10
0.574643
 20
124.792
 30
0.0
 11
0.680752
 21
124.908
 31
0.0
  0
LINE
  8
0
 62
     0
 10
0.680752
 20
124.908
 30
0.0
 11
0.796505
 21
125.014
 31
0.0
  0
LINE
  8
0
 62
     0
 10
0.796505
 20
125.014
 30
0.0
 11
0.919152
 21
125.112
 31
0.0
  0
LINE
  8
0
 62
     0
 10
0.919152
 20
125.112
 30
0.0
 11
1.05006
 21
125.199
 31
0.0
  0
LINE
  8
0
 62
     0
 10
1.05006
 20
125.199
 30
0.0
 11
1.18787
 21
125.276
 31
0.0
  0
LINE
  8
0
 62
     0
 10
1.18787
 20
125.276
 30
0.0
 11
1.32981
 21
125.341
 31
0.0
  0
LINE
  8
0
 62
     0
 10
1.32981
 20
125.341
 30
0.0
 11
1.47588
 21
125.396
 31
0.0
  0
LINE
  8
0
 62
     0
 10
1.47588
 20
125.396
 30
0.0
 11
1.62884
 21
125.439
 31
0.0
  0
LINE
  8
0
 62
     0
 10
1.62884
 20
125.439
 30
0.0
 11
1.7818
 21
125.469
 31
0.0
  0
LINE
  8
0
 62
     0
 10
1.7818
 20
125.469
 30
0.0
 11
1.9389
 21
125.487
 31
0.0
  0
LINE
  8
0
 62
     0
 10
1.9389
 20
125.487
 30
0.0
 11
2.096
 21
125.494
 31
0.0
  0
LINE
  8
0
 62
     0
 10
2.096
 20
125.494
 30
0.0
 11
158.735
 21
125.494
 31
0.0
  0
LINE
  8
0
 62
     0
 10
139.945
 20
41.1138
 30
0.0
 11
139.149
 21
41.5742
 31
0.0
  0
LINE
  8
0
 62
     0
 10
139.149
 20
41.5742
 30
0.0
 11
137.498
 21
38.716
 31
0.0
  0
LINE
  8
0
 62
     0
 10
137.498
 20
38.716
 30
0.0
 11
138.296
 21
38.2556
 31
0.0
  0
LINE
  8
0
 62
     0
 10
138.296
 20
38.2556
 30
0.0
 11
137.433
 21
36.7619
 31
0.0
  0
LINE
  8
0
 62
     0
 10
137.433
 20
36.7619
 30
0.0
 11
140.231
 21
35.1469
 31
0.0
  0
LINE
  8
0
 62
     0
 10
140.231
 20
35.1469
 30
0.0
 11
139.467
 21
33.8253
 31
0.0
  0
LINE
  8
0
 62
     0
 10
139.467
 20
33.8253
 30
0.0
 11
135.398
 21
36.1749
 31
0.0
  0
LINE
  8
0
 62
     0
 10
135.398
 20
36.1749
 30
0.0
 11
128.397
 21
24.0509
 31
0.0
  0
LINE
  8
0
 62
     0
 10
128.397
 20
24.0509
 30
0.0
 11
132.468
 21
21.7013
 31
0.0
  0
LINE
  8
0
 62
     0
 10
132.468
 20
21.7013
 30
0.0
 11
131.706
 21
20.3798
 31
0.0
  0
LINE
  8
0
 62
     0
 10
131.706
 20
20.3798
 30
0.0
 11
128.907
 21
21.9949
 31
0.0
  0
LINE
  8
0
 62
     0
 10
128.907
 20
21.9949
 30
0.0
 11
128.046
 21
20.5011
 31
0.0
  0
LINE
  8
0
 62
     0
 10
128.046
 20
20.5011
 30
0.0
 11
127.248
 21
20.9613
 31
0.0
  0
LINE
  8
0
 62
     0
 10
127.248
 20
20.9613
 30
0.0
 11
125.597
 21
18.1033
 31
0.0
  0
LINE
  8
0
 62
     0
 10
125.597
 20
18.1033
 30
0.0
 11
126.395
 21
17.643
 31
0.0
  0
LINE
  8
0
 62
     0
 10
126.395
 20
17.643
 30
0.0
 11
125.532
 21
16.1492
 31
0.0
  0
LINE
  8
0
 62
     0
 10
125.532
 20
16.1492
 30
0.0
 11
128.33
 21
14.5342
 31
0.0
  0
LINE
  8
0
 62
     0
 10
128.33
 20
14.5342
 30
0.0
 11
127.918
 21
13.8204
 31
0.0
  0
LINE
  8
0
 62
     0
 10
127.918
 20
13.8204
 30
0.0
 11
130.343
 21
12.4202
 31
0.0
  0
LINE
  8
0
 62
     0
 10
130.343
 20
12.4202
 30
0.0
 11
130.755
 21
13.1341
 31
0.0
  0
LINE
  8
0
 62
     0
 10
130.755
 20
13.1341
 30
0.0
 11
136.186
 21
9.99906
 31
0.0
  0
LINE
  8
0
 62
     0
 10
136.186
 20
9.99906
 30
0.0
 11
137.047
 21
11.4928
 31
0.0
  0
LINE
  8
0
 62
     0
 10
137.047
 20
11.4928
 30
0.0
 11
137.896
 21
11.0036
 31
0.0
  0
LINE
  8
0
 62
     0
 10
137.896
 20
11.0036
 30
0.0
 11
139.547
 21
13.8617
 31
0.0
  0
LINE
  8
0
 62
     0
 10
139.547
 20
13.8617
 30
0.0
 11
138.698
 21
14.3509
 31
0.0
  0
LINE
  8
0
 62
     0
 10
138.698
 20
14.3509
 30
0.0
 11
139.561
 21
15.8461
 31
0.0
  0
LINE
  8
0
 62
     0
 10
139.561
 20
15.8461
 30
0.0
 11
135.689
 21
18.0799
 31
0.0
  0
LINE
  8
0
 62
     0
 10
135.689
 20
18.0799
 30
0.0
 11
136.452
 21
19.4014
 31
0.0
  0
LINE
  8
0
 62
     0
 10
136.452
 20
19.4014
 30
0.0
 11
140.521
 21
17.0518
 31
0.0
  0
LINE
  8
0
 62
     0
 10
140.521
 20
17.0518
 30
0.0
 11
147.522
 21
29.1758
 31
0.0
  0
LINE
  8
0
 62
     0
 10
147.522
 20
29.1758
 30
0.0
 11
143.451
 21
31.5254
 31
0.0
  0
LINE
  8
0
 62
     0
 10
143.451
 20
31.5254
 30
0.0
 11
144.213
 21
32.8469
 31
0.0
  0
LINE
  8
0
 62
     0
 10
144.213
 20
32.8469
 30
0.0
 11
148.086
 21
30.6117
 31
0.0
  0
LINE
  8
0
 62
     0
 10
148.086
 20
30.6117
 30
0.0
 11
148.948
 21
32.1055
 31
0.0
  0
LINE
  8
0
 62
     0
 10
148.948
 20
32.1055
 30
0.0
 11
149.797
 21
31.615
 31
0.0
  0
LINE
  8
0
 62
     0
 10
149.797
 20
31.615
 30
0.0
 11
151.446
 21
34.473
 31
0.0
  0
LINE
  8
0
 62
     0
 10
151.446
 20
34.473
 30
0.0
 11
150.598
 21
34.9636
 31
0.0
  0
LINE
  8
0
 62
     0
 10
150.598
 20
34.9636
 30
0.0
 11
151.46
 21
36.4575
 31
0.0
  0
LINE
  8
0
 62
     0
 10
151.46
 20
36.4575
 30
0.0
 11
146.031
 21
39.5923
 31
0.0
  0
LINE
  8
0
 62
     0
 10
146.031
 20
39.5923
 30
0.0
 11
146.443
 21
40.3063
 31
0.0
  0
LINE
  8
0
 62
     0
 10
146.443
 20
40.3063
 30
0.0
 11
144.017
 21
41.7064
 31
0.0
  0
LINE
  8
0
 62
     0
 10
144.017
 20
41.7064
 30
0.0
 11
143.605
 21
40.9924
 31
0.0
  0
LINE
  8
0
 62
     0
 10
143.605
 20
40.9924
 30
0.0
 11
140.808
 21
42.6074
 31
0.0
  0
LINE
  8
0
 62
     0
 10
140.808
 20
42.6074
 30
0.0
 11
139.945
 21
41.1138
 31
0.0
  0
LINE
  8
0
 62
     0
 10
104.414
 20
21.7634
 30
0.0
 11
117.999
 21
18.3761
 31
0.0
  0
LINE
  8
0
 62
     0
 10
117.999
 20
18.3761
 30
0.0
 11
121.386
 21
31.9609
 31
0.0
  0
LINE
  8
0
 62
     0
 10
121.386
 20
31.9609
 30
0.0
 11
107.801
 21
35.348
 31
0.0
  0
LINE
  8
0
 62
     0
 10
107.801
 20
35.348
 30
0.0
 11
104.414
 21
21.7634
 31
0.0
  0
LINE
  8
0
 62
     0
 10
83.8207
 20
36.0549
 30
0.0
 11
97.82
 21
36.0549
 31
0.0
  0
LINE
  8
0
 62
     0
 10
97.82
 20
36.0549
 30
0.0
 11
97.82
 21
22.0541
 31
0.0
  0
LINE
  8
0
 62
     0
 10
97.82
 20
22.0541
 30
0.0
 11
83.8207
 21
22.0541
 31
0.0
  0
LINE
  8
0
 62
     0
 10
83.8207
 20
22.0541
 30
0.0
 11
83.8207
 21
36.0549
 31
0.0
  0
LINE
  8
0
 62
     0
 10
36.1957
 20
51.2946
 30
0.0
 11
50.195
 21
51.2946
 31
0.0
  0
LINE
  8
0
 62
     0
 10
50.195
 20
51.2946
 30
0.0
 11
50.195
 21
37.2939
 31
0.0
  0
LINE
  8
0
 62
     0
 10
50.195
 20
37.2939
 30
0.0
 11
36.1957
 21
37.2939
 31
0.0
  0
LINE
  8
0
 62
     0
 10
36.1957
 20
37.2939
 30
0.0
 11
36.1957
 21
51.2946
 31
0.0
  0
LINE
  8
0
 62
     0
 10
112.396
 20
53.6758
 30
0.0
 11
126.395
 21
53.6758
 31
0.0
  0
LINE
  8
0
 62
     0
 10
126.395
 20
53.6758
 30
0.0
 11
126.395
 21
39.6752
 31
0.0
  0
LINE
  8
0
 62
     0
 10
126.395
 20
39.6752
 30
0.0
 11
112.396
 21
39.6752
 31
0.0
  0
LINE
  8
0
 62
     0
 10
112.396
 20
39.6752
 30
0.0
 11
112.396
 21
53.6758
 31
0.0
  0
LINE
  8
0
 62
     0
 10
93.3457
 20
56.0557
 30
0.0
 11
107.345
 21
56.0557
 31
0.0
  0
LINE
  8
0
 62
     0
 10
107.345
 20
56.0557
 30
0.0
 11
107.345
 21
42.0564
 31
0.0
  0
LINE
  8
0
 62
     0
 10
107.345
 20
42.0564
 30
0.0
 11
93.3457
 21
42.0564
 31
0.0
  0
LINE
  8
0
 62
     0
 10
93.3457
 20
42.0564
 30
0.0
 11
93.3457
 21
56.0557
 31
0.0
  0
LINE
  8
0
 62
     0
 10
55.2457
 20
58.4369
 30
0.0
 11
69.245
 21
58.4369
 31
0.0
  0
LINE
  8
0
 62
     0
 10
69.245
 20
58.4369
 30
0.0
 11
69.245
 21
44.4377
 31
0.0
  0
LINE
  8
0
 62
     0
 10
69.245
 20
44.4377
 30
0.0
 11
55.2457
 21
44.4377
 31
0.0
  0
LINE
  8
0
 62
     0
 10
55.2457
 20
44.4377
 30
0.0
 11
55.2457
 21
58.4369
 31
0.0
  0
LINE
  8
0
 62
     0
 10
74.2957
 20
60.8182
 30
0.0
 11
88.295
 21
60.8182
 31
0.0
  0
LINE
  8
0
 62
     0
 10
88.295
 20
60.8182
 30
0.0
 11
88.295
 21
46.8189
 31
0.0
  0
LINE
  8
0
 62
     0
 10
88.295
 20
46.8189
 30
0.0
 11
74.2957
 21
46.8189
 31
0.0
  0
LINE
  8
0
 62
     0
 10
74.2957
 20
46.8189
 30
0.0
 11
74.2957
 21
60.8182
 31
0.0
  0
LINE
  8
0
 62
     0
 10
36.1957
 20
70.3432
 30
0.0
 11
50.195
 21
70.3432
 31
0.0
  0
LINE
  8
0
 62
     0
 10
50.195
 20
70.3432
 30
0.0
 11
50.195
 21
56.3439
 31
0.0
  0
LINE
  8
0
 62
     0
 10
50.195
 20
56.3439
 30
0.0
 11
36.1957
 21
56.3439
 31
0.0
  0
LINE
  8
0
 62
     0
 10
36.1957
 20
56.3439
 30
0.0
 11
36.1957
 21
70.3432
 31
0.0
  0
LINE
  8
0
 62
     0
 10
112.396
 20
72.7258
 30
0.0
 11
126.395
 21
72.7258
 31
0.0
  0
LINE
  8
0
 62
     0
 10
126.395
 20
72.7258
 30
0.0
 11
126.395
 21
58.7252
 31
0.0
  0
LINE
  8
0
 62
     0
 10
126.395
 20
58.7252
 30
0.0
 11
112.396
 21
58.7252
 31
0.0
  0
LINE
  8
0
 62
     0
 10
112.396
 20
58.7252
 30
0.0
 11
112.396
 21
72.7258
 31
0.0
  0
LINE
  8
0
 62
     0
 10
93.3457
 20
75.1057
 30
0.0
 11
107.345
 21
75.1057
 31
0.0
  0
LINE
  8
0
 62
     0
 10
107.345
 20
75.1057
 30
0.0
 11
107.345
 21
61.1064
 31
0.0
  0
LINE
  8
0
 62
     0
 10
107.345
 20
61.1064
 30
0.0
 11
93.3457
 21
61.1064
 31
0.0
  0
LINE
  8
0
 62
     0
 10
93.3457
 20
61.1064
 30
0.0
 11
93.3457
 21
75.1057
 31
0.0
  0
LINE
  8
0
 62
     0
 10
55.2457
 20
77.4869
 30
0.0
 11
69.245
 21
77.4869
 31
0.0
  0
LINE
  8
0
 62
     0
 10
69.245
 20
77.4869
 30
0.0
 11
69.245
 21
63.4877
 31
0.0
  0
LINE
  8
0
 62
     0
 10
69.245
 20
63.4877
 30
0.0
 11
55.2457
 21
63.4877
 31
0.0
  0
LINE
  8
0
 62
     0
 10
55.2457
 20
63.4877
 30
0.0
 11
55.2457
 21
77.4869
 31
0.0
  0
LINE
  8
0
 62
     0
 10
74.2957
 20
79.8682
 30
0.0
 11
88.295
 21
79.8682
 31
0.0
  0
LINE
  8
0
 62
     0
 10
88.295
 20
79.8682
 30
0.0
 11
88.295
 21
65.8689
 31
0.0
  0
LINE
  8
0
 62
     0
 10
88.295
 20
65.8689
 30
0.0
 11
74.2957
 21
65.8689
 31
0.0
  0
LINE
  8
0
 62
     0
 10
74.2957
 20
65.8689
 30
0.0
 11
74.2957
 21
79.8682
 31
0.0
  0
LINE
  8
0
 62
     0
 10
36.1957
 20
89.3932
 30
0.0
 11
50.195
 21
89.3932
 31
0.0
  0
LINE
  8
0
 62
     0
 10
50.195
 20
89.3932
 30
0.0
 11
50.195
 21
75.3939
 31
0.0
  0
LINE
  8
0
 62
     0
 10
50.195
 20
75.3939
 30
0.0
 11
36.1957
 21
75.3939
 31
0.0
  0
LINE
  8
0
 62
     0
 10
36.1957
 20
75.3939
 30
0.0
 11
36.1957
 21
89.3932
 31
0.0
  0
LINE
  8
0
 62
     0
 10
112.396
 20
91.7758
 30
0.0
 11
126.395
 21
91.7758
 31
0.0
  0
LINE
  8
0
 62
     0
 10
126.395
 20
91.7758
 30
0.0
 11
126.395
 21
77.7752
 31
0.0
  0
LINE
  8
0
 62
     0
 10
126.395
 20
77.7752
 30
0.0
 11
112.396
 21
77.7752
 31
0.0
  0
LINE
  8
0
 62
     0
 10
112.396
 20
77.7752
 30
0.0
 11
112.396
 21
91.7758
 31
0.0
  0
LINE
  8
0
 62
     0
 10
93.3457
 20
94.1557
 30
0.0
 11
107.345
 21
94.1557
 31
0.0
  0
LINE
  8
0
 62
     0
 10
107.345
 20
94.1557
 30
0.0
 11
107.345
 21
80.1564
 31
0.0
  0
LINE
  8
0
 62
     0
 10
107.345
 20
80.1564
 30
0.0
 11
93.3457
 21
80.1564
 31
0.0
  0
LINE
  8
0
 62
     0
 10
93.3457
 20
80.1564
 30
0.0
 11
93.3457
 21
94.1557
 31
0.0
  0
LINE
  8
0
 62
     0
 10
55.2457
 20
96.5369
 30
0.0
 11
69.245
 21
96.5369
 31
0.0
  0
LINE
  8
0
 62
     0
 10
69.245
 20
96.5369
 30
0.0
 11
69.245
 21
82.5377
 31
0.0
  0
LINE
  8
0
 62
     0
 10
69.245
 20
82.5377
 30
0.0
 11
55.2457
 21
82.5377
 31
0.0
  0
LINE
  8
0
 62
     0
 10
55.2457
 20
82.5377
 30
0.0
 11
55.2457
 21
96.5369
 31
0.0
  0
LINE
  8
0
 62
     0
 10
74.2957
 20
98.9182
 30
0.0
 11
88.295
 21
98.9182
 31
0.0
  0
LINE
  8
0
 62
     0
 10
88.295
 20
98.9182
 30
0.0
 11
88.295
 21
84.9189
 31
0.0
  0
LINE
  8
0
 62
     0
 10
88.295
 20
84.9189
 30
0.0
 11
74.2957
 21
84.9189
 31
0.0
  0
LINE
  8
0
 62
     0
 10
74.2957
 20
84.9189
 30
0.0
 11
74.2957
 21
98.9182
 31
0.0
  0
ENDSEC
  0
EOF
